<?xml version="1.0" encoding="utf-8"?>
<!-- Generator: Adobe Illustrator 16.0.0, SVG Export Plug-In . SVG Version: 6.00 Build 0)  -->
<!DOCTYPE svg PUBLIC "-//W3C//DTD SVG 1.1//EN" "http://www.w3.org/Graphics/SVG/1.1/DTD/svg11.dtd">
<svg version="1.1" id="Layer_1" xmlns="http://www.w3.org/2000/svg" xmlns:xlink="http://www.w3.org/1999/xlink" x="0px" y="0px"
	 width="213px" height="213px" viewBox="0 0 213 213" enable-background="new 0 0 213 213" xml:space="preserve">
<path fill="#D8D9D8" d="M-92.344,200.827"/>
<path fill="none" d="M310.657,200.827"/>
<path fill="none" d="M-98.343,200.827"/>
<path fill="none" d="M-92.344,200.827"/>
<path fill="none" d="M310.657,200.827"/>
<path fill="none" d="M-98.343,200.827"/>
<path fill="none" d="M-92.343,200.827"/>
<polyline fill="none" points="-11,-11 -11,224 224,224 224,-11 "/>
<polyline fill="none" points="-11,-10.999 -11,224 224,224 224,-10.999 "/>
<polyline fill="none" points="-11,-10.999 -11,224 224,224 224,-10.999 "/>
<path fill="none" d="M106.5-1.998C47.681-1.998,0,45.682,0,104.5"/>
<path fill="none" d="M0,104.5C0,163.319,47.681,211,106.5,211S213,163.319,213,104.5C213,45.682,165.319-1.998,106.5-1.998"/>
<polygon fill="#C9D749" points="138.001,49.399 144.672,54 149,47.6 142.329,43 "/>
<polygon fill="#C9D749" points="101.999,99.875 109.926,105.002 111.999,102.125 104.067,97 "/>
<polygon fill="#C9D749" points="101.658,143 95,163 129,163 122.346,143 "/>
<g>
	<defs>
		<path id="SVGID_1_" d="M137.051,82.022c4.836,5.984,7.5,13.395,7.5,21.127c0,18.58-15.104,33.691-33.678,33.691
			c-10.298,0-20.043-4.82-26.419-12.912H74.153c4.991,8.84,12.972,15.525,22.551,18.939l0.965-2.904
			c0.359-1.084,1.378-1.819,2.524-1.819h24.701c1.142,0,2.161,0.735,2.522,1.819l0.588,1.767
			c15.1-6.722,25.074-21.886,25.074-38.581c0-10.682-3.922-20.642-11.045-28.424L137.051,82.022z"/>
	</defs>
	<clipPath id="SVGID_2_">
		<use xlink:href="#SVGID_1_"  overflow="visible"/>
	</clipPath>
	<rect x="69.153" y="69.725" clip-path="url(#SVGID_2_)" fill="#6A9448" width="88.926" height="78.143"/>
</g>
<g>
	<defs>
		<path id="SVGID_3_" d="M104.889,90.762l13.475,9.203l20.652-30.256c0.109-0.409,0.283-0.8,0.593-1.129
			c0.101-0.111,0.235-0.164,0.349-0.252l4.936-7.231l-13.469-9.204L104.889,90.762z"/>
	</defs>
	<clipPath id="SVGID_4_">
		<use xlink:href="#SVGID_3_"  overflow="visible"/>
	</clipPath>
	<rect x="99.89" y="46.892" clip-path="url(#SVGID_4_)" fill="#C9D749" width="50.005" height="58.073"/>
</g>
<g>
	<defs>
		<path id="SVGID_5_" d="M102.11,143.463h20.864l6.713,20.217H95.395L102.11,143.463z M103.267,100.049l1.841-2.698l7.042,4.812
			l-1.84,2.699L103.267,100.049z M144.554,103.15c0-7.733-2.666-15.144-7.503-21.127l4.982-7.297
			c7.125,7.78,11.047,17.739,11.047,28.424c0,16.694-9.977,31.858-25.076,38.581l-0.588-1.766c-0.358-1.086-1.377-1.823-2.523-1.823
			h-24.702c-1.146,0-2.161,0.737-2.522,1.823l-0.966,2.904c-9.576-3.416-17.558-10.101-22.547-18.939h10.299
			c6.372,8.089,16.119,12.912,26.422,12.912C129.445,136.842,144.554,121.729,144.554,103.15 M104.893,90.762l26.529-38.869
			l13.474,9.203l-4.938,7.232c-0.115,0.088-0.248,0.141-0.349,0.25c-0.31,0.33-0.481,0.724-0.593,1.13l-20.653,30.257
			L104.893,90.762z M137.997,49.938l4.103-6.015l6.329,4.322l-4.107,6.014L137.997,49.938z M139.028,36
			c-0.818,0.027-1.613,0.43-2.111,1.158c-0.83,1.216-0.52,2.871,0.695,3.699l0.096,0.066l-4.104,6.013l-1.377-0.938
			c-0.583-0.4-1.295-0.545-1.991-0.418c-0.691,0.13-1.303,0.532-1.705,1.112l-27.698,40.581L99,89.959
			c-0.399,0.582-0.547,1.297-0.414,1.994c0.128,0.692,0.529,1.305,1.114,1.703l1.016,0.695l-3.34,4.891
			c-0.826,1.213-0.513,2.867,0.697,3.697l2.759,1.887l8.672,5.926c0.461,0.313,0.98,0.463,1.496,0.463
			c0.852,0,1.684-0.404,2.203-1.16l3.338-4.891l1.02,0.697c0.456,0.313,0.979,0.459,1.496,0.459c0.848,0,1.684-0.404,2.197-1.156
			l12.643-18.525c3.449,4.803,5.339,10.541,5.339,16.511c0,15.644-12.723,28.372-28.358,28.372c-7.171,0-14.017-2.791-19.22-7.592
			h18.066c1.469,0,2.658-1.191,2.658-2.66s-1.189-2.66-2.658-2.66h-8.891H56.659c-1.47,0-2.658,1.191-2.658,2.66
			c0,0.063,0.031,0.115,0.034,0.178c0.096,1.383,1.218,2.482,2.624,2.482h11.536c5.484,11.262,15.082,19.822,26.837,23.98
			l-5.239,15.77h-3.089c-1.47,0-2.659,1.191-2.659,2.66c0,1.428,1.122,2.593,2.534,2.658h51.923c1.412-0.065,2.535-1.23,2.535-2.658
			c0-1.469-1.189-2.66-2.66-2.66h-3.09l-5.606-16.891c17.177-7.422,28.596-24.486,28.716-43.342v-0.596
			c-0.079-12.152-4.923-23.865-13.309-32.603l5.697-8.349c0.83-1.213,0.519-2.869-0.697-3.696l-1.377-0.942l4.105-6.015l0.098,0.066
			c0.457,0.314,0.979,0.466,1.498,0.466c0.848,0,1.68-0.408,2.199-1.163c0.826-1.213,0.516-2.868-0.701-3.698l-2.291-1.564
			l-5.359-3.66l-7.652-5.23c-0.434-0.297-0.923-0.448-1.412-0.464H139.028z"/>
	</defs>
	<clipPath id="SVGID_6_">
		<use xlink:href="#SVGID_5_"  overflow="visible"/>
	</clipPath>
	<rect x="49" y="30.999" clip-path="url(#SVGID_6_)" fill="#604220" width="114.397" height="143.001"/>
</g>
<g>
	<defs>
		<path id="SVGID_7_" d="M77.923,77.993c-5.925,3.713-7.748,10.455-5.425,20.144c0.048,0.179,0.093,0.316,0.093,0.406
			c0.457,2.352-0.366,3.484-1.093,4.029c-0.777,0.543-1.732,0.59-2.096,0.407c0-0.044-0.049-0.044-0.049-0.044
			c-0.593-0.271-0.956-0.68-1.093-1.223c-0.181-0.994,0.411-2.309,0.911-2.897c0.182-0.226,0.231-0.541,0.047-0.813
			c-0.133-0.271-0.5-0.365-0.776-0.271c-2.552,0.859-5.333,5.342-6.018,9.547c-0.639,3.805,0.548,7.021,3.191,9.012
			c5.609,4.166,9.618,2.127,9.802,2.035c0.227-0.137,0.319-0.318,0.365-0.543c0.044-0.224-0.046-0.453-0.226-0.588
			c-0.96-0.768-1.413-1.539-1.369-2.354c0.045-1.809,2.509-3.625,4.01-4.709l0.183-0.137c0.863-0.635,1.397-0.201,1.801,0.234
			c0.431,0.461,0.715,0.924,1.09,0.107c0.779,1.166,1.557,1.057,2.059,0.949c0.493-0.107,0.723-0.213,0.431,0.885
			c-0.867,3.256-7.146,5.207-7.512,5.388c-0.269,0.086-0.457,0.407-0.408,0.724c0.042,0.316,0.318,0.584,0.639,0.584
			c0.318,0.049,0.59,0.049,0.913,0.049c8.294,0,16.202-4.781,16.075-11.181c-0.145-7.556-5.923-14.304-8.568-16.885
			c-0.318-0.319-0.548-0.544-0.73-0.724c-7.387-7.149-5.834-10.188-5.334-11.182l0.049-0.042c0.135-0.276,0.086-0.588-0.14-0.817
			c-0.132-0.131-0.296-0.202-0.465-0.202C78.16,77.882,78.037,77.917,77.923,77.993"/>
	</defs>
	<clipPath id="SVGID_8_">
		<use xlink:href="#SVGID_7_"  overflow="visible"/>
	</clipPath>
	<rect x="57.254" y="72.882" clip-path="url(#SVGID_8_)" fill="#F26943" width="41.216" height="51.033"/>
</g>
</svg>
