<?xml version="1.0" encoding="utf-8"?>
<!-- Generator: Adobe Illustrator 16.0.0, SVG Export Plug-In . SVG Version: 6.00 Build 0)  -->
<!DOCTYPE svg PUBLIC "-//W3C//DTD SVG 1.1//EN" "http://www.w3.org/Graphics/SVG/1.1/DTD/svg11.dtd">
<svg version="1.1" id="Layer_1" focusable="false" xmlns="http://www.w3.org/2000/svg" xmlns:xlink="http://www.w3.org/1999/xlink"
	 x="0px" y="0px" width="612px" height="792px" viewBox="0 0 612 792" enable-background="new 0 0 612 792" xml:space="preserve">
<path fill="#60411F" d="M260.237,137.676l30.327-30.327c12.841-12.841,33.605-12.841,46.31,0l265.564,265.428
	c12.841,12.841,12.841,33.605,0,46.31L336.873,684.65c-12.841,12.842-33.605,12.842-46.31,0l-30.327-30.326
	c-12.978-12.978-12.705-34.152,0.546-46.856l164.611-156.825H32.786C14.617,450.643,0,436.025,0,417.857v-43.714
	c0-18.169,14.617-32.786,32.786-32.786h392.609L260.783,184.532C247.396,171.828,247.122,150.653,260.237,137.676z"/>
</svg>
