<?xml version="1.0" encoding="utf-8"?>
<!-- Generator: Adobe Illustrator 16.0.0, SVG Export Plug-In . SVG Version: 6.00 Build 0)  -->
<!DOCTYPE svg PUBLIC "-//W3C//DTD SVG 1.1//EN" "http://www.w3.org/Graphics/SVG/1.1/DTD/svg11.dtd">
<svg version="1.1" id="Layer_1" xmlns="http://www.w3.org/2000/svg" xmlns:xlink="http://www.w3.org/1999/xlink" x="0px" y="0px"
	 width="213px" height="213px" viewBox="0 0 213 213" enable-background="new 0 0 213 213" xml:space="preserve">
<path fill="#D8D9D8" d="M-92.344,200.827"/>
<path fill="none" d="M310.657,200.827"/>
<path fill="none" d="M-98.343,200.827"/>
<path fill="none" d="M-92.344,200.827"/>
<path fill="none" d="M310.657,200.827"/>
<path fill="none" d="M-98.343,200.827"/>
<path fill="none" d="M-92.343,200.827"/>
<path fill="none" d="M106.5,0C47.681,0,0,47.683,0,106.5"/>
<path fill="none" d="M213,106.5C213,47.683,165.319,0,106.5,0"/>
<path fill="none" d="M106.5,213c58.819,0,106.5-47.682,106.5-106.5"/>
<path fill="none" d="M0,106.5C0,165.319,47.681,213,106.5,213"/>
<g>
	<defs>
		<path id="SVGID_1_" d="M62.054,131.103c-5.315,3.438-6.949,9.685-4.865,18.658c0.042,0.163,0.081,0.292,0.081,0.375
			c0.41,2.178-0.328,3.228-0.979,3.729c-0.698,0.504-1.553,0.545-1.881,0.379c0-0.041-0.044-0.041-0.044-0.041
			c-0.53-0.252-0.857-0.629-0.978-1.132c-0.164-0.923,0.366-2.14,0.816-2.684c0.162-0.208,0.206-0.5,0.042-0.755
			c-0.12-0.252-0.449-0.336-0.694-0.252c-2.29,0.799-4.786,4.947-5.398,8.844c-0.575,3.523,0.488,6.503,2.863,8.346
			c5.029,3.855,8.625,1.969,8.789,1.885c0.203-0.127,0.286-0.297,0.328-0.506c0.041-0.205-0.042-0.416-0.203-0.541
			c-0.863-0.711-1.267-1.427-1.228-2.181c0.042-1.675,2.251-3.356,3.598-4.362l0.162-0.127c0.774-0.588,1.254-0.184,1.617,0.221
			c0.384,0.428,0.639,0.854,0.977,0.1c0.702,1.08,1.396,0.979,1.847,0.877c0.442-0.098,0.648-0.195,0.386,0.818
			c-0.776,3.018-6.409,4.824-6.738,4.99c-0.242,0.08-0.409,0.377-0.367,0.67c0.041,0.293,0.286,0.541,0.573,0.541
			C61.044,169,61.29,169,61.578,169c7.441,0,14.532-4.426,14.42-10.354c-0.131-6.996-5.313-13.245-7.686-15.638
			c-0.285-0.295-0.492-0.502-0.655-0.67c-6.625-6.621-5.233-9.434-4.783-10.356l0.042-0.037c0.122-0.256,0.078-0.544-0.123-0.756
			c-0.12-0.123-0.267-0.188-0.418-0.188C62.267,131,62.157,131.034,62.054,131.103"/>
	</defs>
	<clipPath id="SVGID_2_">
		<use xlink:href="#SVGID_1_"  overflow="visible"/>
	</clipPath>
	<rect x="43" y="126" clip-path="url(#SVGID_2_)" fill="#F26943" width="38" height="48"/>
</g>
<g>
	<defs>
		<path id="SVGID_3_" d="M62,91.625C62.558,91.875,63.131,92,63.737,92c0.609,0,1.199-0.125,1.756-0.375H62z M65.713,69.43
			c0.085,0.035,0.183,0.054,0.286,0.07c-0.404-0.231-0.827-0.412-1.248-0.5C65.089,69.125,65.41,69.269,65.713,69.43"/>
	</defs>
	<clipPath id="SVGID_4_">
		<use xlink:href="#SVGID_3_"  overflow="visible"/>
	</clipPath>
	<rect x="57" y="64" clip-path="url(#SVGID_4_)" fill="#604220" width="14" height="33"/>
</g>
<g>
	<defs>
		<path id="SVGID_5_" d="M122.45,75.001c0,1.113,0.73,1.856,1.824,1.856c1.096,0,1.826-0.743,1.826-1.856
			c0-5.2,4.016-9.286,9.125-9.286c5.111,0,9.124,4.086,9.124,9.286c0,5.201-4.013,9.287-9.124,9.287H76.827
			c-1.096,0-1.827,0.74-1.827,1.856C75,87.258,75.731,88,76.827,88h58.398c7.115,0,12.775-5.755,12.775-13
			C148,67.758,142.34,62,135.225,62S122.45,67.758,122.45,75.001"/>
	</defs>
	<clipPath id="SVGID_6_">
		<use xlink:href="#SVGID_5_"  overflow="visible"/>
	</clipPath>
	<rect x="70" y="57" clip-path="url(#SVGID_6_)" fill="#6A9448" width="83" height="36"/>
</g>
<g>
	<defs>
		<path id="SVGID_7_" d="M143.202,99.471c-1.002,0.031-1.717,0.761-1.717,1.765c0,1.024,0.747,1.767,1.782,1.767h24.093
			c2.704,0,4.822,2.101,4.822,4.781c0,2.682-2.118,4.783-4.822,4.783c-2.701,0-4.82-2.102-4.82-4.783
			c0-1.022-0.75-1.767-1.781-1.767s-1.781,0.744-1.781,1.767c0,4.664,3.684,8.316,8.383,8.316c4.702,0,8.385-3.652,8.385-8.316
			c0-4.617-3.613-8.244-8.25-8.313H143.202z"/>
	</defs>
	<clipPath id="SVGID_8_">
		<use xlink:href="#SVGID_7_"  overflow="visible"/>
	</clipPath>
	<rect x="136.484" y="94.469" clip-path="url(#SVGID_8_)" fill="#6A9448" width="44.261" height="26.63"/>
</g>
<g>
	<defs>
		<path id="SVGID_9_" d="M103.767,113c-1.026,0-1.768,0.758-1.768,1.805c0,1.048,0.742,1.806,1.768,1.806h41.914
			c2.685,0,4.784,2.147,4.784,4.89s-2.1,4.888-4.784,4.888c-2.683,0-4.781-2.146-4.781-4.888c0-1.045-0.743-1.805-1.771-1.805
			c-1.021,0-1.766,0.76-1.766,1.805c0,4.768,3.653,8.5,8.317,8.5c4.666,0,8.317-3.732,8.317-8.5s-3.651-8.5-8.317-8.5H103.767z"/>
	</defs>
	<clipPath id="SVGID_10_">
		<use xlink:href="#SVGID_9_"  overflow="visible"/>
	</clipPath>
	<rect x="97" y="108" clip-path="url(#SVGID_10_)" fill="#6A9448" width="62" height="27"/>
</g>
<g>
	<defs>
		<path id="SVGID_11_" d="M157.12,88c0,0.74,0.53,1.274,1.26,1.274c0.732,0,1.263-0.534,1.263-1.274
			c0-1.937,1.499-3.453,3.416-3.453c1.916,0,3.419,1.517,3.419,3.453c0,1.936-1.503,3.451-3.419,3.451H139.26
			c-0.729,0-1.258,0.534-1.258,1.273c0,0.74,0.529,1.275,1.258,1.275h23.798c3.331,0,5.942-2.637,5.942-6c0-3.364-2.611-6-5.942-6
			C159.728,82.001,157.12,84.636,157.12,88"/>
	</defs>
	<clipPath id="SVGID_12_">
		<use xlink:href="#SVGID_11_"  overflow="visible"/>
	</clipPath>
	<rect x="133" y="77" clip-path="url(#SVGID_12_)" fill="#6A9448" width="41" height="22"/>
</g>
<path fill="none" stroke="#6A9448" stroke-width="0.25" stroke-miterlimit="10" d="M163.059,82c-3.33,0-5.94,2.636-5.94,6.001
	c0,0.737,0.53,1.274,1.262,1.274s1.261-0.537,1.261-1.274c0-1.937,1.5-3.452,3.418-3.452c1.916,0,3.418,1.516,3.418,3.452
	c0,1.934-1.502,3.448-3.418,3.448h-23.797c-0.731,0-1.263,0.537-1.263,1.274c0,0.74,0.531,1.276,1.263,1.276h23.797
	c3.332,0,5.94-2.637,5.94-5.999C169,84.636,166.391,82,163.059,82z"/>
<g>
	<defs>
		<path id="SVGID_13_" d="M58.664,99h-1.126h-4.772C51.743,99,51,99.84,51,100.999c0,1.16,0.743,2.002,1.766,2.002h4.772h1.126
			h6.571c1.022,0,1.766-0.842,1.766-2.002c0-1.158-0.744-1.998-1.766-1.998H58.664z"/>
	</defs>
	<clipPath id="SVGID_14_">
		<use xlink:href="#SVGID_13_"  overflow="visible"/>
	</clipPath>
	<rect x="46" y="94" clip-path="url(#SVGID_14_)" fill="#6A9448" width="26" height="14"/>
</g>
<g>
	<defs>
		<path id="SVGID_15_" d="M104.664,99h-1.125h-4.773C97.744,99,97,99.84,97,101c0,1.158,0.744,2,1.766,2h4.773h1.125h6.571
			c1.023,0,1.766-0.842,1.766-2c0-1.16-0.742-2-1.766-2H104.664z"/>
	</defs>
	<clipPath id="SVGID_16_">
		<use xlink:href="#SVGID_15_"  overflow="visible"/>
	</clipPath>
	<rect x="92" y="94" clip-path="url(#SVGID_16_)" fill="#6A9448" width="26" height="14"/>
</g>
<g>
	<defs>
		<path id="SVGID_17_" d="M43.484,99h-0.966h-1.004c-0.877,0-1.515,0.84-1.515,1.998c0,1.16,0.638,2.002,1.515,2.002h1.004h0.966
			h1.002c0.878,0,1.515-0.842,1.515-2.002c0-1.158-0.637-1.998-1.515-1.998H43.484z"/>
	</defs>
	<clipPath id="SVGID_18_">
		<use xlink:href="#SVGID_17_"  overflow="visible"/>
	</clipPath>
	<rect x="35" y="94" clip-path="url(#SVGID_18_)" fill="#6A9448" width="16" height="14"/>
</g>
<g>
	<defs>
		<path id="SVGID_19_" d="M106.799,77.001c-1.078,0-1.8,0.799-1.8,1.999c0,1.202,0.722,2,1.8,2h5.4c1.08,0,1.801-0.798,1.801-2
			c0-1.2-0.721-1.999-1.801-1.999H106.799z"/>
	</defs>
	<clipPath id="SVGID_20_">
		<use xlink:href="#SVGID_19_"  overflow="visible"/>
	</clipPath>
	<rect x="100" y="72" clip-path="url(#SVGID_20_)" fill="#6A9448" width="19" height="14"/>
</g>
<g>
	<defs>
		<path id="SVGID_21_" d="M68.823,77.001c-1.094,0-1.822,0.799-1.822,1.999c0,1.202,0.728,2,1.822,2h27.354
			c1.095,0,1.822-0.798,1.822-2c0-1.2-0.727-1.999-1.822-1.999H68.823z"/>
	</defs>
	<clipPath id="SVGID_22_">
		<use xlink:href="#SVGID_21_"  overflow="visible"/>
	</clipPath>
	<rect x="62" y="72" clip-path="url(#SVGID_22_)" fill="#6A9448" width="41" height="14"/>
</g>
<g>
	<defs>
		<path id="SVGID_23_" d="M89.498,50.372l-3.094,2.005c-1.457,1.094-2.91,2.552-4.004,4.193c-1.636-0.728-3.458-1.276-5.46-1.276
			c-6.007,0-10.919,4.013-12.376,9.665c-1.273-0.366-2.545-0.547-4.006-0.547c-1.455,0-2.91,0.181-4.184,0.73
			c0,0-2.04,0.73-3.277,1.641c-4.184,2.736-7.096,7.659-7.096,13.128c0,8.208,6.733,15.501,14.557,15.501H127.9
			c3.093,0,5.459,2.371,5.459,5.469c0,3.101-2.366,5.472-5.459,5.472c-3.092,0-5.462-2.371-5.462-5.472
			c0-1.092-0.725-1.822-1.818-1.822c-1.092,0-1.818,0.73-1.818,1.822c0,5.106,4.004,9.119,9.099,9.119
			c5.097,0,9.099-4.013,9.099-9.119s-4.002-9.116-9.099-9.116H65.057c-0.6,0.255-1.238,0.383-1.893,0.383
			c-0.655,0-1.275-0.128-1.875-0.383c-3.259-1.276-5.681-5.89-5.681-11.396c0-6.512,3.387-11.781,7.556-11.781
			c0.364,0,0.727,0.036,1.091,0.127c0.454,0.091,0.91,0.275,1.348,0.51c0.49,0.11,1.036,0.073,1.329-0.073
			c0.545-0.363,0.907-0.909,0.907-1.458c0.186-4.74,4.19-8.569,9.101-8.569c1.82,0,3.64,0.546,5.099,1.458
			c0.361,0.182,0.909,0.182,1.455,0.182c0.545-0.182,0.911-0.363,1.09-0.912c2.913-5.104,8.374-8.206,14.196-8.206
			c8.739,0,16.017,7.294,16.38,16.047c0,1.095,0.908,1.825,1.818,1.825c1.094,0,1.822-0.913,1.822-1.825
			C118.438,56.754,109.518,48,98.78,48C95.505,48,92.41,48.73,89.498,50.372"/>
	</defs>
	<clipPath id="SVGID_24_">
		<use xlink:href="#SVGID_23_"  overflow="visible"/>
	</clipPath>
	<rect x="41" y="43" clip-path="url(#SVGID_24_)" fill="#604220" width="101" height="72"/>
</g>
<polygon fill="#FAB140" points="74.464,99.98 65.768,120.19 63.785,124.803 63.785,124.806 67.561,126.768 81.219,133.87 
	74.208,169.959 74.342,170 74.346,170 88.888,132.87 89.875,130.344 87.218,128.511 76.505,121.126 89.736,99.98 "/>
</svg>
