<?xml version="1.0" encoding="utf-8"?>
<!-- Generator: Adobe Illustrator 16.0.0, SVG Export Plug-In . SVG Version: 6.00 Build 0)  -->
<!DOCTYPE svg PUBLIC "-//W3C//DTD SVG 1.1//EN" "http://www.w3.org/Graphics/SVG/1.1/DTD/svg11.dtd">
<svg version="1.1" id="Layer_1" xmlns="http://www.w3.org/2000/svg" xmlns:xlink="http://www.w3.org/1999/xlink" x="0px" y="0px"
	 width="399.345px" height="200.299px" viewBox="320.24 157.35 399.345 200.299"
	 enable-background="new 320.24 157.35 399.345 200.299" xml:space="preserve">
<g id="g1" transform="translate(-26.149211,-6.9701601)">
	<path id="path1" fill="#F9AF3B" d="M391.077,172.287l-32.934,143.69c0.009,0,0.01,0,0.029,0h152.36h79.243
		c-9.44-0.824-16.895-4.138-21.335-10.179c-0.823-1.117-1.504-2.321-2.101-3.581c-0.379-0.928-0.735-1.864-1.095-2.811
		c-0.947-3.011-1.325-6.353-1.154-9.913c0.474-9.924,5.13-21.727,13.197-34.088c8.569-13.136,20.989-26.904,36.366-39.68
		c3.446-2.862,7.011-5.688,10.741-8.434c4.611-3.393,9.258-6.518,13.907-9.439c17.13-10.784,34.216-18.33,49.356-22.163
		c-14.469,4.721-30.723,12.733-46.782,23.643c-0.577,0.391-1.147,0.79-1.716,1.184c-8.91,6.174-16.982,12.73-24.027,19.353
		c-22.668,21.313-34.649,43.4-29.205,56.34c0.388,0.89,0.851,1.739,1.391,2.544c5.852,8.607,20.354,10.095,38.733,5.475
		c1.25-0.313,2.5-0.667,3.788-1.035c5.87-1.695,12.104-3.985,18.522-6.807c1.544-0.682,3.104-1.382,4.676-2.13
		c0.161-0.076,0.313-0.151,0.474-0.237c20.264-10.068,35.836-21.653,39.207-28.613c0.738-1.515,0.916-2.805,0.414-3.817
		c-2.405-4.876-19.234-1.582-39.621,7.25c-1.639,0.71-3.295,1.44-4.972,2.219c1.363-1.266,2.782-2.537,4.231-3.787
		c2.311-1.99,4.703-3.937,7.25-5.859c3.986-3.019,8.017-5.747,11.984-8.167c18.577-14.016,27.97-27.273,26.009-32.194
		c-0.369-0.927-1.154-1.564-2.366-1.952c-3.873-1.232-10.941,0.238-19.53,3.758c-7.083,2.905-15.218,7.214-23.465,12.576
		l-1.125,0.739l-0.207,0.118l-3.965,2.634l2.278-4.172c3.381-6.188,8.887-12.645,15.742-18.643
		c5.028-4.385,10.771-8.517,16.955-12.132c2.339-1.369,4.674-2.641,7.013-3.787c2.396-1.171,4.793-2.211,7.132-3.137
		c6.795-2.687,13.281-4.32,18.938-4.764c-0.515,0-15.89,0-15.89,0h-53.559H409.807H391.077L391.077,172.287z M560.983,172.494
		c-0.928,14.163,1.818,34.907,8.049,57.938c1.107,4.098,2.313,8.269,3.64,12.487c0.824,2.604,1.674,5.169,2.545,7.693
		c-0.512,0.752-1.026,1.498-1.509,2.248c-7.774,11.914-12.318,23.173-13.464,32.964c-3.285-11.003-5.76-23.055-7.161-35.834
		c-0.397-3.661-0.709-7.282-0.917-10.859C550.632,213.146,554.024,189.59,560.983,172.494L560.983,172.494z M405.843,190.929
		c0.177-0.004,0.352,0,0.532,0h35.005c2.992,0,5.307,0.561,6.954,1.687c1.638,1.133,2.252,2.597,1.864,4.379l-4.173,18.85h-12.339
		l4.054-18.347h-30.892l-11.156,50.422l-4.023,18.258h30.862l0.029-0.119l6.185-27.933h-14.499l1.391-6.303h26.838l-7.693,34.857
		c-0.104,0.496-0.286,0.945-0.532,1.391c-0.635,1.155-1.741,2.145-3.284,2.959c-2.141,1.127-4.702,1.687-7.694,1.687h-34.975
		c-2.993,0-5.307-0.56-6.954-1.687c-1.638-1.127-2.262-2.565-1.864-4.35l15.417-69.686c0.397-1.781,1.638-3.246,3.787-4.379
		c0.075-0.041,0.161-0.05,0.236-0.089C400.88,191.544,403.182,190.992,405.843,190.929L405.843,190.929z M460.702,190.929h44.061
		c2.954,0,5.276,0.561,6.924,1.687c1.657,1.133,2.292,2.597,1.894,4.379l-8.226,37.166c-0.389,1.771-1.658,3.215-3.817,4.35
		c-2.159,1.138-4.7,1.716-7.664,1.716h-32.017l-6.185,27.904l-1.006,4.586h-12.072l0.917-4.143L460.702,190.929L460.702,190.929z
		 M521.57,190.929h12.072l-13.671,61.755l-2.988,13.493h28.88c0.303,2.215,0.656,4.39,1.035,6.539H503.46l3.433-15.505
		L521.57,190.929L521.57,190.929z M471.325,197.497l-8.019,36.16h30.093l7.99-36.16H471.325L471.325,197.497z M446.026,278.398
		c0.117-0.004,0.235,0,0.354,0c1.401,0,2.625,0.246,3.61,0.71c1.051,0.492,1.803,1.224,2.219,2.189
		c0.407,0.938,0.514,2.002,0.296,3.166l-0.089,0.444h-3.462l0.03-0.415c0.089-0.813-0.012-1.453-0.326-1.894
		c-0.041-0.055-0.1-0.128-0.147-0.177c-0.078-0.08-0.195-0.171-0.296-0.237c-0.484-0.305-1.242-0.474-2.22-0.474
		c-1.297,0-2.267,0.227-2.93,0.681c-0.644,0.445-1.051,0.942-1.183,1.539c-0.133,0.605,0.085,0.924,0.236,1.095
		c0.004,0.005,0.023,0.024,0.029,0.029c0.192,0.164,0.858,0.548,2.93,1.036c1.875,0.454,3.116,0.862,3.817,1.213
		c1.061,0.54,1.801,1.239,2.189,2.101c0.388,0.853,0.474,1.851,0.236,2.93c-0.236,1.052-0.772,2.021-1.568,2.93
		c-0.785,0.909-1.786,1.629-2.988,2.131c-1.193,0.492-2.502,0.769-3.847,0.769c-1.704,0-3.072-0.258-4.143-0.769
		c-1.117-0.53-1.924-1.368-2.396-2.457c-0.455-1.06-0.552-2.264-0.297-3.58l0.09-0.414h3.402l-0.029,0.414
		c-0.086,0.786-0.001,1.421,0.207,1.894c0.198,0.455,0.577,0.831,1.184,1.125c0.644,0.313,1.448,0.474,2.367,0.474
		c0.824,0,1.576-0.139,2.249-0.385c0.662-0.237,1.189-0.549,1.568-0.946c0.369-0.398,0.585-0.818,0.681-1.273
		c0.095-0.407,0.072-0.751-0.089-1.035c-0.181-0.304-0.536-0.572-1.096-0.799l-2.899-0.858c-1.619-0.407-2.709-0.796-3.344-1.184
		c-0.861-0.512-1.483-1.167-1.805-1.952c-0.322-0.777-0.356-1.638-0.148-2.575c0.218-1.004,0.702-1.959,1.45-2.812
		c0.758-0.861,1.735-1.537,2.899-1.982C443.801,278.663,444.884,278.436,446.026,278.398L446.026,278.398z M477.096,278.456
		c0.188-0.014,0.363,0,0.563,0l2.13,0.237l0.71,0.059l-1.035,2.634l-0.207,0.414l-1.628-0.147c-0.48,0-0.833,0.073-1.065,0.236
		c-0.015,0.012-0.045,0.047-0.059,0.06c-0.031,0.027-0.083,0.075-0.118,0.118c-0.143,0.187-0.316,0.521-0.444,1.125
		c0,0-0.062,0.255-0.118,0.473c0.748,0,2.545,0,2.545,0l-0.651,2.93c0,0-1.86,0-2.485,0c-0.189,0.852-2.515,11.274-2.515,11.274
		h-3.433c0,0,2.23-10.016,2.515-11.274c-0.577,0-1.982,0-1.982,0l0.651-2.93c0,0,1.413,0,1.952,0
		c0.096-0.407,0.237-0.917,0.237-0.917c0.208-0.947,0.426-1.627,0.71-2.102c0.389-0.652,0.937-1.199,1.628-1.598
		C475.564,278.718,476.284,278.52,477.096,278.456L477.096,278.456z M485.292,278.605c0,0-0.897,4.037-1.124,5.06
		c0.662,0,2.219,0,2.219,0l-0.65,2.93c0,0-1.633,0-2.22,0c-0.18,0.814-1.598,7.132-1.598,7.132s-0.118,0.758-0.118,0.976
		c0,0.008-0.001,0.024,0,0.029c0,0.002-0.001,0.028,0,0.03c0.001,0.001,0.028-0.001,0.029,0l0.355,0.029l1.627-0.118l-0.178,2.634
		l0.03,0.473l-2.338,0.267c-0.928,0-1.608-0.151-2.102-0.474c-0.521-0.341-0.823-0.793-0.946-1.36
		c-0.019-0.104-0.06-0.256-0.06-0.474c0-0.427,0.081-1.147,0.355-2.397c0,0,1.244-5.572,1.509-6.746c-0.444,0-1.627,0-1.627,0
		l0.65-2.93c0,0,1.154,0,1.628,0c0.151-0.682,0.681-3.019,0.681-3.019c0,0.001,2.752-1.449,2.752-1.449L485.292,278.605
		L485.292,278.605z M376.252,278.723h13.316l-0.74,3.314c0,0-8.883,0-9.735,0c-0.151,0.672-0.759,3.395-0.976,4.379
		c1.231,0,8.433,0,8.433,0l-0.74,3.314c0,0-7.582,0-8.434,0c-0.18,0.823-1.805,8.138-1.805,8.138c0-0.001-3.581,0-3.581,0
		C371.991,297.868,376.252,278.723,376.252,278.723L376.252,278.723z M394.095,283.399c0.134-0.017,0.28,0,0.415,0
		c0.852,0,1.639,0.259,2.396,0.799l0.474,0.325l-1.835,3.019l-0.503-0.355c-0.369-0.236-0.767-0.355-1.184-0.355
		c-0.359,0-0.694,0.128-1.036,0.355c-0.359,0.236-0.66,0.551-0.888,0.976c-0.397,0.729-0.688,1.547-0.888,2.427l-1.598,7.279h-3.433
		l3.167-14.203h3.195c0,0-0.11,0.431-0.147,0.592c0.15-0.113,0.311-0.27,0.443-0.354
		C393.134,283.627,393.618,283.457,394.095,283.399L394.095,283.399z M404.274,283.399c0.206-0.017,0.41,0,0.621,0
		c1.932,0,3.394,0.677,4.35,2.012c0.597,0.861,0.917,1.927,0.917,3.195c0,0.701-0.086,1.455-0.266,2.279l-0.267,1.035
		c0,0-8.681,0-9.646,0c-0.019,0.199-0.029,0.412-0.029,0.592c0,0.738,0.151,1.319,0.474,1.746c0.152,0.208,0.33,0.396,0.532,0.532
		c0.382,0.249,0.874,0.385,1.45,0.385c0.7,0,1.315-0.192,1.894-0.563c0.549-0.351,1.074-0.91,1.539-1.687h3.669l-0.325,0.711
		c-0.701,1.42-1.679,2.527-2.9,3.313s-2.681,1.213-4.29,1.213c-2.093,0-3.65-0.677-4.616-2.012
		c-0.957-1.307-1.163-3.112-0.651-5.386c0.512-2.311,1.532-4.156,3.019-5.444C401.079,284.166,402.591,283.526,404.274,283.399
		L404.274,283.399z M419.69,283.399c0.207-0.017,0.41,0,0.621,0c1.932,0,3.394,0.677,4.351,2.012
		c0.597,0.861,0.917,1.927,0.917,3.195c0,0.691-0.087,1.435-0.267,2.249l-0.267,1.065c0,0-8.68,0-9.646,0
		c-0.01,0.133-0.021,0.252-0.03,0.385c-0.007,0.05,0.004,0.125,0,0.178c0,0.008,0,0.021,0,0.029c0,0.142,0.021,0.282,0.03,0.414
		c0.047,0.54,0.188,0.991,0.443,1.332c0.049,0.066,0.095,0.147,0.148,0.207c0.434,0.464,1.047,0.71,1.834,0.71
		c0.701,0,1.326-0.192,1.894-0.563c0.55-0.351,1.075-0.91,1.539-1.687h3.699l-0.355,0.711c-0.701,1.42-1.679,2.527-2.899,3.313
		c-1.222,0.786-2.682,1.213-4.291,1.213c-2.093,0-3.65-0.677-4.616-2.012c-0.625-0.853-0.917-1.938-0.917-3.226
		c0-0.198,0.011-0.413,0.029-0.621c0.038-0.492,0.114-0.989,0.237-1.539c0.511-2.301,1.502-4.156,2.988-5.444
		C416.466,284.166,418.008,283.526,419.69,283.399L419.69,283.399z M461.68,283.399c0.211-0.017,0.405,0,0.621,0
		c1.969,0,3.483,0.666,4.468,1.982c0.976,1.315,1.212,3.091,0.71,5.326c-0.388,1.742-0.949,3.149-1.716,4.172
		c-0.768,1.023-1.745,1.858-2.9,2.427c-1.146,0.568-2.358,0.857-3.58,0.857c-2.008,0-3.502-0.687-4.468-2.012
		c-0.625-0.843-0.947-1.929-0.947-3.226c0-0.7,0.077-1.445,0.267-2.278c0.568-2.538,1.728-4.471,3.433-5.711
		C458.817,284.035,460.199,283.512,461.68,283.399L461.68,283.399z M513.669,283.399c0.25-0.016,0.481,0,0.74,0
		c1.192,0,2.13,0.12,2.841,0.414c0.757,0.303,1.295,0.731,1.597,1.242c0.294,0.483,0.444,1.076,0.444,1.806l-0.354,2.159
		l-0.651,2.931c-0.559,2.499-0.682,3.437-0.71,3.787c-0.028,0.474,0.015,0.935,0.147,1.361l0.237,0.77c0-0.001-3.492,0-3.492,0
		c0-0.001-0.147-0.444-0.147-0.444c-0.057-0.208-0.04-0.474-0.06-0.711c-0.663,0.408-1.327,0.769-1.923,0.978
		c-0.881,0.303-1.795,0.473-2.723,0.473c-1.609,0-2.802-0.419-3.521-1.243c-0.549-0.605-0.799-1.347-0.799-2.189
		c0-0.321,0.043-0.655,0.118-1.005c0.161-0.721,0.454-1.387,0.918-1.982c0.454-0.588,0.991-1.071,1.598-1.421
		c0.587-0.351,1.241-0.599,1.923-0.77l2.102-0.355c1.619-0.188,2.827-0.425,3.698-0.68c0.02-0.095,0.06-0.207,0.06-0.207
		c0.137-0.61,0.12-1.067-0.03-1.303c-0.011-0.016-0.046-0.046-0.059-0.059c-0.032-0.035-0.081-0.088-0.118-0.119
		c-0.356-0.281-0.964-0.414-1.775-0.414c-0.919,0-1.599,0.15-2.071,0.444c-0.464,0.293-0.894,0.83-1.272,1.598h-3.581l0.326-0.71
		c0.426-0.985,0.934-1.802,1.568-2.427c0.634-0.625,1.491-1.109,2.485-1.45C511.945,283.62,512.777,283.454,513.669,283.399
		L513.669,283.399z M528.672,283.399c0.133-0.017,0.279,0,0.414,0c0.861,0,1.668,0.259,2.426,0.799l0.444,0.325l-1.835,3.019
		l-0.503-0.355c-0.369-0.236-0.746-0.355-1.154-0.355c-0.359,0-0.715,0.128-1.065,0.355c-0.359,0.236-0.621,0.551-0.857,0.976
		c-0.389,0.729-0.689,1.547-0.888,2.427l-1.628,7.279h-3.433l3.166-14.203h3.196c0,0-0.081,0.431-0.118,0.592
		c0.151-0.113,0.302-0.27,0.443-0.354C527.731,283.627,528.194,283.457,528.672,283.399L528.672,283.399z M538.82,283.399
		c0.207-0.017,0.411,0,0.622,0c1.932,0,3.402,0.677,4.35,2.012c0.605,0.861,0.917,1.927,0.917,3.195
		c0,0.701-0.116,1.455-0.296,2.279l-0.236,1.035c0,0-8.69,0-9.646,0c-0.02,0.199-0.06,0.412-0.06,0.592
		c0,0.738,0.161,1.319,0.474,1.746c0.049,0.066,0.124,0.147,0.178,0.207c0.031,0.032,0.086,0.087,0.118,0.118
		c0.423,0.385,1,0.592,1.716,0.592c0.701,0,1.316-0.192,1.895-0.563c0.549-0.351,1.064-0.91,1.538-1.687h3.699l-0.355,0.711
		c-0.7,1.42-1.688,2.527-2.899,3.313c-1.23,0.786-2.672,1.213-4.29,1.213c-2.093,0-3.621-0.677-4.587-2.012
		c-0.957-1.307-1.183-3.112-0.681-5.386c0.512-2.311,1.502-4.156,2.988-5.444C535.604,284.166,537.139,283.526,538.82,283.399z
		 M487.008,283.664h3.521c0,0,0.435,8.429,0.444,8.552c0.142-0.302,0.252-0.556,0.267-0.592l3.876-7.96h3.226
		c0,0,0.296,8.327,0.296,8.374c0.095-0.171,4.408-8.374,4.408-8.374h3.492l-7.693,14.204c0-0.001-3.166,0-3.166,0
		c0-0.001-0.307-7.702-0.326-8.138c-1.307,2.68-3.965,8.138-3.965,8.138c0-0.001-3.255,0-3.255,0
		C488.133,297.868,487.008,283.664,487.008,283.664z M404.333,286.357c-0.815,0.035-1.557,0.329-2.249,0.888
		c-0.549,0.436-0.919,1.033-1.213,1.688h5.829c0.01-0.104,0.029-0.231,0.029-0.326c0-0.539-0.096-0.959-0.266-1.242
		c-0.417-0.683-1.034-1.007-1.953-1.007C404.456,286.357,404.388,286.355,404.333,286.357L404.333,286.357z M419.75,286.357
		c-0.815,0.035-1.557,0.329-2.249,0.888c-0.549,0.436-0.91,1.033-1.213,1.688h5.829c0.009-0.104,0.029-0.231,0.029-0.326
		c0-0.539-0.086-0.959-0.267-1.242c-0.082-0.139-0.194-0.276-0.296-0.385c-0.395-0.409-0.939-0.622-1.656-0.622
		C419.872,286.357,419.804,286.355,419.75,286.357L419.75,286.357z M538.999,286.357c-0.84,0.026-1.623,0.311-2.338,0.888
		c-0.54,0.436-0.911,1.033-1.214,1.688h5.8c0.01-0.104,0.029-0.231,0.029-0.326c0-0.539-0.086-0.959-0.266-1.242
		c-0.407-0.673-1.034-0.997-1.953-1.007C539.03,286.357,539.025,286.357,538.999,286.357z M461.471,286.416
		c-0.782,0.093-1.511,0.45-2.189,1.065c-0.814,0.738-1.405,1.898-1.746,3.433c-0.142,0.644-0.207,1.194-0.207,1.687
		c0,0.673,0.129,1.2,0.385,1.598c0.068,0.102,0.158,0.21,0.237,0.296c0.421,0.447,1.009,0.681,1.745,0.681
		c0.957,0,1.8-0.356,2.604-1.095c0.814-0.748,1.396-1.92,1.745-3.492c0.322-1.438,0.277-2.514-0.178-3.195
		c-0.435-0.663-1.072-0.977-1.952-0.977C461.766,286.416,461.617,286.4,461.471,286.416L461.471,286.416z M514.941,291.594
		c-0.805,0.219-1.707,0.401-2.899,0.563c-0.891,0.133-1.525,0.272-1.895,0.414c-0.321,0.134-0.581,0.316-0.799,0.563
		c-0.208,0.236-0.348,0.485-0.414,0.77c-0.019,0.113-0.029,0.23-0.029,0.325c0,0.008,0,0.022,0,0.03
		c0.001,0.022-0.003,0.066,0,0.088c0.006,0.043,0.018,0.108,0.029,0.148c0.005,0.013,0.024,0.047,0.029,0.06
		c0.011,0.025,0.018,0.064,0.03,0.089c0.014,0.023,0.043,0.065,0.059,0.088c0.025,0.035,0.059,0.087,0.089,0.119
		c0.237,0.265,0.709,0.384,1.391,0.384c0.748,0,1.468-0.142,2.131-0.473c0.653-0.322,1.18-0.803,1.568-1.361
		C514.515,293.002,514.743,292.39,514.941,291.594L514.941,291.594z"/>
	<path id="path2" fill="none" stroke="#F9AF3B" stroke-width="8.5261" d="M563.237,301.087c0.384,0.988,0.769,1.976,1.169,2.939
		c0.616,1.312,1.329,2.566,2.186,3.738c4.629,6.291,12.381,9.736,22.223,10.594h10.587c3.347-0.261,6.854-0.748,10.49-1.459
		c6.27-1.226,12.917-3.109,19.819-5.626c5.229-1.907,10.603-4.163,16.056-6.784c11.876-5.693,24.145-13.036,36.181-21.896
		c3.964-2.916,7.768-5.908,11.419-8.95c3.348-2.785,6.559-5.613,9.626-8.473c8.561-8.25,15.022-16.629,18.683-23.986
		c3.812-7.661,4.572-14.211,1.449-18.338c-1.913-2.532-5.116-3.891-9.241-4.21c18.579-13.94,29.406-30.851,25.521-41.512
		c-1.233-3.403-3.947-5.941-7.84-7.345c-1.729-0.622-3.675-1.016-5.798-1.195h-5.718c-7.983,0.576-19.594,3.435-29.443,8.262"/>
	<g id="g2" transform="scale(1.705222,1.705222)">
		<path id="path1_1_" fill="#F9AF3B" d="M203.134,213.825h4.142l1.86-7.774h6.73l0.866-3.331h-6.758l1.122-4.998h7.191l0.866-3.887
			h-11.356L203.134,213.825z"/>
		<path id="path2_1_" fill="#F9AF3B" d="M221.714,213.825l1.244-5.219c0.655-2.827,2.038-5.331,4.653-5.331
			c0.233,0,0.461,0.117,0.633,0.144l1.011-4.004c-0.233,0-0.489-0.028-0.777-0.028c-1.927,0-3.543,1.356-4.62,3.299h-0.111
			c0.161-0.95,0.3-1.849,0.405-2.743h-3.571c-0.205,1.155-0.522,3.415-1.005,5.453l-2.032,8.429H221.714z"/>
		<path id="path3" fill="#F9AF3B" d="M240.138,210.077c-1.149,0.561-2.46,0.416-3.987,0.416c-1.205,0-2.137-0.211-2.649-0.622
			c-0.266-0.45-0.377-1.149-0.355-1.599c5.625,0.149,9.173-1.15,9.351-4.704c0.133-2.682-1.827-4.182-4.675-4.182
			c-5.086,0-8.418,4.488-8.634,8.807c-0.189,3.771,1.766,5.63,5.797,5.63c1.55,0,3.604-0.177,5.286-0.683L240.138,210.077z
			 M238.617,203.569c-0.067,1.322-1.699,1.4-4.915,1.372c0.35-1.161,1.527-2.221,3.454-2.221
			C238.106,202.72,238.65,203.08,238.617,203.569z"/>
		<path id="path4" fill="#F9AF3B" d="M254.859,210.077c-1.149,0.561-2.46,0.416-3.981,0.416c-1.211,0-2.138-0.211-2.649-0.622
			c-0.267-0.45-0.383-1.149-0.361-1.599c5.631,0.149,9.173-1.15,9.357-4.704c0.133-2.682-1.827-4.182-4.675-4.182
			c-5.092,0-8.424,4.488-8.64,8.807c-0.183,3.771,1.771,5.63,5.797,5.63c1.555,0,3.609-0.177,5.292-0.683L254.859,210.077z
			 M253.343,203.569c-0.067,1.322-1.699,1.4-4.92,1.372c0.356-1.161,1.527-2.221,3.454-2.221
			C252.827,202.72,253.377,203.08,253.343,203.569z"/>
		<path id="path5" fill="#F9AF3B" d="M276.293,213.825c0.033-1.76,0.455-4.525,0.894-6.341l1.782-7.541
			c-1.133-0.384-2.898-0.556-4.598-0.556c-6.897,0-10.317,5.109-10.556,9.896c-0.149,3.004,1.478,4.542,4.009,4.542
			c1.638,0,3.487-0.794,4.926-3.181h0.061c-0.111,1.149-0.244,2.266-0.316,3.181H276.293z M273.445,205.896
			c-0.811,3.531-2.465,4.598-3.698,4.598c-1.149,0-1.649-0.816-1.582-2.004c0.133-2.682,2.254-5.769,4.931-5.769
			c0.433,0,0.772-0.078,1.088-0.156L273.445,205.896z"/>
		<path id="path6" fill="#F9AF3B" d="M279.008,213.17c0.799,0.622,2.477,0.627,4.226,0.655c3.737,0.028,6.558-1.604,6.725-4.603
			c0.094-1.999-1.455-3.182-2.971-3.976c-1.094-0.527-1.644-1.033-1.616-1.621c0.039-0.794,0.783-0.905,1.877-0.905
			c1.233,0,2.221,0.149,2.788,0.261l1.121-3.009c-0.639-0.383-1.916-0.584-3.554-0.584c-3.626,0-6.281,1.916-6.43,4.825
			c-0.089,1.799,1.205,3.01,2.771,3.832c1.266,0.65,1.699,1.149,1.666,1.854c-0.039,0.711-0.672,0.594-1.821,0.594
			c-1.35,0-2.843-0.178-3.632-0.3L279.008,213.17z"/>
		<path id="path7" fill="#F9AF3B" d="M301.165,213.825l3.359-13.881h-4.115l-3.382,13.881H301.165z M303.091,198.277
			c1.411,0,2.666-1.165,2.743-3.165c0.067-1.355-0.81-1.833-2.105-1.833c-1.349,0-2.582,0.877-2.654,2.188
			C301.009,196.789,301.886,198.277,303.091,198.277z"/>
		<path id="path8" fill="#F9AF3B" d="M309.105,213.825l1.466-6.252c0.761-3.182,2.399-4.298,3.748-4.298
			c1.066,0,1.377,0.455,1.327,1.116c-0.027,0.533-0.111,1.094-0.222,1.594l-1.866,7.84h4.143l1.965-8.223
			c0.15-0.711,0.317-1.771,0.35-2.416c0.122-2.504-1.127-3.415-3.426-3.415c-1.843,0-3.637,0.855-5.053,2.709h-0.056l0.378-2.537
			h-3.654c-0.239,1.188-0.544,2.626-0.977,4.303l-2.266,9.578H309.105z"/>
		<path id="path9" fill="#F9AF3B" d="M326.93,213.825h4.142l1.866-7.774h6.725l0.866-3.331h-6.758l1.122-4.998h7.191l0.866-3.887
			h-11.355L326.93,213.825z"/>
		<path id="path10" fill="#F9AF3B" d="M345.51,213.825l1.244-5.219c0.655-2.827,2.038-5.331,4.653-5.331
			c0.233,0,0.461,0.117,0.633,0.144l1.011-4.004c-0.233,0-0.488-0.028-0.777-0.028c-1.927,0-3.543,1.356-4.62,3.299h-0.111
			c0.161-0.95,0.3-1.849,0.405-2.743h-3.57c-0.2,1.155-0.522,3.415-1.005,5.453l-2.032,8.429H345.51z"/>
		<path id="path11" fill="#F9AF3B" d="M363.934,210.077c-1.15,0.561-2.46,0.416-3.987,0.416c-1.205,0-2.138-0.211-2.649-0.622
			c-0.267-0.45-0.377-1.149-0.356-1.599c5.625,0.149,9.173-1.15,9.351-4.704c0.133-2.682-1.827-4.182-4.676-4.182
			c-5.087,0-8.418,4.488-8.634,8.807c-0.189,3.771,1.771,5.63,5.797,5.63c1.549,0,3.609-0.177,5.286-0.683L363.934,210.077z
			 M362.413,203.569c-0.066,1.322-1.699,1.4-4.914,1.372c0.35-1.161,1.527-2.221,3.454-2.221
			C361.902,202.72,362.446,203.08,362.413,203.569z"/>
		<path id="path12" fill="#F9AF3B" d="M378.655,210.077c-1.149,0.561-2.46,0.416-3.981,0.416c-1.211,0-2.138-0.211-2.649-0.622
			c-0.266-0.45-0.383-1.149-0.361-1.599c5.631,0.149,9.173-1.15,9.357-4.704c0.133-2.682-1.827-4.182-4.676-4.182
			c-5.092,0-8.423,4.488-8.64,8.807c-0.183,3.771,1.771,5.63,5.797,5.63c1.555,0,3.61-0.177,5.292-0.683L378.655,210.077z
			 M377.139,203.569c-0.067,1.322-1.699,1.4-4.92,1.372c0.356-1.161,1.527-2.221,3.454-2.221
			C376.622,202.72,377.172,203.08,377.139,203.569z"/>
		<path id="path13" fill="#F9AF3B" d="M395.114,193.279l-1.561,6.308c-0.566-0.233-1.305-0.2-1.882-0.2
			c-5.32,0-9.085,4.554-9.334,9.485c-0.167,3.476,1.688,4.953,4.076,4.953c1.671,0,3.432-0.738,4.764-2.648h0.056l-0.317,2.648
			h3.765c0.172-1.665,0.533-3.648,0.939-5.458l3.603-15.087H395.114z M391.871,206.84c-0.65,2.737-2.183,3.654-3.393,3.654
			c-1.205,0-1.877-0.838-1.794-2.332c0.139-2.766,2.038-5.442,4.509-5.442c0.694,0,1.288,0.105,1.616,0.261L391.871,206.84z"/>
		<path id="path14" fill="#F9AF3B" d="M404.559,213.825c4.831,0,8.557-3.659,8.818-8.64c0.161-3.298-1.894-5.797-5.686-5.797
			c-5.009,0-8.601,4.054-8.851,8.952C398.667,211.904,400.966,213.825,404.559,213.825z M405.209,210.493
			c-1.411,0-2.188-0.9-2.105-2.243c0.111-2.238,1.494-5.53,3.876-5.53c1.644,0,2.149,1.26,2.082,2.499
			C408.94,207.661,407.452,210.493,405.209,210.493z"/>
		<path id="path15" fill="#F9AF3B" d="M418.524,213.825l1.499-6.341c0.628-2.826,2.193-4.764,3.598-4.764
			c1.011,0,1.289,0.738,1.239,1.704c-0.028,0.5-0.139,1.061-0.255,1.616l-1.855,7.785h3.998l1.499-6.369
			c0.689-2.915,2.165-4.736,3.543-4.736c0.949,0,1.344,0.678,1.299,1.643c-0.028,0.561-0.144,1.177-0.289,1.739l-1.799,7.723h4.026
			l1.938-8.223c0.15-0.739,0.322-1.888,0.35-2.477c0.122-2.443-1.072-3.737-3.227-3.737c-1.843,0-3.637,0.833-4.997,2.588
			c-0.05-1.266-0.955-2.588-3.198-2.588c-1.816,0-3.548,0.822-4.937,2.682h-0.056l0.372-2.126h-3.565
			c-0.233,1.188-0.517,2.626-0.95,4.303l-2.232,9.578H418.524z"/>
	</g>
</g>
</svg>
