<?xml version="1.0" encoding="utf-8"?>
<!-- Generator: Adobe Illustrator 24.1.0, SVG Export Plug-In . SVG Version: 6.00 Build 0)  -->
<svg version="1.1" id="Layer_1" xmlns="http://www.w3.org/2000/svg" xmlns:xlink="http://www.w3.org/1999/xlink" x="0px" y="0px"
	 viewBox="0 0 399.3 167.3" style="enable-background:new 0 0 399.3 167.3;" xml:space="preserve">
<style type="text/css">
	.st0{fill:#F9AF3B;}
	.st1{fill:none;stroke:#F9AF3B;stroke-width:8.5261;}
</style>
<g id="g1" transform="translate(-26.149211,-6.9701601)">
	<path id="path1" class="st0" d="M70.8,14.9L37.9,158.6c0,0,0,0,0,0h152.4h79.2c-9.4-0.8-16.9-4.1-21.3-10.2
		c-0.8-1.1-1.5-2.3-2.1-3.6c-0.4-0.9-0.7-1.9-1.1-2.8c-0.9-3-1.3-6.4-1.2-9.9c0.5-9.9,5.1-21.7,13.2-34.1
		c8.6-13.1,21-26.9,36.4-39.7c3.4-2.9,7-5.7,10.7-8.4c4.6-3.4,9.3-6.5,13.9-9.4c17.1-10.8,34.2-18.3,49.4-22.2
		c-14.5,4.7-30.7,12.7-46.8,23.6c-0.6,0.4-1.1,0.8-1.7,1.2c-8.9,6.2-17,12.7-24,19.4c-22.7,21.3-34.6,43.4-29.2,56.3
		c0.4,0.9,0.9,1.7,1.4,2.5c5.9,8.6,20.4,10.1,38.7,5.5c1.2-0.3,2.5-0.7,3.8-1c5.9-1.7,12.1-4,18.5-6.8c1.5-0.7,3.1-1.4,4.7-2.1
		c0.2-0.1,0.3-0.2,0.5-0.2c20.3-10.1,35.8-21.7,39.2-28.6c0.7-1.5,0.9-2.8,0.4-3.8c-2.4-4.9-19.2-1.6-39.6,7.2
		c-1.6,0.7-3.3,1.4-5,2.2c1.4-1.3,2.8-2.5,4.2-3.8c2.3-2,4.7-3.9,7.2-5.9c4-3,8-5.7,12-8.2c18.6-14,28-27.3,26-32.2
		c-0.4-0.9-1.2-1.6-2.4-2c-3.9-1.2-10.9,0.2-19.5,3.8c-7.1,2.9-15.2,7.2-23.5,12.6l-1.1,0.7l-0.2,0.1l-4,2.6l2.3-4.2
		c3.4-6.2,8.9-12.6,15.7-18.6c5-4.4,10.8-8.5,17-12.1c2.3-1.4,4.7-2.6,7-3.8c2.4-1.2,4.8-2.2,7.1-3.1c6.8-2.7,13.3-4.3,18.9-4.8
		c-0.5,0-15.9,0-15.9,0h-53.6H89.6L70.8,14.9L70.8,14.9z M240.7,15.1c-0.9,14.2,1.8,34.9,8,57.9c1.1,4.1,2.3,8.3,3.6,12.5
		c0.8,2.6,1.7,5.2,2.5,7.7c-0.5,0.8-1,1.5-1.5,2.2c-7.8,11.9-12.3,23.2-13.5,33c-3.3-11-5.8-23.1-7.2-35.8
		c-0.4-3.7-0.7-7.3-0.9-10.9C230.4,55.8,233.8,32.2,240.7,15.1L240.7,15.1z M85.6,33.6c0.2,0,0.4,0,0.5,0h35c3,0,5.3,0.6,7,1.7
		c1.6,1.1,2.3,2.6,1.9,4.4l-4.2,18.9h-12.3l4.1-18.3H86.6L75.5,90.6l-4,18.3h30.9l0-0.1l6.2-27.9H94l1.4-6.3h26.8l-7.7,34.9
		c-0.1,0.5-0.3,0.9-0.5,1.4c-0.6,1.2-1.7,2.1-3.3,3c-2.1,1.1-4.7,1.7-7.7,1.7h-35c-3,0-5.3-0.6-7-1.7c-1.6-1.1-2.3-2.6-1.9-4.4
		l15.4-69.7c0.4-1.8,1.6-3.2,3.8-4.4c0.1,0,0.2-0.1,0.2-0.1C80.6,34.2,82.9,33.6,85.6,33.6L85.6,33.6z M140.5,33.6h44.1
		c3,0,5.3,0.6,6.9,1.7c1.7,1.1,2.3,2.6,1.9,4.4l-8.2,37.2c-0.4,1.8-1.7,3.2-3.8,4.4c-2.2,1.1-4.7,1.7-7.7,1.7h-32l-6.2,27.9l-1,4.6
		h-12.1l0.9-4.1L140.5,33.6L140.5,33.6z M201.3,33.6h12.1l-13.7,61.8l-3,13.5h28.9c0.3,2.2,0.7,4.4,1,6.5h-43.4l3.4-15.5L201.3,33.6
		L201.3,33.6z M151.1,40.1l-8,36.2h30.1l8-36.2H151.1L151.1,40.1z M125.8,121c0.1,0,0.2,0,0.4,0c1.4,0,2.6,0.2,3.6,0.7
		c1.1,0.5,1.8,1.2,2.2,2.2c0.4,0.9,0.5,2,0.3,3.2l-0.1,0.4h-3.5l0-0.4c0.1-0.8,0-1.5-0.3-1.9c0-0.1-0.1-0.1-0.1-0.2
		c-0.1-0.1-0.2-0.2-0.3-0.2c-0.5-0.3-1.2-0.5-2.2-0.5c-1.3,0-2.3,0.2-2.9,0.7c-0.6,0.4-1.1,0.9-1.2,1.5c-0.1,0.6,0.1,0.9,0.2,1.1
		c0,0,0,0,0,0c0.2,0.2,0.9,0.5,2.9,1c1.9,0.5,3.1,0.9,3.8,1.2c1.1,0.5,1.8,1.2,2.2,2.1c0.4,0.9,0.5,1.9,0.2,2.9
		c-0.2,1.1-0.8,2-1.6,2.9c-0.8,0.9-1.8,1.6-3,2.1c-1.2,0.5-2.5,0.8-3.8,0.8c-1.7,0-3.1-0.3-4.1-0.8c-1.1-0.5-1.9-1.4-2.4-2.5
		c-0.5-1.1-0.6-2.3-0.3-3.6l0.1-0.4h3.4l0,0.4c-0.1,0.8,0,1.4,0.2,1.9c0.2,0.5,0.6,0.8,1.2,1.1c0.6,0.3,1.4,0.5,2.4,0.5
		c0.8,0,1.6-0.1,2.2-0.4c0.7-0.2,1.2-0.5,1.6-0.9c0.4-0.4,0.6-0.8,0.7-1.3c0.1-0.4,0.1-0.8-0.1-1c-0.2-0.3-0.5-0.6-1.1-0.8l-2.9-0.9
		c-1.6-0.4-2.7-0.8-3.3-1.2c-0.9-0.5-1.5-1.2-1.8-2c-0.3-0.8-0.4-1.6-0.1-2.6c0.2-1,0.7-2,1.5-2.8c0.8-0.9,1.7-1.5,2.9-2
		C123.6,121.3,124.6,121.1,125.8,121L125.8,121z M156.9,121.1c0.2,0,0.4,0,0.6,0l2.1,0.2l0.7,0.1l-1,2.6l-0.2,0.4l-1.6-0.1
		c-0.5,0-0.8,0.1-1.1,0.2c0,0,0,0-0.1,0.1c0,0-0.1,0.1-0.1,0.1c-0.1,0.2-0.3,0.5-0.4,1.1c0,0-0.1,0.3-0.1,0.5c0.7,0,2.5,0,2.5,0
		l-0.7,2.9c0,0-1.9,0-2.5,0c-0.2,0.9-2.5,11.3-2.5,11.3H149c0,0,2.2-10,2.5-11.3c-0.6,0-2,0-2,0l0.7-2.9c0,0,1.4,0,2,0
		c0.1-0.4,0.2-0.9,0.2-0.9c0.2-0.9,0.4-1.6,0.7-2.1c0.4-0.7,0.9-1.2,1.6-1.6C155.3,121.4,156,121.2,156.9,121.1L156.9,121.1z
		 M165.1,121.3c0,0-0.9,4-1.1,5.1c0.7,0,2.2,0,2.2,0l-0.6,2.9c0,0-1.6,0-2.2,0c-0.2,0.8-1.6,7.1-1.6,7.1s-0.1,0.8-0.1,1c0,0,0,0,0,0
		c0,0,0,0,0,0c0,0,0,0,0,0l0.4,0l1.6-0.1l-0.2,2.6l0,0.5l-2.3,0.3c-0.9,0-1.6-0.2-2.1-0.5c-0.5-0.3-0.8-0.8-0.9-1.4
		c0-0.1-0.1-0.3-0.1-0.5c0-0.4,0.1-1.1,0.4-2.4c0,0,1.2-5.6,1.5-6.7c-0.4,0-1.6,0-1.6,0l0.6-2.9c0,0,1.2,0,1.6,0
		c0.2-0.7,0.7-3,0.7-3c0,0,2.8-1.4,2.8-1.4L165.1,121.3L165.1,121.3z M56,121.4h13.3l-0.7,3.3c0,0-8.9,0-9.7,0
		c-0.2,0.7-0.8,3.4-1,4.4c1.2,0,8.4,0,8.4,0l-0.7,3.3c0,0-7.6,0-8.4,0c-0.2,0.8-1.8,8.1-1.8,8.1c0,0-3.6,0-3.6,0
		C51.8,140.5,56,121.4,56,121.4L56,121.4z M73.9,126c0.1,0,0.3,0,0.4,0c0.9,0,1.6,0.3,2.4,0.8l0.5,0.3l-1.8,3l-0.5-0.4
		c-0.4-0.2-0.8-0.4-1.2-0.4c-0.4,0-0.7,0.1-1,0.4c-0.4,0.2-0.7,0.6-0.9,1c-0.4,0.7-0.7,1.5-0.9,2.4l-1.6,7.3h-3.4l3.2-14.2h3.2
		c0,0-0.1,0.4-0.1,0.6c0.1-0.1,0.3-0.3,0.4-0.4C72.9,126.3,73.4,126.1,73.9,126L73.9,126z M84,126c0.2,0,0.4,0,0.6,0
		c1.9,0,3.4,0.7,4.4,2c0.6,0.9,0.9,1.9,0.9,3.2c0,0.7-0.1,1.5-0.3,2.3l-0.3,1c0,0-8.7,0-9.6,0c0,0.2,0,0.4,0,0.6
		c0,0.7,0.2,1.3,0.5,1.7c0.2,0.2,0.3,0.4,0.5,0.5c0.4,0.2,0.9,0.4,1.5,0.4c0.7,0,1.3-0.2,1.9-0.6c0.5-0.4,1.1-0.9,1.5-1.7h3.7
		l-0.3,0.7c-0.7,1.4-1.7,2.5-2.9,3.3s-2.7,1.2-4.3,1.2c-2.1,0-3.6-0.7-4.6-2c-1-1.3-1.2-3.1-0.7-5.4c0.5-2.3,1.5-4.2,3-5.4
		C80.8,126.8,82.4,126.2,84,126L84,126z M99.5,126c0.2,0,0.4,0,0.6,0c1.9,0,3.4,0.7,4.4,2c0.6,0.9,0.9,1.9,0.9,3.2
		c0,0.7-0.1,1.4-0.3,2.2l-0.3,1.1c0,0-8.7,0-9.6,0c0,0.1,0,0.3,0,0.4c0,0,0,0.1,0,0.2c0,0,0,0,0,0c0,0.1,0,0.3,0,0.4
		c0,0.5,0.2,1,0.4,1.3c0,0.1,0.1,0.1,0.1,0.2c0.4,0.5,1,0.7,1.8,0.7c0.7,0,1.3-0.2,1.9-0.6c0.5-0.4,1.1-0.9,1.5-1.7h3.7l-0.4,0.7
		c-0.7,1.4-1.7,2.5-2.9,3.3c-1.2,0.8-2.7,1.2-4.3,1.2c-2.1,0-3.6-0.7-4.6-2c-0.6-0.9-0.9-1.9-0.9-3.2c0-0.2,0-0.4,0-0.6
		c0-0.5,0.1-1,0.2-1.5c0.5-2.3,1.5-4.2,3-5.4C96.2,126.8,97.8,126.2,99.5,126L99.5,126z M141.4,126c0.2,0,0.4,0,0.6,0
		c2,0,3.5,0.7,4.5,2c1,1.3,1.2,3.1,0.7,5.3c-0.4,1.7-0.9,3.1-1.7,4.2c-0.8,1-1.7,1.9-2.9,2.4c-1.1,0.6-2.4,0.9-3.6,0.9
		c-2,0-3.5-0.7-4.5-2c-0.6-0.8-0.9-1.9-0.9-3.2c0-0.7,0.1-1.4,0.3-2.3c0.6-2.5,1.7-4.5,3.4-5.7C138.6,126.7,140,126.2,141.4,126
		L141.4,126z M193.4,126c0.2,0,0.5,0,0.7,0c1.2,0,2.1,0.1,2.8,0.4c0.8,0.3,1.3,0.7,1.6,1.2c0.3,0.5,0.4,1.1,0.4,1.8l-0.4,2.2
		l-0.7,2.9c-0.6,2.5-0.7,3.4-0.7,3.8c0,0.5,0,0.9,0.1,1.4l0.2,0.8c0,0-3.5,0-3.5,0c0,0-0.1-0.4-0.1-0.4c-0.1-0.2,0-0.5-0.1-0.7
		c-0.7,0.4-1.3,0.8-1.9,1c-0.9,0.3-1.8,0.5-2.7,0.5c-1.6,0-2.8-0.4-3.5-1.2c-0.5-0.6-0.8-1.3-0.8-2.2c0-0.3,0-0.7,0.1-1
		c0.2-0.7,0.5-1.4,0.9-2c0.5-0.6,1-1.1,1.6-1.4c0.6-0.4,1.2-0.6,1.9-0.8l2.1-0.4c1.6-0.2,2.8-0.4,3.7-0.7c0-0.1,0.1-0.2,0.1-0.2
		c0.1-0.6,0.1-1.1,0-1.3c0,0,0,0-0.1-0.1c0,0-0.1-0.1-0.1-0.1c-0.4-0.3-1-0.4-1.8-0.4c-0.9,0-1.6,0.1-2.1,0.4
		c-0.5,0.3-0.9,0.8-1.3,1.6h-3.6l0.3-0.7c0.4-1,0.9-1.8,1.6-2.4s1.5-1.1,2.5-1.5C191.7,126.3,192.5,126.1,193.4,126L193.4,126z
		 M208.4,126c0.1,0,0.3,0,0.4,0c0.9,0,1.7,0.3,2.4,0.8l0.4,0.3l-1.8,3l-0.5-0.4c-0.4-0.2-0.7-0.4-1.2-0.4c-0.4,0-0.7,0.1-1.1,0.4
		c-0.4,0.2-0.6,0.6-0.9,1c-0.4,0.7-0.7,1.5-0.9,2.4l-1.6,7.3h-3.4l3.2-14.2h3.2c0,0-0.1,0.4-0.1,0.6c0.2-0.1,0.3-0.3,0.4-0.4
		C207.5,126.3,208,126.1,208.4,126L208.4,126z M218.6,126c0.2,0,0.4,0,0.6,0c1.9,0,3.4,0.7,4.3,2c0.6,0.9,0.9,1.9,0.9,3.2
		c0,0.7-0.1,1.5-0.3,2.3l-0.2,1c0,0-8.7,0-9.6,0c0,0.2-0.1,0.4-0.1,0.6c0,0.7,0.2,1.3,0.5,1.7c0,0.1,0.1,0.1,0.2,0.2
		c0,0,0.1,0.1,0.1,0.1c0.4,0.4,1,0.6,1.7,0.6c0.7,0,1.3-0.2,1.9-0.6c0.5-0.4,1.1-0.9,1.5-1.7h3.7l-0.4,0.7c-0.7,1.4-1.7,2.5-2.9,3.3
		c-1.2,0.8-2.7,1.2-4.3,1.2c-2.1,0-3.6-0.7-4.6-2c-1-1.3-1.2-3.1-0.7-5.4c0.5-2.3,1.5-4.2,3-5.4C215.4,126.8,216.9,126.2,218.6,126z
		 M166.8,126.3h3.5c0,0,0.4,8.4,0.4,8.6c0.1-0.3,0.3-0.6,0.3-0.6l3.9-8h3.2c0,0,0.3,8.3,0.3,8.4c0.1-0.2,4.4-8.4,4.4-8.4h3.5
		l-7.7,14.2c0,0-3.2,0-3.2,0c0,0-0.3-7.7-0.3-8.1c-1.3,2.7-4,8.1-4,8.1c0,0-3.3,0-3.3,0C167.9,140.5,166.8,126.3,166.8,126.3z
		 M84.1,129c-0.8,0-1.6,0.3-2.2,0.9c-0.5,0.4-0.9,1-1.2,1.7h5.8c0-0.1,0-0.2,0-0.3c0-0.5-0.1-1-0.3-1.2c-0.4-0.7-1-1-2-1
		C84.2,129,84.1,129,84.1,129L84.1,129z M99.5,129c-0.8,0-1.6,0.3-2.2,0.9c-0.5,0.4-0.9,1-1.2,1.7h5.8c0-0.1,0-0.2,0-0.3
		c0-0.5-0.1-1-0.3-1.2c-0.1-0.1-0.2-0.3-0.3-0.4c-0.4-0.4-0.9-0.6-1.7-0.6C99.6,129,99.6,129,99.5,129L99.5,129z M218.8,129
		c-0.8,0-1.6,0.3-2.3,0.9c-0.5,0.4-0.9,1-1.2,1.7h5.8c0-0.1,0-0.2,0-0.3c0-0.5-0.1-1-0.3-1.2C220.4,129.3,219.7,129,218.8,129
		C218.8,129,218.8,129,218.8,129z M141.2,129.1c-0.8,0.1-1.5,0.5-2.2,1.1c-0.8,0.7-1.4,1.9-1.7,3.4c-0.1,0.6-0.2,1.2-0.2,1.7
		c0,0.7,0.1,1.2,0.4,1.6c0.1,0.1,0.2,0.2,0.2,0.3c0.4,0.4,1,0.7,1.7,0.7c1,0,1.8-0.4,2.6-1.1c0.8-0.7,1.4-1.9,1.7-3.5
		c0.3-1.4,0.3-2.5-0.2-3.2c-0.4-0.7-1.1-1-2-1C141.5,129.1,141.4,129,141.2,129.1L141.2,129.1z M194.7,134.2
		c-0.8,0.2-1.7,0.4-2.9,0.6c-0.9,0.1-1.5,0.3-1.9,0.4c-0.3,0.1-0.6,0.3-0.8,0.6c-0.2,0.2-0.3,0.5-0.4,0.8c0,0.1,0,0.2,0,0.3
		c0,0,0,0,0,0c0,0,0,0.1,0,0.1c0,0,0,0.1,0,0.1c0,0,0,0,0,0.1c0,0,0,0.1,0,0.1c0,0,0,0.1,0.1,0.1c0,0,0.1,0.1,0.1,0.1
		c0.2,0.3,0.7,0.4,1.4,0.4c0.7,0,1.5-0.1,2.1-0.5c0.7-0.3,1.2-0.8,1.6-1.4C194.3,135.7,194.5,135,194.7,134.2L194.7,134.2z"/>
	<path id="path2" class="st1" d="M243,143.7c0.4,1,0.8,2,1.2,2.9c0.6,1.3,1.3,2.6,2.2,3.7c4.6,6.3,12.4,9.7,22.2,10.6h10.6
		c3.3-0.3,6.9-0.7,10.5-1.5c6.3-1.2,12.9-3.1,19.8-5.6c5.2-1.9,10.6-4.2,16.1-6.8c11.9-5.7,24.1-13,36.2-21.9c4-2.9,7.8-5.9,11.4-9
		c3.3-2.8,6.6-5.6,9.6-8.5c8.6-8.2,15-16.6,18.7-24c3.8-7.7,4.6-14.2,1.4-18.3c-1.9-2.5-5.1-3.9-9.2-4.2
		c18.6-13.9,29.4-30.9,25.5-41.5c-1.2-3.4-3.9-5.9-7.8-7.3c-1.7-0.6-3.7-1-5.8-1.2h-5.7c-8,0.6-19.6,3.4-29.4,8.3"/>
</g>
</svg>
