<svg id="acad5894-e30d-4136-8066-3666b9998baa" data-name="Layer 1" xmlns="http://www.w3.org/2000/svg" xmlns:xlink="http://www.w3.org/1999/xlink" viewBox="0 0 373.06 57.86"><defs><clipPath id="b57a9228-1a37-42aa-a323-c2427c71ef7d" transform="translate(-4.39 -1.11)"><rect x="132.24" y="-0.45" width="247.39" height="56.29" style="fill:none"/></clipPath><clipPath id="b449e6f1-3da7-4d49-a0ef-cfd27bab59c3" transform="translate(-4.39 -1.11)"><rect x="133.21" y="1.11" width="244.25" height="53.4" style="fill:none"/></clipPath></defs><g style="clip-path:url(#b57a9228-1a37-42aa-a323-c2427c71ef7d)"><g style="clip-path:url(#b449e6f1-3da7-4d49-a0ef-cfd27bab59c3)"><path d="M161.58,36.45a7.63,7.63,0,0,1-1.53.15h-3.91V30.28h3c.55,0,1.13,0,1.73.09a5.57,5.57,0,0,1,1.64.43,3.16,3.16,0,0,1,1.2,1,2.62,2.62,0,0,1,.47,1.64,3.05,3.05,0,0,1-.36,1.56,2.61,2.61,0,0,1-.94,1,3.9,3.9,0,0,1-1.31.51" transform="translate(-4.39 -1.11)" style="fill:#f9af2f"/><path d="M169.31,47.5a35.06,35.06,0,0,1-7.13,6.16h0l-.23.14-.06,0-.3.19h0l-.22.13a3.62,3.62,0,0,1-1.51.33,3.64,3.64,0,0,1-3.68-3.7V41.56h4.29a18.51,18.51,0,0,0,3.91-.39,8.3,8.3,0,0,0,3.13-1.34,6.35,6.35,0,0,0,2.06-2.52,8.91,8.91,0,0,0,.76-3.91,8.48,8.48,0,0,0-.81-3.93A6.51,6.51,0,0,0,167.29,27a8.71,8.71,0,0,0-3.21-1.3,19.57,19.57,0,0,0-3.91-.38H154c-.7,0-3.77-.32-3.77-3.13V50.81a3.7,3.7,0,0,1-3.69,3.7,3.79,3.79,0,0,1-1.71-.42h0l-.41-.25,0,0a34.73,34.73,0,0,1-7.33-6.31c-3.45-3.92-4.82-10.71-3.23-15.41a31.55,31.55,0,0,1,3.48-7s-.14,5.72,4.15,6,5.63-6.15,4.76-11c-.64-3.6-1.7-16.39,13.54-18.91,0,0-7.07,2.31-4.56,9.12s12.93,10.34,17.31,21.86c1.69,4.66.31,11.24-3.24,15.41" transform="translate(-4.39 -1.11)" style="fill:#f9af2f"/><polygon points="166.12 24.2 166.12 24.2 166.47 24.75 166.12 24.2" style="fill:#f9af2f"/><path d="M196.39,25.31l-10,15.27V51.94h-5.87V40.58l-9.65-14.73-.35-.54-2-3.13a8.82,8.82,0,0,0,6.14,3.13h3.17l5.64,10,6-10Z" transform="translate(-4.39 -1.11)" style="fill:#f9af2f"/><path d="M212.19,40.7a6.64,6.64,0,0,0,4.29-2.5A7.83,7.83,0,0,0,218,33.4a8.39,8.39,0,0,0-.81-3.89A6.68,6.68,0,0,0,215,27a9.18,9.18,0,0,0-3.2-1.31,17.76,17.76,0,0,0-3.85-.4h-6.54c-.71,0-3.77-.32-3.77-3.13V51.94h5.86V41.3h2.9l5.57,10.64h7Zm-.81-5.65a2.67,2.67,0,0,1-1.18.89,5.28,5.28,0,0,1-1.6.34c-.59,0-1.15,0-1.67,0h-3.47v-6h3.84a12.84,12.84,0,0,1,1.62.11,5,5,0,0,1,1.47.43,2.61,2.61,0,0,1,1.47,2.54,2.64,2.64,0,0,1-.48,1.69" transform="translate(-4.39 -1.11)" style="fill:#f9af2f"/><path d="M241,46.53v5.41H222.2V22.18c0,2.81,3.06,3.13,3.77,3.13h14.32v5.42H228.07v5h11.55v5.42H228.07v5.42Z" transform="translate(-4.39 -1.11)" style="fill:#f9af2f"/><path d="M268.58,50.22a17.61,17.61,0,0,1-4.83,1.86,24.13,24.13,0,0,1-5.1.54,14.63,14.63,0,0,1-5.58-1,12.53,12.53,0,0,1-4.35-2.9,13.37,13.37,0,0,1-2.82-4.44,16,16,0,0,1,0-11.23,13.59,13.59,0,0,1,2.82-4.42,12.69,12.69,0,0,1,4.35-2.91,14.45,14.45,0,0,1,5.58-1.06,12.88,12.88,0,0,1,9.59,3.69l-1.8,1.88A7.78,7.78,0,0,0,265,28.87,9.92,9.92,0,0,0,263,27.81a12.9,12.9,0,0,0-2.16-.67,10,10,0,0,0-2.22-.25,11.7,11.7,0,0,0-4.68.9,10.53,10.53,0,0,0-3.56,2.49A10.94,10.94,0,0,0,248.16,34a14,14,0,0,0,0,9.26A10.94,10.94,0,0,0,250.41,47,10.51,10.51,0,0,0,254,49.46a11.7,11.7,0,0,0,4.68.91,23.37,23.37,0,0,0,4-.34,10.51,10.51,0,0,0,3.42-1.24v-9h-6.4V37.58h8.88Z" transform="translate(-4.39 -1.11)" style="fill:#61411c"/><polygon points="271.49 24.2 287.77 24.2 287.77 26.46 273.97 26.46 273.97 35.94 286.91 35.94 286.91 38.2 273.97 38.2 273.97 48.58 288.38 48.58 288.38 50.84 271.49 50.84 271.49 24.2" style="fill:#61411c"/><polygon points="293.79 24.2 296.99 24.2 313.2 47.53 313.28 47.53 313.28 24.2 315.76 24.2 315.76 50.84 312.57 50.84 296.35 27.51 296.28 27.51 296.28 50.84 293.79 50.84 293.79 24.2" style="fill:#61411c"/><path d="M349.39,47.77A11.26,11.26,0,0,1,345,51.49a13.08,13.08,0,0,1-5.46,1.13,14.63,14.63,0,0,1-5.58-1,12.62,12.62,0,0,1-4.35-2.9,13.37,13.37,0,0,1-2.82-4.44,16.11,16.11,0,0,1,0-11.23,13.49,13.49,0,0,1,2.82-4.42,12.79,12.79,0,0,1,4.35-2.91,14.45,14.45,0,0,1,5.58-1.06,13.21,13.21,0,0,1,5.06,1,10.09,10.09,0,0,1,4.12,3.22l-2,1.69a7.35,7.35,0,0,0-3.18-2.74,9.58,9.58,0,0,0-4-.87,11.7,11.7,0,0,0-4.68.9,10.53,10.53,0,0,0-3.56,2.49A10.94,10.94,0,0,0,329,34a14,14,0,0,0,0,9.26A10.94,10.94,0,0,0,331.25,47a10.51,10.51,0,0,0,3.56,2.48,11.7,11.7,0,0,0,4.68.91,9.86,9.86,0,0,0,2.11-.25,9.32,9.32,0,0,0,2.13-.75,10.53,10.53,0,0,0,2-1.28,8.06,8.06,0,0,0,1.66-1.86Z" transform="translate(-4.39 -1.11)" style="fill:#61411c"/><polygon points="349.54 24.2 365.83 24.2 365.83 26.46 352.03 26.46 352.03 35.94 364.97 35.94 364.97 38.2 352.03 38.2 352.03 48.58 366.44 48.58 366.44 50.84 349.54 50.84 349.54 24.2" style="fill:#61411c"/><path d="M141.39,11.54c-1,.52-4,3.69-2.12,7s-.57,4.9-.57,4.9,4.21-1.86,3.48-5.73-1.75-4-.79-6.16" transform="translate(-4.39 -1.11)" style="fill:#f9af2f"/><polygon points="369.28 24.57 368.6 24.57 368.6 24.2 370.37 24.2 370.37 24.57 369.68 24.57 369.68 26.45 369.28 26.45 369.28 24.57" style="fill:#61411c"/><polygon points="370.65 24.2 371.26 24.2 371.86 25.77 372.46 24.2 373.06 24.2 373.06 26.45 372.68 26.45 372.68 24.58 372.68 24.58 372 26.45 371.72 26.45 371.04 24.58 371.03 24.58 371.03 26.45 370.65 26.45 370.65 24.2" style="fill:#61411c"/></g></g><path d="M4.39,24.69l4.27,0c3.89,0,5.62,2,5.64,6.13v1.68c0,3.86-.91,6.94-5.75,7H6.46l0,12.63h-2Zm2.06,13h2c3.44,0,3.89-2.15,3.87-5.14V30.93c0-2.33-.59-4.5-3.75-4.49H6.41Z" transform="translate(-4.39 -1.11)" style="fill:#7c7c7c"/><path d="M26.74,36.87l0,9.14c0,4.51-2,6.32-4.94,6.33S17,50.64,17,46.21l0-9.31c0-3.61,1.75-5.83,4.94-5.84S26.73,33.26,26.74,36.87ZM19,36.94l0,9.34c0,2.67.92,4.26,2.84,4.26,1.77,0,2.87-1.2,2.86-4.32l0-9.31c0-2.37-.87-4-2.84-4S19,34.35,19,36.94Z" transform="translate(-4.39 -1.11)" style="fill:#7c7c7c"/><path d="M31,31.35c1.76,10.9,2.39,15.08,2.65,17.91h0c.28-2.75.8-5.95,2.88-17.93h2.22c2,12,2.64,15.24,2.85,17.86h0c.2-2.34.6-5.17,2.6-17.88h2L42.79,51.93h-2.3c-1.25-7.41-2.43-14.26-2.85-17.53h0c-.23,3.15-1.32,9.06-2.85,17.55H32.42L28.9,31.36Z" transform="translate(-4.39 -1.11)" style="fill:#7c7c7c"/><path d="M50.46,41.82v3.61c0,2.38.47,5,2.85,5,2.17,0,2.66-1.69,2.65-4v-.24h2v.2c0,2.55-.6,5.83-4.65,5.84-3.65,0-4.77-2.48-4.79-6.7l0-8.32c0-3.37,1.21-6.24,4.82-6.26s4.64,2.9,4.66,6.22v4.63ZM56,40.08V37.17c0-1.93-.22-4.47-2.73-4.46s-2.82,2.1-2.81,4.52V40.1Z" transform="translate(-4.39 -1.11)" style="fill:#7c7c7c"/><path d="M67.36,33.43c-2.66.06-4.13,2.15-4.12,5.51l0,12.92h-2l-.05-13.58c0-3.28,0-5.41-.07-7h1.93c0,.65.09,1.55.09,3.11a4.51,4.51,0,0,1,4.17-3.42Z" transform="translate(-4.39 -1.11)" style="fill:#7c7c7c"/><path d="M71.12,41.74l0,3.61c0,2.38.47,5,2.84,5,2.18,0,2.66-1.69,2.65-4v-.25h2v.21c0,2.54-.59,5.82-4.65,5.84-3.65,0-4.77-2.49-4.78-6.71l0-8.32c0-3.36,1.2-6.24,4.81-6.25s4.65,2.89,4.66,6.21v4.64ZM76.65,40V37.09c0-1.93-.22-4.47-2.72-4.46s-2.82,2.1-2.81,4.52V40Z" transform="translate(-4.39 -1.11)" style="fill:#7c7c7c"/><path d="M91.14,23.14l.09,23.57c0,2,0,3.86.06,5H89.36c0-.28-.09-1.43-.09-2.09a3.4,3.4,0,0,1-3.56,2.43c-3.32,0-4.27-2.56-4.28-6.5l0-8.73c0-3.69,1.46-6,4.53-6a3.37,3.37,0,0,1,3.25,1.59l0-9.26ZM83.48,45.51c0,3.12.79,4.71,2.64,4.71,2.5,0,3.1-2.47,3.09-5.67l0-7.1c0-2.29-.27-4.75-3.06-4.74-1.88,0-2.7,1.65-2.69,4.27Z" transform="translate(-4.39 -1.11)" style="fill:#7c7c7c"/><path d="M100.9,23.1h2l0,10a3.52,3.52,0,0,1,3.68-2.35c2.87,0,4.11,2.32,4.12,5.76l0,8.57c0,3.86-.92,6.85-4.53,6.87a3.27,3.27,0,0,1-3.41-2.33,14.73,14.73,0,0,1-.07,2.09H101c0-1,0-2.87,0-5.58Zm7.8,13.71c0-2.67-.75-4.18-2.64-4.18-2.83,0-3.15,2.89-3.14,6.08l0,5.95c0,3.73.88,5.41,3,5.4,1.81,0,2.74-1.49,2.73-4.68Z" transform="translate(-4.39 -1.11)" style="fill:#7c7c7c"/><path d="M114.91,31c1.55,8,3.09,15.74,3.3,18h.05c.44-3.2,2.17-11.61,3.33-18h2l-4.47,21.83C118,58.46,116.57,59,114.4,59a5.4,5.4,0,0,1-1.23-.16V56.88a8.58,8.58,0,0,0,1.11.12c1.64,0,2.29-.79,3-4.6l-4.5-21.35Z" transform="translate(-4.39 -1.11)" style="fill:#7c7c7c"/></svg>