<?xml version="1.0" encoding="utf-8"?>
<!-- Generator: Adobe Illustrator 16.0.0, SVG Export Plug-In . SVG Version: 6.00 Build 0)  -->
<!DOCTYPE svg PUBLIC "-//W3C//DTD SVG 1.1//EN" "http://www.w3.org/Graphics/SVG/1.1/DTD/svg11.dtd">
<svg version="1.1" id="Layer_1" xmlns="http://www.w3.org/2000/svg" xmlns:xlink="http://www.w3.org/1999/xlink" x="0px" y="0px"
	 width="602.149px" height="131.58px" viewBox="5.567 330.057 602.149 131.58"
	 enable-background="new 5.567 330.057 602.149 131.58" xml:space="preserve">
<g>
	<path fill="#FFFFFF" d="M74.664,417.267c-1.224,0.307-2.448,0.307-3.672,0.307H61.2v-15.606h7.344c1.224,0,2.754,0,4.284,0.307
		c1.53,0.306,2.754,0.611,3.978,1.224c1.224,0.612,2.142,1.224,3.06,2.448c0.918,0.918,1.224,2.447,1.224,3.978
		s-0.306,2.754-0.918,3.979c-0.612,0.918-1.224,1.836-2.448,2.447C77.112,416.349,75.888,416.961,74.664,417.267z"/>
	<path fill="#FFFFFF" d="M93.942,444.501c0,0-7.344,8.568-17.442,15.3l0,0c-0.306,0-0.306,0.307-0.612,0.307l0,0
		c-0.306,0-0.612,0.306-0.612,0.306l0,0c-0.306,0-0.306,0.306-0.612,0.306c-1.224,0.612-2.448,0.918-3.672,0.918
		c-3.366,0-6.426-1.836-7.956-4.896c-0.612-1.225-0.918-2.754-0.918-4.284v-22.95h10.71c3.366,0,6.732-0.306,9.792-0.918
		s5.508-1.836,7.65-3.366c2.142-1.529,3.978-3.672,5.202-6.12c1.224-2.447,1.836-5.813,1.836-9.792c0-3.978-0.612-7.037-2.142-9.792
		c-1.224-2.447-3.06-4.589-5.508-6.12c-2.142-1.53-4.896-2.448-7.956-3.366c-3.06-0.612-6.12-0.918-9.792-0.918H56.916
		c-1.836,0-9.18-0.918-9.18-7.65v70.687c0,4.896-3.978,9.18-9.18,9.18c-1.53,0-3.06-0.306-4.284-0.918l0,0
		c-0.306-0.306-0.612-0.306-0.918-0.612l0,0c-10.71-6.731-18.054-15.605-18.054-15.605c-8.568-9.792-11.934-26.316-8.262-37.944
		c0,0,3.672-10.71,8.568-17.442c0,0-0.306,14.076,10.404,14.688c10.71,0.612,14.076-14.994,11.628-27.234
		c-2.142-8.568-4.896-40.086,32.742-46.206c0,0-17.442,5.814-11.322,22.644s31.824,25.398,42.84,53.855
		C105.876,417.879,102.51,434.097,93.942,444.501z"/>
	<path fill="#FFFFFF" d="M96.696,389.727L96.696,389.727l0.918,1.224L96.696,389.727z"/>
	<path fill="#FFFFFF" d="M160.65,389.727l-24.786,37.638v28.151h-14.382v-28.151l-23.868-36.414l-0.918-1.224l-4.896-7.65
		c4.59,6.426,13.464,7.65,14.994,7.65h7.956l14.076,24.48l14.688-24.48H160.65L160.65,389.727z"/>
	<path fill="#FFFFFF" d="M199.512,427.671c4.59-0.918,8.262-3.06,10.71-6.12c2.448-3.366,3.672-7.038,3.672-11.934
		c0-3.979-0.612-7.038-2.142-9.486c-1.224-2.448-3.06-4.59-5.508-6.12c-2.142-1.53-4.896-2.448-7.956-3.366
		c-3.06-0.612-6.12-0.918-9.486-0.918h-16.218c-1.836,0-9.18-0.918-9.18-7.65v73.439h14.382v-26.315h7.038l13.77,26.315h17.442
		L199.512,427.671z M197.676,413.595c-0.918,0.918-1.836,1.836-3.06,2.143c-1.224,0.306-2.448,0.611-3.978,0.918
		c-1.53,0-2.754,0-4.284,0h-8.568v-14.994h9.486c1.224,0,2.754,0,3.978,0.306c1.224,0.307,2.448,0.612,3.672,1.225
		c1.224,0.611,1.836,1.224,2.448,2.447c0.612,0.918,0.918,2.448,0.918,3.979C198.9,411.453,198.288,412.677,197.676,413.595z"/>
	<path fill="#FFFFFF" d="M270.81,442.053v13.464h-46.512v-73.439c0,7.038,7.65,7.65,9.18,7.65h35.496v13.158H238.68v12.24h28.458
		v13.464H238.68v13.464H270.81L270.81,442.053z"/>
	<path fill="#FFFFFF" d="M338.742,451.233c-3.979,2.142-7.956,3.672-11.935,4.59c-3.978,0.918-8.262,1.224-12.546,1.224
		c-4.896,0-9.486-0.918-13.77-2.448c-4.284-1.836-7.65-3.978-10.71-7.038c-3.06-3.06-5.202-6.731-7.038-11.016
		c-1.53-4.284-2.448-8.874-2.448-13.77c0-4.896,0.918-9.486,2.448-13.771c1.53-4.284,3.978-7.956,7.038-11.016
		c3.06-3.06,6.426-5.508,10.71-7.038c4.284-1.836,8.874-2.448,13.77-2.448c9.792,0,17.748,3.06,23.563,9.18l-4.59,4.591
		c-0.918-1.225-2.143-2.448-3.673-3.366c-1.529-0.918-3.06-1.836-4.59-2.448c-1.836-0.612-3.365-1.224-5.202-1.53
		c-1.836-0.306-3.672-0.612-5.508-0.612c-4.284,0-8.262,0.612-11.628,2.142c-3.366,1.53-6.426,3.366-8.874,6.12
		c-2.448,2.448-4.284,5.813-5.508,9.18s-1.836,7.345-1.836,11.322s0.612,7.956,1.836,11.322s3.06,6.731,5.508,9.18
		c2.448,2.448,5.202,4.59,8.874,6.12c3.366,1.53,7.344,2.142,11.628,2.142c3.366,0,6.732-0.306,9.792-0.918
		c3.061-0.611,5.814-1.529,8.568-3.06v-22.032H316.71v-5.508h22.032V451.233L338.742,451.233z"/>
	<path fill="#FFFFFF" d="M356.796,389.727h40.086v5.508h-33.966v23.256h31.824v5.813h-31.824v25.704h35.496v5.508h-41.616V389.727
		L356.796,389.727z"/>
	<path fill="#FFFFFF" d="M411.876,389.727h7.956l40.086,57.528h0.306v-57.528h6.12v65.79h-7.956l-40.086-57.527h-0.306v57.527h-6.12
		V389.727z"/>
	<path fill="#FFFFFF" d="M538.254,445.113c-3.06,4.284-6.732,7.344-11.016,9.18c-4.284,1.836-8.568,2.754-13.464,2.754
		c-4.896,0-9.486-0.918-13.771-2.448c-4.284-1.836-7.65-3.978-10.71-7.038c-3.06-3.06-5.202-6.731-7.038-11.016
		c-1.53-4.284-2.448-8.874-2.448-13.77c0-4.896,0.918-9.486,2.448-13.771s3.979-7.956,7.038-11.016
		c3.06-3.06,6.426-5.508,10.71-7.038c4.284-1.836,8.874-2.448,13.771-2.448c4.59,0,8.567,0.918,12.546,2.448
		c3.978,1.53,7.344,4.284,10.098,7.956l-4.896,4.284c-2.142-3.061-4.59-5.509-7.955-6.732c-3.061-1.53-6.427-2.142-9.792-2.142
		c-4.284,0-8.263,0.612-11.629,2.142c-3.365,1.53-6.426,3.366-8.874,6.12c-2.447,2.448-4.283,5.813-5.508,9.18
		c-1.224,3.366-1.836,7.345-1.836,11.322s0.612,7.956,1.836,11.322c1.225,3.365,3.061,6.731,5.508,9.18
		c2.448,2.448,5.202,4.59,8.874,6.12c3.366,1.53,7.345,2.142,11.629,2.142c1.529,0,3.365-0.306,5.201-0.611
		c1.836-0.307,3.673-0.918,5.202-1.836c1.836-0.918,3.366-1.837,4.896-3.061c1.529-1.224,3.06-2.754,3.978-4.59L538.254,445.113z"/>
	<path fill="#FFFFFF" d="M549.576,389.727h40.086v5.508h-33.966v23.256h31.823v5.813h-31.823v25.704h35.496v5.508h-41.616V389.727z"
		/>
	<path fill="#FFFFFF" d="M24.786,355.761c-2.448,1.224-9.792,9.18-5.202,17.136s-1.224,12.24-1.224,12.24s10.404-4.59,8.568-14.076
		C25.092,361.269,22.644,360.963,24.786,355.761z"/>
	<g>
		<path fill="#FFFFFF" d="M598.23,390.645h-1.837v-0.918h4.284v0.918h-1.836v4.59h-0.918v-4.59H598.23z"/>
		<path fill="#FFFFFF" d="M601.596,389.727h1.53l1.53,3.978l1.529-3.978h1.53v5.508h-0.918v-4.59l0,0l-1.53,4.59h-0.611l-1.53-4.59
			l0,0v4.59h-0.918L601.596,389.727L601.596,389.727z"/>
	</g>
</g>
</svg>
