<?xml version="1.0" encoding="utf-8"?>
<!-- Generator: Adobe Illustrator 16.0.0, SVG Export Plug-In . SVG Version: 6.00 Build 0)  -->
<!DOCTYPE svg PUBLIC "-//W3C//DTD SVG 1.1//EN" "http://www.w3.org/Graphics/SVG/1.1/DTD/svg11.dtd">
<svg version="1.1" id="Layer_1" xmlns="http://www.w3.org/2000/svg" xmlns:xlink="http://www.w3.org/1999/xlink" x="0px" y="0px"
	 width="199.613px" height="21.885px" viewBox="0 0 199.613 21.885" enable-background="new 0 0 199.613 21.885"
	 xml:space="preserve">
<path fill="#F9AF3C" d="M17.256,6.68c0,4.336-3.018,6.592-8.848,6.592H4.922v8.203v0.117v0.029H2.461H0v-0.029v-0.117V0.41V0.293
	V0.264h1.231h1.23h2.461h3.486C14.238,0.264,17.256,2.432,17.256,6.68 M12.363,6.68c0-1.729-1.406-2.607-4.16-2.607H4.922v5.391
	h3.691C11.074,9.463,12.363,8.525,12.363,6.68 M38.341,0.264v0.029L38.253,0.41l-7.266,11.953v9.111v0.117v0.029h-2.461h-2.461
	v-0.029v-0.117v-9.111c0,0-7.089-11.66-7.265-11.953l-0.088-0.117V0.264h2.461h2.49c0,0,3.252,5.419,4.863,8.056
	c1.524-2.52,4.19-6.914,4.571-7.587l0.146-0.206c0,0,0.029-0.058,0.088-0.117h-0.029c-0.03,0.059-0.059,0.117-0.088,0.147
	l0.176-0.293h2.461H38.341z M23.751,0.41l0.059,0.117C24.044,0.908,24.015,0.85,23.751,0.41 M33.214,0.557
	c0,0.029-0.088,0.176-0.117,0.176C33.067,0.82,33.097,0.762,33.214,0.557 M58.626,21.621h-2.813h-2.812c0,0-4.717-7.559-5.538-8.906
	h-1.435v8.76v0.117v0.029h-2.461h-2.461v-0.029v-0.117V0.41V0.293V0.264h1.23h1.231h2.461h2.637c5.83,0,8.847,2.168,8.847,6.416
	c0,2.9-1.582,4.775-4.717,5.566c0.381,0.615,5.567,8.965,5.743,9.229l0.088,0.117V21.621z M48.811,8.906
	c2.52,0,3.809-0.762,3.809-2.227c0-1.729-1.407-2.607-4.16-2.607h-2.432v4.834H48.811z M80.189,19.629v1.992H65.951h-0.03H63.49
	h-2.461v-0.029v-0.117V0.41V0.293V0.264h2.461h2.431h0.03h13.008v1.992v2.021L65.951,4.248v5.537H75.97h0.147v1.904v1.904H75.97
	H65.951v4.043h14.092h0.146V19.629z"/>
<path fill="#604221" d="M104.527,13.037v1.992v4.16c-1.935,1.611-5.273,2.695-9.316,2.695c-7.266,0-12.129-4.365-12.129-10.928
	C83.082,4.395,87.945,0,95.211,0c3.896,0,7.588,1.846,9.17,4.6l-1.788,1.494l-1.787,1.494c-1.23-2.139-3.486-3.574-5.595-3.574
	c-4.102,0-6.856,2.783-6.856,6.943s2.754,6.943,6.856,6.943c2.168,0,3.838-0.439,4.629-1.113v-1.758h-2.93v-4.014h7.618V13.037z
	 M127.488,19.629v1.992H113.25h-0.029h-2.432h-2.461v-0.029v-0.117V0.41V0.293V0.264h2.461h2.432h0.029h13.008v1.992v2.021
	L113.25,4.248v5.537h10.02h0.146v1.904v1.904h-0.146h-10.02v4.043h14.092h0.146V19.629z M153.003,0.293V0.41v21.211h-1.407h-3.486
	h-2.108l-9.64-14.15v14.004v0.117v0.029H133.9h-2.461v-0.029v-0.117V0.41V0.293V0.264h2.461h2.461h0.674
	c0,0,7.031,10.341,11.074,16.23V0.41V0.293V0.264h2.433h2.461V0.293z M173.792,14.297l3.604,3.018
	c-1.231,2.754-4.981,4.57-9.405,4.57c-6.649,0-11.073-5.039-11.073-10.928C156.917,5.039,161.341,0,167.99,0
	c4.043,0,7.823,1.846,9.405,4.6l-1.786,1.494c-0.91,0.732-1.817,1.494-1.817,1.494c-1.23-2.139-3.546-3.574-5.802-3.574
	c-3.485,0-5.799,3.193-5.799,6.943s2.313,6.943,5.799,6.943C170.511,17.9,172.824,16.465,173.792,14.297 M199.613,19.629v1.992
	h-14.237h-0.03h-2.432h-2.461v-0.029v-0.117V0.41V0.293V0.264h2.461h2.432h0.03h13.008v1.992v2.021l-13.008-0.029v5.537h10.019
	h0.147v1.904v1.904h-0.147h-10.019v4.043h14.092h0.146V19.629z"/>
</svg>
