<svg id="b8c4d432-8b2b-42f8-93f0-aa09a602ce9a" data-name="Layer 1" xmlns="http://www.w3.org/2000/svg" viewBox="0 0 856.15 218.11"><path d="M275.07,106,234.2,168.4v46.4h-24V168.4l-39.42-60.17L169.38,106l-8.23-12.8c7.77,10.58,22.17,12.8,25.06,12.8h12.95l23.05,40.72L246.64,106Z" transform="translate(-17 -7.15)" style="fill:#f9af2f"/><path d="M339.6,168.86q11.52-2.15,17.51-10.22t6-19.58c0-6.36-1.1-11.65-3.3-15.91A27,27,0,0,0,350.89,113a37.46,37.46,0,0,0-13.05-5.38A74.75,74.75,0,0,0,322.09,106h-26.7C292.5,106,280,104.7,280,93.22V214.8h24V171.32h11.84l22.73,43.48h28.74Zm-3.31-23.05a11.19,11.19,0,0,1-4.83,3.62,21.87,21.87,0,0,1-6.53,1.38q-3.62.23-6.85.23H304V126.3h15.68a48.2,48.2,0,0,1,6.6.46,19.32,19.32,0,0,1,6,1.77,11.17,11.17,0,0,1,4.29,3.76,11.38,11.38,0,0,1,1.7,6.61c0,3-.64,5.27-1.93,6.91" transform="translate(-17 -7.15)" style="fill:#f9af2f"/><path d="M457.15,192.67V214.8H380.48V93.22c0,11.48,12.51,12.8,15.4,12.8h58.5v22.12H404.44v20.28h47.18v22.13H404.44v22.12Z" transform="translate(-17 -7.15)" style="fill:#f9af2f"/><path d="M132.86,151.5a30.17,30.17,0,0,1-6.22.61h-16V126.3H123a66.91,66.91,0,0,1,7.06.39,20.72,20.72,0,0,1,6.69,1.76,12.92,12.92,0,0,1,4.92,3.92,10.8,10.8,0,0,1,1.92,6.69,12.51,12.51,0,0,1-1.47,6.37,11,11,0,0,1-3.84,4,16.51,16.51,0,0,1-5.37,2.07" transform="translate(-17 -7.15)" style="fill:#f9af2f"/><path d="M164.46,196.66a144.88,144.88,0,0,1-29.14,25.14l0,0-.94.59a1.5,1.5,0,0,1-.23.15c-.4.26-.82.51-1.24.76l-.14.08-.87.52a15.17,15.17,0,0,1-19.5-6.58,14.9,14.9,0,0,1-1.7-7.18V172.39h17.51a74.47,74.47,0,0,0,16-1.61,34.22,34.22,0,0,0,12.76-5.45,26.22,26.22,0,0,0,8.45-10.3q3.07-6.45,3.07-16,0-9.69-3.3-16.06a26.79,26.79,0,0,0-8.92-10.14,36.49,36.49,0,0,0-13.13-5.31,80.25,80.25,0,0,0-16-1.53h-25c-2.89,0-15.4-1.32-15.4-12.8v117a15.1,15.1,0,0,1-22.06,13.37l0,0c-.57-.34-1.12-.69-1.68-1l-.11-.06a142.73,142.73,0,0,1-29.91-25.77c-14.1-16-19.69-43.76-13.21-62.95,0,0,6.16-17.89,14.22-28.74,0,0-.56,23.36,16.94,24.47s23-25.1,19.47-45c-2.61-14.7-7-67,55.3-77.27,0,0-28.91,9.46-18.62,37.25s52.8,42.24,70.67,89.31c6.93,19,1.29,45.92-13.2,62.95" transform="translate(-17 -7.15)" style="fill:#f9af2f"/><path d="M50.39,49.78c-4.17,2.09-16.33,15.06-8.64,28.55s-2.32,20-2.32,20,17.17-7.6,14.19-23.38S46.48,58.6,50.39,49.78" transform="translate(-17 -7.15)" style="fill:#f9af2f"/><polygon points="840.7 101.15 837.89 101.15 837.89 99.67 845.14 99.67 845.14 101.15 842.33 101.15 842.33 108.83 840.7 108.83 840.7 101.15" style="fill:#61411c"/><polygon points="846.29 99.67 848.77 99.67 851.22 106.09 853.69 99.67 856.15 99.67 856.15 108.83 854.59 108.83 854.59 101.22 854.57 101.22 851.79 108.83 850.65 108.83 847.87 101.22 847.84 101.22 847.84 108.83 846.29 108.83 846.29 99.67" style="fill:#61411c"/><path d="M571.07,197.39q-7.68,10.4-17.76,14.9a52.79,52.79,0,0,1-21.82,4.52,58.66,58.66,0,0,1-22.35-4.14,50.29,50.29,0,0,1-17.39-11.59,53.37,53.37,0,0,1-11.28-17.76,60.79,60.79,0,0,1-4.07-22.5,60.17,60.17,0,0,1,4.07-22.42,53.46,53.46,0,0,1,11.28-17.69,51.31,51.31,0,0,1,17.39-11.66,57.75,57.75,0,0,1,22.35-4.22,53,53,0,0,1,20.24,3.84,40.24,40.24,0,0,1,16.48,12.87l-8.13,6.77a29.48,29.48,0,0,0-12.72-11,38.47,38.47,0,0,0-15.87-3.47,46.71,46.71,0,0,0-18.74,3.62,41.64,41.64,0,0,0-14.22,9.93,43.69,43.69,0,0,0-9,14.9,55.79,55.79,0,0,0,0,37,43.69,43.69,0,0,0,9,14.9,41.66,41.66,0,0,0,14.22,9.94,46.88,46.88,0,0,0,18.74,3.61,39,39,0,0,0,16.93-4,41,41,0,0,0,7.9-5.12,32.65,32.65,0,0,0,6.62-7.45Z" transform="translate(-17 -7.15)" style="fill:#61411c"/><path d="M621.94,107.54h10.23L677,214.1H665.88L654.3,185.8H597.86l-12,28.3H575.43Zm4.66,10.84-24.83,58.39h48.91Z" transform="translate(-17 -7.15)" style="fill:#61411c"/><path d="M695.23,194.38a25.52,25.52,0,0,0,10.16,10.09,30,30,0,0,0,14.22,3.31,28.26,28.26,0,0,0,9.33-1.51,23.74,23.74,0,0,0,7.6-4.21,19.76,19.76,0,0,0,5.12-6.55,19.45,19.45,0,0,0,1.88-8.65,16.65,16.65,0,0,0-2.33-9.18,18.78,18.78,0,0,0-6.25-6,46.59,46.59,0,0,0-8.8-4q-4.89-1.65-10.08-3.31A106.3,106.3,0,0,1,706,160.67a33.6,33.6,0,0,1-8.8-5.49,24.52,24.52,0,0,1-6.25-8.51A30.49,30.49,0,0,1,688.61,134a27.55,27.55,0,0,1,2.78-12.57,26.94,26.94,0,0,1,7.53-9.18,33.48,33.48,0,0,1,10.91-5.56,43.93,43.93,0,0,1,12.94-1.89A41.79,41.79,0,0,1,739,107.92a30.71,30.71,0,0,1,12.87,10.31l-8.58,6.17a23.67,23.67,0,0,0-20.77-10.54,32.58,32.58,0,0,0-9.18,1.28,23,23,0,0,0-7.6,3.77,18.45,18.45,0,0,0-5.19,6.24,18.94,18.94,0,0,0-2,8.88q0,8,4.07,12.27a28.7,28.7,0,0,0,10.15,6.77A108.32,108.32,0,0,0,726,157.44a63.72,63.72,0,0,1,13.24,5,28.48,28.48,0,0,1,10.16,8.8q4.07,5.64,4.07,15.58a29,29,0,0,1-2.71,12.79,28.25,28.25,0,0,1-7.3,9.41,31.48,31.48,0,0,1-10.61,5.79,40.33,40.33,0,0,1-12.49,2A50.1,50.1,0,0,1,701,213.12a35.52,35.52,0,0,1-15.2-12.42Z" transform="translate(-17 -7.15)" style="fill:#61411c"/><path d="M799.68,116.57H763.26v-9H846v9H809.61V214.1h-9.93Z" transform="translate(-17 -7.15)" style="fill:#61411c"/></svg>