<?xml version="1.0" encoding="utf-8"?>
<!-- Generator: Adobe Illustrator 16.0.0, SVG Export Plug-In . SVG Version: 6.00 Build 0)  -->
<!DOCTYPE svg PUBLIC "-//W3C//DTD SVG 1.1//EN" "http://www.w3.org/Graphics/SVG/1.1/DTD/svg11.dtd">
<svg version="1.1" id="Layer_1" xmlns="http://www.w3.org/2000/svg" xmlns:xlink="http://www.w3.org/1999/xlink" x="0px" y="0px"
	 width="213px" height="213px" viewBox="0 0 213 213" enable-background="new 0 0 213 213" xml:space="preserve">
<path fill="#D8D9D8" d="M-92.344,200.827"/>
<path fill="none" d="M310.657,200.827"/>
<path fill="none" d="M-98.343,200.827"/>
<path fill="none" d="M-92.344,200.827"/>
<path fill="none" d="M310.657,200.827"/>
<path fill="none" d="M-98.343,200.827"/>
<path fill="none" d="M-92.343,200.827"/>
<polyline fill="none" points="-11,-11 -11,224 224,224 224,-11 "/>
<polyline fill="none" points="-11,-10.999 -11,224 224,224 224,-10.999 "/>
<polyline fill="none" points="-11,-10.999 -11,224 224,224 224,-10.999 "/>
<g>
	<defs>
		<path id="SVGID_1_" d="M162,87c0,0.199-0.799,8.695-9.398,9.684c-1.4,0.199-2.803,0.199-4.001,0.395
			c-7,0.793-12.202,1.381-14.999,5.734c-1,1.381-2.202,4.738-4,9.09c-4.398,10.871-11.398,29.053-17.803,30.635
			C102.4,144.909,101,153.801,101,153.801l0.999,0.199c0-0.199,1.202-8.299,10.203-10.871c6.797-1.775,13.797-19.566,18.399-31.227
			c1.603-4.15,3.001-7.514,3.799-8.893c2.399-3.955,7.399-4.551,14.201-5.139c1.198,0,2.601-0.201,4.001-0.398
			C162,96.485,163,87,163,87H162z"/>
	</defs>
	<clipPath id="SVGID_2_">
		<use xlink:href="#SVGID_1_"  overflow="visible"/>
	</clipPath>
	<rect x="96" y="82" clip-path="url(#SVGID_2_)" fill="#6A9448" width="72" height="77"/>
</g>
<g>
	<defs>
		<path id="SVGID_3_" d="M162.012,94c0,0.199-0.991,8.148-8.711,9.143c-1.385,0.197-2.569,0.197-3.76,0.396
			c-6.533,0.598-11.281,0.994-13.854,5.369c-0.789,1.391-1.979,4.57-3.564,8.744c-3.957,10.533-10.488,27.826-16.229,29.416
			c-8.51,2.188-9.894,10.73-9.894,10.73l0.99,0.201c0-0.398,1.189-7.951,9.105-9.938c6.33-1.785,12.863-18.682,17.018-30.014
			c1.584-3.973,2.773-7.354,3.563-8.545c2.375-3.777,6.73-4.373,13.066-4.971c1.184-0.199,2.373-0.199,3.758-0.396
			C162.012,103.143,163,94,163,94H162.012z"/>
	</defs>
	<clipPath id="SVGID_4_">
		<use xlink:href="#SVGID_3_"  overflow="visible"/>
	</clipPath>
	<rect x="101" y="89" clip-path="url(#SVGID_4_)" fill="#6A9448" width="67" height="74"/>
</g>
<g>
	<defs>
		<path id="SVGID_5_" d="M160.006,64.001c0,0.196-1.192,11.041-11.905,12.224c-1.591,0.197-3.373,0.397-4.962,0.592
			c-8.93,0.986-15.279,1.578-18.656,7.1c-1.188,1.773-2.777,5.914-4.96,11.434c-5.358,13.607-14.289,36.48-22.227,38.453
			c-11.509,2.957-13.297,13.803-13.297,14L84.991,148c0-0.197,1.59-10.451,12.305-13.602c8.533-2.174,17.265-24.455,23.021-39.049
			c1.986-5.32,3.77-9.463,4.762-11.238c3.176-5.124,9.326-5.717,17.859-6.506c1.79-0.196,3.375-0.396,5.163-0.592
			c11.511-1.379,12.897-12.816,12.897-13.013H160.006z"/>
	</defs>
	<clipPath id="SVGID_6_">
		<use xlink:href="#SVGID_5_"  overflow="visible"/>
	</clipPath>
	<rect x="79" y="59" clip-path="url(#SVGID_6_)" fill="#6A9448" width="87" height="94"/>
</g>
<g>
	<defs>
		<path id="SVGID_7_" d="M136.002,64.001c0,0.196-0.996,11.041-9.969,12.224c-1.396,0.197-2.795,0.397-4.187,0.592
			c-7.378,0.986-12.962,1.578-15.753,7.1c-0.995,1.773-2.393,5.914-4.186,11.434c-4.588,13.607-12.165,36.48-18.742,38.453
			C73.595,136.76,72,147.606,72,147.803L72.997,148c0,0,1.394-10.254,10.765-13.607c7.179-2.168,14.555-24.449,19.342-39.043
			c1.794-5.32,3.188-9.463,3.986-11.238c2.592-5.124,7.777-5.717,14.953-6.506c1.195-0.196,2.793-0.396,4.188-0.592
			c9.771-1.379,10.768-12.816,10.768-13.013H136.002z"/>
	</defs>
	<clipPath id="SVGID_8_">
		<use xlink:href="#SVGID_7_"  overflow="visible"/>
	</clipPath>
	<rect x="67" y="59" clip-path="url(#SVGID_8_)" fill="#6A9448" width="75" height="94"/>
</g>
<g>
	<defs>
		<path id="SVGID_9_" d="M78.18,97.241c-0.02,0-0.039,0-0.096,0.018h-0.019c-3.471,15.047-8.811,37.367-13.483,39.439
			c-5.798,2.48-7.782,10.154-8.374,13.594c-0.152,0.975-0.207,1.629-0.207,1.709h0.953c0-0.061,0.057-0.795,0.248-1.928
			c0.59-3.379,2.424-10.258,7.571-12.188C69.884,135.604,75.36,113.042,79,97C78.751,97.118,78.466,97.2,78.18,97.241"/>
	</defs>
	<clipPath id="SVGID_10_">
		<use xlink:href="#SVGID_9_"  overflow="visible"/>
	</clipPath>
	<rect x="51" y="92" clip-path="url(#SVGID_10_)" fill="#6A9448" width="33" height="65"/>
</g>
<g>
	<defs>
		<path id="SVGID_11_" d="M106.997,60c0,0-0.061,0.816-0.283,2.032c-0.583,3.343-2.39,9.721-7.555,10.688
			c-1.205,0.191-2.411,0.381-3.417,0.571c-1.705,0.286-3.294,0.533-4.742,0.873c0.223,0.283,0.424,0.55,0.646,0.836
			c1.264-0.286,2.633-0.514,4.096-0.761c1.006-0.189,2.212-0.378,3.417-0.569c5.907-1.119,7.893-7.651,8.542-11.278
			C107.938,61.082,108,60.153,108,60H106.997z"/>
	</defs>
	<clipPath id="SVGID_12_">
		<use xlink:href="#SVGID_11_"  overflow="visible"/>
	</clipPath>
	<rect x="86" y="55" clip-path="url(#SVGID_12_)" fill="#6A9448" width="27" height="25"/>
</g>
<g>
	<defs>
		<path id="SVGID_13_" d="M58.263,124.856c-1.837,0.848-3.209,2.379-4.236,4.125C51.503,133.204,51,138.729,51,139h1.009
			c0-0.117,0.402-4.264,2.018-8.004c0.966-2.248,2.399-4.34,4.438-5.371c3.611-1.82,7.086-15.094,10.535-31.121
			c-0.184-0.154-0.365-0.33-0.546-0.504C65.527,107.256,61.753,123.245,58.263,124.856"/>
	</defs>
	<clipPath id="SVGID_14_">
		<use xlink:href="#SVGID_13_"  overflow="visible"/>
	</clipPath>
	<rect x="46" y="89" clip-path="url(#SVGID_14_)" fill="#6A9448" width="28" height="55"/>
</g>
<g>
	<defs>
		<path id="SVGID_15_" d="M89.997,54.001c0,0.056-0.059,1.231-0.36,2.841c-0.563,3.336-2.067,8.512-5.858,9.286
			c-0.24,0.058-0.5,0.114-0.779,0.171c0.1,0.208,0.238,0.437,0.399,0.7c0.183-0.036,0.38-0.076,0.581-0.114
			c4.295-0.888,5.978-6.158,6.62-9.683c0.319-1.761,0.399-3.067,0.399-3.201H89.997z"/>
	</defs>
	<clipPath id="SVGID_16_">
		<use xlink:href="#SVGID_15_"  overflow="visible"/>
	</clipPath>
	<rect x="78" y="49" clip-path="url(#SVGID_16_)" fill="#6A9448" width="18" height="23"/>
</g>
<g>
	<defs>
		<path id="SVGID_17_" d="M68.022,52c0,3.02-0.783,7.854-2.348,8.458c-0.392,0.202-0.782,0.202-1.176,0.403
			c-1.759,0.603-3.52,1.208-4.303,5.234c-0.39,1.207-0.782,4.229-1.173,8.055c-1.174,9.063-3.327,25.575-4.891,26.983
			C51.39,103.147,51,110.596,51,111h0.978c0.195-2.014,0.781-7.65,2.736-9.264c1.959-1.408,3.526-13.289,5.287-27.586
			c0.39-3.825,0.782-6.848,0.977-8.055c0.586-3.424,1.761-3.826,3.718-4.429c0.392-0.203,0.78-0.203,1.174-0.404
			C68.608,60.256,69,52.804,69,52H68.022z"/>
	</defs>
	<clipPath id="SVGID_18_">
		<use xlink:href="#SVGID_17_"  overflow="visible"/>
	</clipPath>
	<rect x="46" y="47" clip-path="url(#SVGID_18_)" fill="#6A9448" width="28" height="69"/>
</g>
<g>
	<defs>
		<path id="SVGID_19_" d="M53.166,58.154l26.87-5.691v7.238c0.117-0.021,0.216-0.021,0.338-0.021c0.575,0,1.15,0.181,1.645,0.517
			v-7.694l7.87,3.074l0.955,0.376l14.593,5.711l0.972,0.378l18.741,7.337v38.194l1.983,0.535V69.597l33.512-14.773v92.371
			l-33.512,12.217v-11.422l-1.983-2.521v13.883l-41.705-14.615l-1.426-0.535V96.526c-0.912-0.02-1.528-0.117-1.645-0.158
			c-0.122-0.02-0.241-0.059-0.338-0.098v47.752l-23.441,5.016l-1.03,0.219l-2.399,0.516V58.154z M80.728,48.239l-30.142,6.544
			c-0.971,0.195-1.561,0.959-1.586,1.92v95.715c0.03,1.152,0.817,1.914,1.982,1.914h0.397l29.649-6.246l44.52,15.766
			c0.197,0.098,0.396,0.148,0.617,0.148c0.224,0,0.471-0.051,0.769-0.148l36.292-13.287c0.775-0.193,1.361-0.957,1.386-1.734V51.844
			c-0.198-0.791-0.317-1.363-0.911-1.761c-0.596-0.396-1.467-0.416-2.064-0.218l-35.493,15.824L81.92,48.239
			c-0.21-0.067-0.402-0.097-0.588-0.097C81.13,48.143,80.934,48.177,80.728,48.239"/>
	</defs>
	<clipPath id="SVGID_20_">
		<use xlink:href="#SVGID_19_"  overflow="visible"/>
	</clipPath>
	<rect x="44" y="43.143" clip-path="url(#SVGID_20_)" fill="#604220" width="125.612" height="125.858"/>
</g>
<polygon fill="#FAB140" points="128,108.731 128,147.954 132.703,154 158,144.561 158,108.731 140.385,106 "/>
<polygon fill="#604220" points="125.999,146.508 128,149.002 128,109.53 125.999,109 "/>
<polygon fill="#FAB140" points="78.001,97 80.727,99.12 82.716,100.663 90.776,106.948 96.942,121.02 120.627,138.37 125.999,145 
	125.999,108.163 82.578,97 "/>
<g>
	<defs>
		<path id="SVGID_21_" d="M74.761,75.846c0.615,4.967,1.43,6.055-1.09,6.813c-1.936,0.321-1.849-3.647-0.301-4.141
			c0,0-4.015,0.029-5.352,8.309c-0.517,8.307,9.821,6.975,9.821,6.975s-2.686-0.734-1.695-4.061c0.993-3.322,8.063-3.557,6.02-7.46
			c0,0,5.695,5.07-1.462,11.599c0,0,7.769,1.604,10.136-6.91c0.933-3.932-2.305-8.278-6.51-13.417
			c-4.208-5.14-5.206-7.104-4.209-9.552C80.119,64.001,73.551,66.262,74.761,75.846"/>
	</defs>
	<clipPath id="SVGID_22_">
		<use xlink:href="#SVGID_21_"  overflow="visible"/>
	</clipPath>
	<rect x="63" y="59" clip-path="url(#SVGID_22_)" fill="#F26943" width="33" height="40"/>
</g>
</svg>
