<?xml version="1.0" standalone="no"?>
<!DOCTYPE svg PUBLIC "-//W3C//DTD SVG 20010904//EN"
 "http://www.w3.org/TR/2001/REC-SVG-20010904/DTD/svg10.dtd">
<svg version="1.0" xmlns="http://www.w3.org/2000/svg"
 width="219.000000pt" height="219.000000pt" viewBox="0 0 219.000000 219.000000"
 preserveAspectRatio="xMidYMid meet">
<metadata>
Created by potrace 1.14, written by Peter Selinger 2001-2017
</metadata>
<g transform="translate(0.000000,219.000000) scale(0.100000,-0.100000)"
fill="#000000" stroke="none">
<path d="M1263 2166 c-240 -66 -391 -208 -449 -421 -19 -72 -26 -239 -13 -315
14 -83 12 -218 -6 -285 -17 -65 -55 -127 -96 -158 -37 -27 -117 -26 -163 2
-37 23 -85 107 -87 150 0 15 -4 35 -8 46 -7 16 -13 10 -43 -42 -42 -70 -102
-217 -117 -283 -16 -70 -6 -234 19 -320 38 -132 83 -204 200 -320 58 -58 141
-129 184 -159 71 -49 85 -55 131 -55 63 0 106 24 134 74 21 37 21 48 22 621 0
425 3 578 11 562 6 -13 31 -33 56 -45 42 -20 62 -22 236 -23 109 -1 217 -7
251 -15 144 -30 230 -110 252 -236 25 -137 -14 -266 -101 -332 -77 -58 -170
-78 -353 -77 l-113 1 -1 -76 c-2 -257 1 -352 12 -372 30 -57 102 -93 164 -82
86 15 342 236 417 359 76 125 114 274 105 409 -6 92 -24 150 -77 256 -78 154
-167 257 -451 522 -165 154 -229 262 -225 379 4 96 51 169 143 221 29 16 53
32 53 34 0 2 -1 4 -2 3 -2 0 -40 -11 -85 -23z"/>
<path d="M573 1736 c-74 -62 -98 -181 -53 -266 29 -55 32 -130 7 -158 -27 -30
-20 -35 16 -10 43 30 65 56 84 98 21 49 19 97 -13 207 -22 78 -25 102 -16 125
13 34 11 34 -25 4z"/>
<path d="M1209 976 c-1 -23 -1 -162 0 -212 l1 -31 113 3 c119 2 154 12 192 54
14 16 20 36 20 75 0 96 -50 126 -221 129 -99 2 -104 2 -105 -18z"/>
</g>
</svg>
