<?xml version="1.0" encoding="UTF-8"?>
<svg width="77px" height="77px" viewBox="0 0 77 77" version="1.1" xmlns="http://www.w3.org/2000/svg" xmlns:xlink="http://www.w3.org/1999/xlink">
    <!-- Generator: Sketch 58 (84663) - https://sketch.com -->
    <title>Artboard</title>
    <desc>Created with Sketch.</desc>
    <g id="Artboard" stroke="none" stroke-width="1" fill="none" fill-rule="evenodd">
        <g id="Group-17" transform="translate(5.000000, 11.000000)">
            <path d="M45,24.9501 C45,25.5301 44.53,26.0001 43.95,26.0001 L8,26.0001 C3.7,26.0001 0,22.0001 0,17.5001 C0,14.5001 1.6,11.8001 3.9,10.3001 C4.6,9.8001 5.7,9.4001 5.7,9.4001 C6.4,9.1001 7.2,9.0001 8,9.0001 C8.8,9.0001 9.5,9.1001 10.2,9.3001 C11,6.2001 13.7,4.0001 17,4.0001 C18.1,4.0001 19.1,4.3001 20,4.7001 C20.6,3.8001 21.4,3.0001 22.2,2.4001 L23.9,1.3001 C25.5,0.4001 27.2,0.0001 29,0.0001 C34.9,0.0001 39.8,4.8001 40,10.8001 C40,11.3001 39.6,11.8001 39,11.8001 C38.5,11.8001 38,11.4001 38,10.8001 C37.8,6.0001 33.8,2.0001 29,2.0001 C25.8,2.0001 22.8,3.7001 21.2,6.5001 C21.1,6.8001 20.9,6.9001 20.6,7.0001 C20.3,7.0001 20,7.0001 19.8,6.9001 C19,6.4001 18,6.1001 17,6.1001 C14.3,6.1001 12.1,8.2001 12,10.8001 C12,11.1001 12.057,11.5211 11.5,11.6001 C11.166,11.6451 9.703,11.2491 9.5,11.2001 C7.266,10.6561 5.4,14.1001 5.4,17.7001 C5.4,19.0041 5.645,20.2141 6.071,21.2221 C6.768,22.8721 8.436,23.9001 10.227,23.9001 L39.5,23.9001 L40.5,23.9001 L43.95,23.9001 C44.53,23.9001 45,24.3701 45,24.9501" id="Fill-1" fill="#919191"></path>
            <polygon id="Fill-3" fill="#FAB13E" points="20.8711 53.2567 13.9711 40.5697 21.6711 38.0717 23.7711 37.3667 22.6711 35.7647 17.7711 28.6527 9.1711 28.6527 16.5711 36.0857 10.5711 38.6487 9.0711 39.2887"></polygon>
            <path d="M36.7788,21.8104 L36.7908,21.8104 L36.7788,21.8104 Z" id="Fill-5" fill="#919191"></path>
            <path d="M16.7788,18.4247 L16.7788,18.4247 C16.7788,19.7427 17.8468,20.8107 19.1648,20.8107 L45.5508,20.8107 L50.3618,20.8107 L51.5088,20.8087 L52.0818,20.8077 L52.4408,20.8077 L52.5268,20.8067 L52.7278,20.8017 L52.8278,20.7997 L52.9238,20.7927 L53.1148,20.7787 C53.2428,20.7687 53.3698,20.7507 53.4968,20.7357 C53.6228,20.7167 53.7498,20.6957 53.8748,20.6727 C53.9998,20.6457 54.1248,20.6207 54.2488,20.5897 C54.7428,20.4647 55.2208,20.2747 55.6748,20.0497 C56.1288,19.8267 56.5568,19.5557 56.9488,19.2457 C57.3408,18.9367 57.6938,18.5877 58.0098,18.2057 C58.6418,17.4427 59.1028,16.5467 59.3578,15.6087 C59.6148,14.6707 59.6658,13.6907 59.5168,12.7487 C59.3688,11.8077 59.0238,10.9047 58.5078,10.1227 C57.9928,9.3407 57.3228,8.6817 56.5498,8.1867 C55.7768,7.6917 54.9068,7.3697 54.0188,7.2417 C53.1308,7.1137 52.2268,7.17682827 51.3818,7.4167 C50.5348,7.6567 49.7508,8.0797 49.0958,8.6357 C48.4418,9.1917 47.9088,9.8797 47.5458,10.6387 C47.2528,11.2547 47.0678,11.9557 46.9978,12.6367 C46.9708,12.8907 47.1688,13.1127 47.4248,13.1127 L47.4458,13.1127 C47.6508,13.1127 47.8238,12.9667 47.8668,12.7657 C47.9888,12.1937 48.2098,11.6497 48.5128,11.1647 C48.8798,10.5857 49.3668,10.0937 49.9258,9.7237 C50.4828,9.3537 51.1088,9.1097 51.7488,9.0077 C52.3898,8.9047 53.0448,8.9417 53.6538,9.1057 C54.2638,9.2687 54.8258,9.5637 55.2968,9.9517 C55.7678,10.3397 56.1528,10.8277 56.4148,11.3577 C56.4728,11.4747 56.5258,11.5937 56.5708,11.7157 C56.6498,11.9187 56.7108,12.1277 56.7538,12.3387 C56.8168,12.6807 56.8248,13.0417 56.7638,13.4137 C56.5098,14.9597 55.0788,16.0387 53.5118,16.0387 L45.5498,16.0387 L36.7788,16.0387 L19.1648,16.0387 C17.8468,16.0387 16.7788,17.1077 16.7788,18.4247" id="Fill-7" fill="#919191"></path>
            <path d="M25.6596,30.2069 L25.6596,30.2069 C25.6596,29.3489 26.3556,28.6529 27.2136,28.6529 L29.4186,28.6529 L43.5566,28.6529 L44.3046,28.6549 L44.6776,28.6549 L44.9106,28.6549 L44.9676,28.6559 L45.0976,28.6589 L45.1626,28.6609 L45.2256,28.6649 L45.3506,28.6739 C45.4336,28.6809 45.5166,28.6919 45.5986,28.7019 C45.6816,28.7139 45.7636,28.7279 45.8456,28.7429 C45.9266,28.7609 46.0086,28.7769 46.0886,28.7969 C46.4106,28.8779 46.7216,29.0019 47.0176,29.1479 C47.3136,29.2939 47.5926,29.4699 47.8476,29.6719 C48.1026,29.8739 48.3326,30.1019 48.5386,30.3499 C48.9506,30.8469 49.2506,31.4309 49.4166,32.0409 C49.5846,32.6529 49.6176,33.2909 49.5206,33.9039 C49.4236,34.5169 49.1996,35.1049 48.8626,35.6149 C48.5276,36.1239 48.0916,36.5539 47.5876,36.8759 C47.0836,37.1979 46.5176,37.4079 45.9386,37.4909 C45.3606,37.5749 44.7716,37.5339 44.2216,37.3769 C43.6696,37.2209 43.1596,36.9459 42.7326,36.5829 C42.3056,36.2209 41.9596,35.7729 41.7226,35.2789 C41.5326,34.8769 41.4116,34.4209 41.3656,33.9779 C41.3486,33.8119 41.4776,33.6669 41.6436,33.6669 L41.6576,33.6669 C41.7906,33.6669 41.9036,33.7619 41.9316,33.8929 C42.0116,34.2659 42.1556,34.6199 42.3526,34.9359 C42.5916,35.3129 42.9096,35.6339 43.2726,35.8739 C43.6356,36.1159 44.0436,36.2749 44.4606,36.3409 C44.8786,36.4079 45.3046,36.3839 45.7016,36.2779 C46.0986,36.1709 46.4646,35.9789 46.7716,35.7259 C47.0786,35.4739 47.3286,35.1559 47.4996,34.8109 C47.5376,34.7339 47.5726,34.6569 47.6016,34.5779 C47.6526,34.4449 47.6926,34.3089 47.7206,34.1719 C47.7616,33.9489 47.7666,33.7139 47.7266,33.4709 C47.5616,32.4639 46.6296,31.7619 45.6096,31.7619 L29.4186,31.7619 L28.9166,31.7619 L27.2136,31.7609 C26.3556,31.7609 25.6596,31.0649 25.6596,30.2069" id="Fill-9" fill="#919191"></path>
            <path d="M48.6469,26.286 L48.6469,26.286 C48.6469,24.968 49.7149,23.9 51.0329,23.9 L57.4179,23.9 L58.2299,23.9 L58.3759,23.902 L58.9499,23.903 L59.3089,23.903 L59.3949,23.904 L59.5949,23.909 L59.6949,23.911 L59.7909,23.918 L59.9829,23.932 C60.1099,23.942 60.2379,23.96 60.3649,23.975 C60.4909,23.994 60.6179,24.015 60.7429,24.038 C60.8669,24.065 60.9929,24.09 61.1159,24.121 C61.6099,24.245 62.0889,24.436 62.5429,24.661 C62.9969,24.884 63.4239,25.155 63.8159,25.465 C64.2089,25.774 64.5619,26.123 64.8779,26.505 C65.5089,27.268 65.9709,28.164 66.2259,29.102 C66.4829,30.04 66.5339,31.02 66.3849,31.961 C66.2359,32.903 65.8919,33.806 65.3759,34.588 C64.8609,35.37 64.1899,36.029 63.4169,36.524 C62.6449,37.018 61.7749,37.341 60.8859,37.469 C59.9989,37.596 59.0939,37.534 58.2489,37.294 C57.4029,37.054 56.6189,36.631 55.9639,36.074 C55.3099,35.519 54.7769,34.831 54.4139,34.072 C54.1209,33.455 53.9359,32.755 53.8649,32.074 C53.8389,31.82 54.0369,31.598 54.2929,31.598 L54.3139,31.598 C54.5189,31.598 54.6909,31.744 54.7339,31.944 C54.8569,32.516 55.0769,33.061 55.3809,33.546 C55.7479,34.125 56.2349,34.617 56.7929,34.987 C57.3499,35.356 57.9759,35.601 58.6169,35.703 C59.2579,35.806 59.9129,35.768 60.5219,35.605 C61.1319,35.442 61.6939,35.147 62.1649,34.759 C62.6359,34.371 63.0209,33.883 63.2829,33.353 C63.3409,33.236 63.3939,33.117 63.4389,32.995 C63.5169,32.792 63.5779,32.583 63.6219,32.372 C63.6849,32.03 63.6919,31.669 63.6309,31.297 C63.3779,29.751 61.9459,28.672 60.3799,28.672 L57.4179,28.672 L56.6469,28.672 L51.0329,28.672 C49.7149,28.672 48.6469,27.603 48.6469,26.286" id="Fill-11" fill="#919191"></path>
            <path d="M36.7788,21.8104 L36.7788,21.8224 L36.7788,21.8104 Z" id="Fill-13" fill="#919191"></path>
            <path d="M27.1718,54.6259 C26.5148,53.9689 26.3068,53.0159 26.6038,52.1979 C27.3718,50.1759 29.1988,49.5539 29.6408,48.3599 C30.0708,47.1969 28.9058,46.7819 28.8428,46.7609 C31.5148,47.2029 31.3288,49.4479 31.2168,50.0799 C31.0648,50.9369 31.3008,52.0629 32.0528,52.0139 C32.8048,51.9669 32.7808,50.9629 32.7808,50.9629 C33.1268,51.4299 33.3918,52.1979 33.3918,52.1979 C33.6488,52.9589 33.5068,53.8259 32.9648,54.4719 L35.8178,51.6179 L35.9588,51.4789 C37.3458,50.0899 37.7868,48.0739 37.1578,46.3469 C35.5348,42.0709 31.6728,40.7589 30.7398,38.2339 C29.8058,35.7109 32.4308,34.8529 32.4308,34.8529 C26.7758,35.7869 27.1708,40.5349 27.4088,41.8689 C27.7308,43.6799 27.2318,46.0599 25.6408,45.9589 C24.0508,45.8569 24.1018,43.7369 24.1018,43.7369 C23.3698,44.7219 22.8108,46.3469 22.8108,46.3469 C22.2228,48.0879 22.6228,50.0899 24.0098,51.4789 L24.1508,51.6179 L27.1718,54.6259 Z" id="Fill-15" fill="#F96841"></path>
        </g>
    </g>
</svg>