<?xml version="1.0" encoding="UTF-8"?>
<svg width="77px" height="77px" viewBox="0 0 77 77" version="1.1" xmlns="http://www.w3.org/2000/svg" xmlns:xlink="http://www.w3.org/1999/xlink">
    <!-- Generator: Sketch 58 (84663) - https://sketch.com -->
    <title>Artboard</title>
    <desc>Created with Sketch.</desc>
    <defs>
        <polygon id="path-1" points="1 0.5 1.5 0.5 1.5 1 1 1"></polygon>
        <polygon id="path-3" points="1 0.5 1.5 0.5 1.5 1 1 1"></polygon>
        <polygon id="path-5" points="0.0001 0.3508 47.7071 0.3508 47.7071 65 0.0001 65"></polygon>
        <polygon id="path-7" points="1 0.5 1.5 0.5 1.5 1 1 1"></polygon>
        <polygon id="path-9" points="1 0.5 1.5 0.5 1.5 1 1 1"></polygon>
        <polygon id="path-11" points="0.784688909 0.9725 15.675 0.9725 15.675 20.7455 0.784688909 20.7455"></polygon>
    </defs>
    <g id="Artboard" stroke="none" stroke-width="1" fill="none" fill-rule="evenodd">
        <g id="Group-335" transform="translate(14.000000, 5.000000)">
            <path d="M12.3365,17.8674 C12.3715,17.8614 12.4065,17.8534 12.4405,17.8484 C12.4445,17.8474 12.4485,17.8464 12.4525,17.8464 C12.4485,17.8464 12.4445,17.8474 12.4415,17.8474 C12.4065,17.8534 12.3715,17.8614 12.3365,17.8674" id="Fill-1" fill="#F96841"></path>
            <path d="M10.4137,18.5778 C10.4227,18.5728 10.4307,18.5678 10.4397,18.5628 C10.4707,18.5448 10.5027,18.5278 10.5347,18.5108 C10.5027,18.5278 10.4707,18.5448 10.4387,18.5628 C10.4307,18.5678 10.4217,18.5728 10.4137,18.5778" id="Fill-3" fill="#F96841"></path>
            <path d="M11.0641,18.2507 C11.0731,18.2477 11.0821,18.2437 11.0901,18.2397 C11.1211,18.2267 11.1511,18.2147 11.1821,18.2027 C11.1511,18.2147 11.1211,18.2267 11.0901,18.2397 C11.0811,18.2437 11.0731,18.2477 11.0641,18.2507" id="Fill-5" fill="#F96841"></path>
            <path d="M10.838,18.3527 C10.844,18.3507 10.849,18.3477 10.855,18.3447 C10.861,18.3417 10.867,18.3397 10.873,18.3367 L10.855,18.3447 C10.85,18.3477 10.844,18.3507 10.838,18.3527" id="Fill-7" fill="#F96841"></path>
            <path d="M6.985,2.1764 C6.781,1.9724 6.51,1.8604 6.222,1.8604 C5.933,1.8604 5.661,1.9724 5.458,2.1764 L2.179,5.4544 C1.758,5.8754 1.758,6.5604 2.179,6.9824 L2.736,7.5384 L7.542,2.7334 L6.985,2.1764 Z" id="Fill-9" fill="#F8AF3F"></path>
            <path d="M17.5196,19.3537 C17.5076,19.3427 17.4956,19.3307 17.4836,19.3197 C17.4956,19.3307 17.5076,19.3427 17.5196,19.3537" id="Fill-11" fill="#F96841"></path>
            <path d="M11.8976,17.965 C11.9246,17.958 11.9516,17.95 11.9786,17.944 C11.9816,17.943 11.9846,17.942 11.9886,17.941 C11.9846,17.942 11.9816,17.943 11.9786,17.944 C11.9516,17.95 11.9246,17.958 11.8976,17.965" id="Fill-13" fill="#F96841"></path>
            <path d="M13.1588,18.6359 C13.1438,18.6359 13.1288,18.6369 13.1148,18.6379 L13.1198,18.6379 C13.1328,18.6369 13.1458,18.6359 13.1588,18.6359" id="Fill-15" fill="#F96841"></path>
            <path d="M13.3487,18.6262 C13.3277,18.6262 13.3067,18.6262 13.2737,18.6362 L13.2207,18.6362 C13.2417,18.6362 13.2737,18.6362 13.2957,18.6262 L13.3487,18.6262 Z" id="Fill-17" fill="#F96841"></path>
            <path d="M12.7999,18.6686 L12.8009,18.6686 L12.7999,18.6686 Z" id="Fill-19" fill="#F96841"></path>
            <path d="M11.7359,18.9142 L11.7249,18.9252 L11.7149,18.9252 C11.7249,18.9252 11.7359,18.9142 11.7359,18.9142" id="Fill-21" fill="#F96841"></path>
            <path d="M11.5113,18.9997 C11.5003,18.9997 11.5003,18.9997 11.5003,19.0107 L11.5003,18.9997 L11.5113,18.9997 Z" id="Fill-23" fill="#F96841"></path>
            <path d="M11.5577,18.9821 C11.5537,18.9831 11.5497,18.9851 11.5457,18.9871 C11.5487,18.9861 11.5517,18.9841 11.5547,18.9831 C11.5557,18.9831 11.5567,18.9821 11.5577,18.9821" id="Fill-25" fill="#F96841"></path>
            <path d="M18.9918,26.1711 C18.9888,26.1781 18.9858,26.1851 18.9828,26.1921 C18.9708,26.2211 18.9568,26.2491 18.9448,26.2771 C18.9568,26.2491 18.9708,26.2211 18.9828,26.1921 C18.9858,26.1851 18.9888,26.1781 18.9918,26.1711" id="Fill-27" fill="#F96841"></path>
            <path d="M19.2296,25.5099 C19.2336,25.4949 19.2376,25.4809 19.2426,25.4659 C19.2506,25.4369 19.2576,25.4069 19.2666,25.3769 C19.2576,25.4059 19.2506,25.4369 19.2426,25.4659 C19.2376,25.4809 19.2336,25.4949 19.2296,25.5099 C19.2096,25.5769 19.1886,25.6439 19.1666,25.7109 C19.1666,25.7119 19.1666,25.7129 19.1656,25.7139 C19.1666,25.7129 19.1666,25.7119 19.1666,25.7109 C19.1886,25.6439 19.2096,25.5769 19.2296,25.5099" id="Fill-29" fill="#F96841"></path>
            <path d="M19.0831,25.9455 C19.0821,25.9495 19.0801,25.9525 19.0791,25.9565 C19.0771,25.9615 19.0751,25.9665 19.0731,25.9705 C19.0751,25.9665 19.0771,25.9615 19.0791,25.9565 C19.0801,25.9525 19.0821,25.9495 19.0831,25.9455" id="Fill-31" fill="#F96841"></path>
            <path d="M11.5377,60.821 L11.5377,60.821 L10.8407,60.821 C9.5737,60.821 8.5427,61.851 8.5427,63.119 L8.5427,64.788 L41.2247,64.788 L41.2247,63.119 C41.2247,61.851 40.1947,60.821 38.9277,60.821 L38.2297,60.821 L11.5377,60.821 Z" id="Fill-33" fill="#FAB13E"></path>
            <path d="M19.3541,25.006 C19.3591,24.983 19.3631,24.958 19.3671,24.934 C19.3631,24.958 19.3591,24.983 19.3541,25.006 C19.3521,25.018 19.3491,25.03 19.3471,25.042 C19.3361,25.091 19.3251,25.14 19.3131,25.189 C19.3251,25.14 19.3361,25.091 19.3471,25.042 C19.3491,25.03 19.3521,25.018 19.3541,25.006" id="Fill-35" fill="#F96841"></path>
            <path d="M18.5016,27.0861 C18.4756,27.1271 18.4486,27.1671 18.4216,27.2061 C18.4186,27.2111 18.4156,27.2151 18.4126,27.2201 C18.4156,27.2151 18.4186,27.2111 18.4216,27.2071 C18.4496,27.1671 18.4756,27.1271 18.5016,27.0861" id="Fill-37" fill="#F96841"></path>
            <path d="M24.9019,47.2087 C24.2369,47.2087 23.6959,47.7497 23.6959,48.4147 C23.6959,49.0797 24.2369,49.6207 24.9019,49.6207 C25.5669,49.6207 26.1079,49.0797 26.1079,48.4147 C26.1079,47.7497 25.5669,47.2087 24.9019,47.2087" id="Fill-39" fill="#F8AF3F"></path>
            <path d="M19.4312,24.5251 C19.4312,24.5211 19.4322,24.5161 19.4322,24.5111 C19.4322,24.5161 19.4312,24.5211 19.4312,24.5251 C19.4312,24.5301 19.4302,24.5351 19.4302,24.5411 C19.4232,24.5931 19.4152,24.6471 19.4072,24.6991 C19.4152,24.6471 19.4232,24.5941 19.4302,24.5411 C19.4302,24.5351 19.4312,24.5301 19.4312,24.5251" id="Fill-41" fill="#F96841"></path>
            <path d="M15.693,18.1989 C15.627,18.1719 15.561,18.1469 15.493,18.1219 C15.475,18.1159 15.456,18.1099 15.438,18.1029 C15.456,18.1099 15.475,18.1159 15.493,18.1219 C15.561,18.1469 15.627,18.1719 15.693,18.1989 C16.341,18.4599 16.943,18.8329 17.474,19.3109 C16.981,18.8679 16.427,18.5129 15.832,18.2569 C15.786,18.2369 15.739,18.2179 15.693,18.1989" id="Fill-43" fill="#F96841"></path>
            <path d="M9.8282,18.966 C9.8852,18.924 9.9422,18.882 9.9992,18.842 C10.0112,18.834 10.0222,18.826 10.0342,18.819 C10.0922,18.779 10.1502,18.74 10.2092,18.702 C10.2122,18.7 10.2142,18.699 10.2172,18.697 C10.2782,18.658 10.3392,18.622 10.4012,18.585 C10.4052,18.583 10.4102,18.58 10.4132,18.578 C10.4222,18.573 10.4312,18.568 10.4392,18.563 C10.4702,18.545 10.5022,18.528 10.5342,18.51 C10.5632,18.494 10.5922,18.478 10.6222,18.462 C10.6332,18.456 10.6452,18.45 10.6562,18.444 C10.7162,18.413 10.7752,18.383 10.8342,18.355 C10.8362,18.354 10.8372,18.354 10.8382,18.353 C10.8442,18.35 10.8492,18.347 10.8552,18.344 L10.8722,18.337 C10.9302,18.309 10.9892,18.283 11.0472,18.258 C11.0532,18.256 11.0582,18.253 11.0642,18.251 C11.0732,18.247 11.0812,18.243 11.0902,18.239 C11.1202,18.227 11.1512,18.215 11.1822,18.202 C11.2162,18.189 11.2492,18.174 11.2832,18.161 C11.2942,18.157 11.3052,18.154 11.3162,18.149 C11.3762,18.127 11.4382,18.105 11.5002,18.084 C11.5102,18.08 11.5202,18.077 11.5302,18.073 C11.5962,18.051 11.6622,18.031 11.7302,18.011 C11.7452,18.007 11.7602,18.002 11.7742,17.998 C11.8152,17.986 11.8562,17.976 11.8972,17.965 C11.9242,17.958 11.9512,17.95 11.9782,17.944 C11.9812,17.943 11.9852,17.942 11.9882,17.941 C11.9942,17.94 11.9992,17.938 12.0042,17.937 C12.0692,17.922 12.1332,17.907 12.1982,17.893 C12.2102,17.891 12.2222,17.888 12.2342,17.886 C12.2682,17.879 12.3022,17.873 12.3362,17.867 C12.3712,17.861 12.4062,17.854 12.4412,17.848 C12.4452,17.847 12.4482,17.847 12.4522,17.846 L12.4862,17.841 C12.5572,17.83 12.6282,17.819 12.7002,17.81 C12.7042,17.81 12.7102,17.809 12.7152,17.809 C12.7842,17.801 12.8522,17.794 12.9222,17.788 C12.9352,17.787 12.9492,17.786 12.9622,17.785 C13.0332,17.779 13.1042,17.775 13.1752,17.772 L13.2192,17.77 C13.2922,17.767 13.3672,17.766 13.4402,17.766 L13.4412,17.766 C14.0962,17.766 14.7342,17.869 15.3392,18.069 C15.3722,18.08 15.4052,18.091 15.4372,18.103 C15.4562,18.11 15.4742,18.115 15.4932,18.122 C15.5602,18.147 15.6272,18.172 15.6932,18.199 C15.7392,18.217 15.7862,18.237 15.8322,18.257 C16.5232,18.555 17.1592,18.985 17.7072,19.533 C18.7402,20.566 19.3522,21.907 19.4582,23.349 C19.4692,23.498 19.4742,23.648 19.4742,23.799 C19.4742,23.874 19.4732,23.947 19.4702,24.022 C19.4702,24.036 19.4692,24.05 19.4682,24.065 C19.4652,24.136 19.4612,24.207 19.4552,24.278 C19.4542,24.291 19.4532,24.305 19.4522,24.318 C19.4522,24.32 19.4522,24.32 19.4522,24.322 C19.4462,24.385 19.4402,24.448 19.4322,24.511 C19.4322,24.516 19.4322,24.521 19.4312,24.525 C19.4312,24.53 19.4302,24.535 19.4302,24.541 C19.4232,24.594 19.4152,24.647 19.4072,24.699 C19.4042,24.717 19.4022,24.736 19.3992,24.754 C19.3972,24.769 19.3942,24.784 19.3922,24.799 C19.3852,24.844 19.3762,24.889 19.3672,24.934 C19.3632,24.958 19.3592,24.983 19.3542,25.006 C19.3522,25.018 19.3492,25.03 19.3472,25.042 C19.3362,25.091 19.3252,25.14 19.3132,25.189 C19.3102,25.204 19.3072,25.22 19.3032,25.237 C19.3012,25.245 19.2992,25.254 19.2972,25.261 C19.2872,25.3 19.2762,25.339 19.2662,25.377 C19.2582,25.407 19.2502,25.437 19.2422,25.466 C19.2382,25.481 19.2342,25.495 19.2292,25.51 C19.2092,25.577 19.1892,25.644 19.1662,25.711 C19.1662,25.712 19.1662,25.713 19.1652,25.714 C19.1622,25.722 19.1602,25.731 19.1572,25.739 C19.1362,25.802 19.1142,25.863 19.0912,25.925 C19.0882,25.932 19.0852,25.939 19.0832,25.945 C19.0812,25.949 19.0802,25.953 19.0792,25.957 C19.0772,25.961 19.0752,25.966 19.0732,25.971 C19.0502,26.031 19.0262,26.091 19.0002,26.151 C18.9982,26.157 18.9952,26.164 18.9922,26.171 C18.9892,26.178 18.9862,26.185 18.9822,26.193 C18.9702,26.221 18.9572,26.249 18.9442,26.277 C18.9282,26.313 18.9122,26.349 18.8952,26.385 C18.8932,26.391 18.8902,26.397 18.8872,26.402 L18.8862,26.405 C18.8572,26.465 18.8272,26.525 18.7962,26.584 C18.7902,26.595 18.7852,26.607 18.7782,26.618 C18.7452,26.68 18.7122,26.741 18.6772,26.801 C18.6702,26.813 18.6632,26.825 18.6562,26.837 L18.6552,26.84 C18.6192,26.901 18.5812,26.963 18.5432,27.023 C18.5412,27.026 18.5402,27.029 18.5382,27.031 C18.5262,27.049 18.5142,27.068 18.5012,27.086 C18.4752,27.127 18.4492,27.167 18.4222,27.207 C18.4182,27.211 18.4152,27.216 18.4122,27.22 C18.4082,27.227 18.4032,27.234 18.3982,27.241 C18.3582,27.299 18.3162,27.356 18.2742,27.412 C18.2712,27.417 18.2682,27.421 18.2652,27.425 L21.1302,30.291 L30.2932,21.128 L16.1132,6.946 L6.9502,16.11 L9.8152,18.975 C9.8202,18.972 9.8242,18.969 9.8282,18.966" id="Fill-45" fill="#FAB13E"></path>
            <path d="M18.442,44.6511 C16.676,43.5691 15.192,42.0641 14.135,40.2801 C12.98,38.3291 12.368,36.0931 12.368,33.8141 C12.368,32.4421 12.584,31.1011 13.011,29.8171 C11.562,29.7161 10.213,29.1031 9.175,28.0651 C8.861,27.7521 8.587,27.4091 8.353,27.0451 C7.481,29.1911 7.04,31.4631 7.04,33.8141 C7.04,37.1601 7.963,40.4271 9.71,43.2611 C11.339,45.9051 13.624,48.0871 16.333,49.5901 L18.442,44.6511 Z" id="Fill-47" fill="#919191"></path>
            <path d="M31.5841,44.7419 L33.6321,49.6969 C35.1161,48.9159 36.4671,47.9329 37.6571,46.7709 C38.8261,45.6289 39.8451,44.3049 40.6911,42.8319 L34.0201,42.8319 C33.2551,43.6019 32.5631,44.1939 31.5841,44.7419" id="Fill-49" fill="#919191"></path>
            <path d="M18.7784,26.6183 C18.7844,26.6063 18.7904,26.5953 18.7964,26.5843 C18.8274,26.5253 18.8574,26.4653 18.8854,26.4053 L18.8874,26.4023 L18.8854,26.4053 C18.8574,26.4653 18.8274,26.5253 18.7964,26.5843 C18.7904,26.5953 18.7844,26.6063 18.7784,26.6183 C18.7464,26.6793 18.7124,26.7413 18.6764,26.8013 C18.6704,26.8133 18.6634,26.8253 18.6564,26.8363 C18.6634,26.8253 18.6704,26.8133 18.6774,26.8013 C18.7124,26.7413 18.7454,26.6803 18.7784,26.6183" id="Fill-51" fill="#F96841"></path>
            <path d="M18.606,24.0549 C18.606,24.0539 18.606,24.0529 18.606,24.0519 C18.606,24.0519 18.606,24.0529 18.606,24.0539 L18.606,24.0549 Z" id="Fill-53" fill="#F96841"></path>
            <path d="M11.5631,18.9802 C11.5611,18.9812 11.5601,18.9812 11.5581,18.9822 C11.5571,18.9822 11.5551,18.9832 11.5541,18.9832 C11.5571,18.9822 11.5601,18.9812 11.5631,18.9802" id="Fill-55" fill="#F96841"></path>
            <path d="M18.5191,24.8005 C18.5081,24.8115 18.5081,24.8215 18.5081,24.8325 L18.5081,24.8115 L18.5191,24.8005 Z" id="Fill-57" fill="#F96841"></path>
            <path d="M18.0811,21.5099 C18.0701,21.4779 18.0491,21.4459 18.0281,21.4139 L18.0281,21.3929 C18.0381,21.4349 18.0601,21.4779 18.0811,21.5099" id="Fill-59" fill="#F96841"></path>
            <path d="M17.547,20.6555 L17.515,20.6235 C17.526,20.6235 17.526,20.6235 17.536,20.6345 C17.536,20.6445 17.536,20.6445 17.547,20.6555" id="Fill-61" fill="#F96841"></path>
            <path d="M18.3805,22.258 L18.3695,22.247 C18.3695,22.226 18.3595,22.205 18.3485,22.183 L18.3485,22.162 C18.3595,22.183 18.3595,22.205 18.3695,22.215 C18.3695,22.237 18.3695,22.247 18.3805,22.258" id="Fill-63" fill="#F96841"></path>
            <polygon id="Fill-65" fill="#F96841" points="17.2691 27.2785 17.2581 27.2895 17.2581 27.2785"></polygon>
            <path d="M17.8888,26.4347 C17.8888,26.4457 17.8778,26.4557 17.8778,26.4667 L17.8778,26.4457 C17.8888,26.4457 17.8888,26.4347 17.8888,26.4347" id="Fill-67" fill="#F96841"></path>
            <path d="M17.8141,26.5627 C17.8031,26.5627 17.8031,26.5737 17.8031,26.5737 C17.8141,26.5737 17.8031,26.5627 17.8031,26.5627 L17.8141,26.5627 Z" id="Fill-69" fill="#F96841"></path>
            <path d="M18.4552,25.0568 C18.4552,25.0458 18.4552,25.0458 18.4662,25.0458 C18.4552,25.0568 18.4552,25.0678 18.4552,25.0778 L18.4552,25.0568 Z" id="Fill-71" fill="#F96841"></path>
            <path d="M18.4869,24.9499 C18.4759,24.9709 18.4759,24.9819 18.4759,24.9929 L18.4759,24.9609 L18.4869,24.9499 Z" id="Fill-73" fill="#F96841"></path>
            <path d="M18.0382,26.1677 C18.0382,26.1787 18.0282,26.1887 18.0282,26.1997 L18.0282,26.1787 C18.0382,26.1787 18.0382,26.1787 18.0382,26.1677" id="Fill-75" fill="#F96841"></path>
            <path d="M15.3121,21.9279 C14.7951,21.4109 14.1181,21.1529 13.4411,21.1529 C12.7641,21.1529 12.0861,21.4109 11.5701,21.9279 C10.5371,22.9619 10.5371,24.6369 11.5701,25.6699 C12.0861,26.1869 12.7641,26.4459 13.4411,26.4459 C14.1181,26.4459 14.7951,26.1869 15.3121,25.6699 C16.3461,24.6369 16.3461,22.9619 15.3121,21.9279" id="Fill-77" fill="#FAB13E"></path>
            <path d="M18.5221,24.7614 L18.5221,24.7624 L18.5231,24.7554 C18.5241,24.7534 18.5241,24.7514 18.5241,24.7494 C18.5241,24.7534 18.5231,24.7574 18.5221,24.7614" id="Fill-79" fill="#FFFFFF"></path>
            <path d="M18.5592,24.5417 C18.5592,24.5427 18.5592,24.5437 18.5592,24.5447 L18.5592,24.5447 C18.5592,24.5437 18.5592,24.5427 18.5592,24.5417" id="Fill-81" fill="#FFFFFF"></path>
            <path d="M18.5191,24.7897 L18.5191,24.8007 L18.5081,24.8107 C18.5081,24.8107 18.5191,24.8007 18.5191,24.7897" id="Fill-83" fill="#FFFFFF"></path>
            <path d="M18.4068,25.2448 C18.4068,25.2458 18.4068,25.2468 18.4068,25.2468 C18.4058,25.2478 18.4058,25.2478 18.4058,25.2478 C18.4068,25.2468 18.4068,25.2458 18.4068,25.2448" id="Fill-85" fill="#FFFFFF"></path>
            <path d="M18.606,24.0529 L18.606,24.0529 C18.606,24.0529 18.606,24.0519 18.606,24.0519 C18.606,24.0519 18.606,24.0529 18.606,24.0529" id="Fill-87" fill="#FFFFFF"></path>
            <path d="M16.6602,19.7477 L16.6602,19.7587 C16.6492,19.7477 16.6492,19.7367 16.6392,19.7367 C16.6492,19.7367 16.6492,19.7477 16.6602,19.7477" id="Fill-89" fill="#FFFFFF"></path>
            <polygon id="Fill-91" fill="#FFFFFF" points="9.0934 12.7472 9.0934 12.7472 6.8044 15.0362 6.8364 15.0042"></polygon>
            <path d="M11.6412,18.9509 C11.6402,18.9509 11.6392,18.9509 11.6372,18.9519 C11.6382,18.9519 11.6392,18.9519 11.6392,18.9509 C11.6402,18.9509 11.6412,18.9509 11.6412,18.9509" id="Fill-93" fill="#60411F"></path>
            <path d="M11.3297,19.0744 C11.3407,19.0644 11.3617,19.0644 11.3837,19.0534 C11.3407,19.0744 11.3087,19.0854 11.2657,19.1064 C11.2877,19.0954 11.3087,19.0854 11.3297,19.0744" id="Fill-95" fill="#60411F"></path>
            <path d="M11.4259,19.0319 L11.4259,19.0429 L11.4149,19.0429 C11.4149,19.0319 11.4149,19.0319 11.4259,19.0319" id="Fill-97" fill="#60411F"></path>
            <path d="M11.5113,18.9997 C11.5003,18.9997 11.5003,18.9997 11.5003,19.0107 L11.5003,18.9997 L11.5113,18.9997 Z" id="Fill-99" fill="#60411F"></path>
            <path d="M11.4151,19.0427 C11.4151,19.0317 11.4151,19.0317 11.4261,19.0317 L11.4261,19.0427 L11.4151,19.0427 Z" id="Fill-101" fill="#60411F"></path>
            <path d="M11.5006,18.9997 L11.5116,18.9997 C11.5006,18.9997 11.5006,18.9997 11.5006,19.0107 L11.4796,19.0107 C11.4906,19.0107 11.4906,18.9997 11.5006,18.9997" id="Fill-103" fill="#60411F"></path>
            <path d="M11.5543,18.9787 L11.5653,18.9787 C11.5543,18.9787 11.5433,18.9887 11.5433,18.9887 C11.5543,18.9887 11.5543,18.9887 11.5543,18.9787" id="Fill-105" fill="#60411F"></path>
            <path d="M11.6397,18.9465 C11.6507,18.9465 11.6717,18.9465 11.6927,18.9355 C11.6717,18.9355 11.6507,18.9465 11.6397,18.9575 L11.6287,18.9575 L11.6397,18.9465 Z" id="Fill-107" fill="#60411F"></path>
            <path d="M11.7784,18.9035 C11.7674,18.9145 11.7464,18.9145 11.7364,18.9145 C11.7464,18.9145 11.7464,18.9145 11.7574,18.9035 L11.7784,18.9035 Z" id="Fill-109" fill="#60411F"></path>
            <path d="M12.3233,18.7541 C12.2593,18.7651 12.1953,18.7751 12.1313,18.7971 C12.1743,18.7861 12.2053,18.7751 12.2383,18.7651 C12.2703,18.7651 12.2913,18.7541 12.3233,18.7541" id="Fill-111" fill="#60411F"></path>
            <path d="M12.943,18.6472 L13.028,18.6472 C12.954,18.6472 12.879,18.6582 12.804,18.6682 C12.847,18.6582 12.9,18.6582 12.943,18.6472" id="Fill-113" fill="#60411F"></path>
            <path d="M13.1563,18.6364 C13.1353,18.6364 13.1143,18.6364 13.0813,18.6474 C13.0923,18.6364 13.1033,18.6364 13.1143,18.6364 L13.1563,18.6364 Z" id="Fill-115" fill="#60411F"></path>
            <path d="M17.2691,20.3244 C17.2581,20.3134 17.2581,20.3034 17.2481,20.3034 L17.2581,20.3034 C17.2581,20.3134 17.2691,20.3134 17.2691,20.3244" id="Fill-117" fill="#60411F"></path>
            <path d="M16.8219,19.8874 C16.8429,19.9064 16.8649,19.9264 16.8859,19.9454 C16.8659,19.9274 16.8459,19.9084 16.8259,19.8914 C16.8249,19.8894 16.8229,19.8884 16.8219,19.8874" id="Fill-119" fill="#60411F"></path>
            <path d="M18.5831,23.2087 L18.5831,23.2727 C18.5831,23.2407 18.5831,23.1977 18.5721,23.1657 C18.5721,23.1767 18.5721,23.1977 18.5831,23.2087" id="Fill-121" fill="#60411F"></path>
            <path d="M18.5616,24.5441 C18.5516,24.5971 18.5516,24.6501 18.5296,24.6931 C18.5406,24.6501 18.5516,24.6081 18.5516,24.5651 C18.5616,24.5541 18.5616,24.5541 18.5616,24.5441" id="Fill-123" fill="#60411F"></path>
            <path d="M18.3482,22.1618 C18.3372,22.1408 18.3372,22.1188 18.3272,22.1088 L18.3372,22.1188 C18.3372,22.1298 18.3372,22.1508 18.3482,22.1618" id="Fill-125" fill="#60411F"></path>
            <path d="M18.0279,21.3928 L18.0279,21.4138 C18.0279,21.4038 18.0279,21.4038 18.0169,21.3928 L18.0279,21.3928 Z" id="Fill-127" fill="#60411F"></path>
            <path d="M18.5191,24.7897 L18.5191,24.8007 L18.5081,24.8107 C18.5081,24.8107 18.5191,24.8007 18.5191,24.7897" id="Fill-129" fill="#60411F"></path>
            <path d="M18.5299,24.715 L18.5299,24.747 C18.5189,24.747 18.5189,24.757 18.5189,24.757 C18.5299,24.747 18.5299,24.726 18.5299,24.715" id="Fill-131" fill="#60411F"></path>
            <path d="M17.2691,20.3229 L17.2691,20.3229 C17.2651,20.3189 17.2611,20.3129 17.2561,20.3079 L17.2691,20.3229 Z" id="Fill-133" fill="#60411F"></path>
            <path d="M18.4015,25.2492 C18.4125,25.2282 18.4125,25.2172 18.4225,25.1952 L18.4225,25.2062 C18.4125,25.2172 18.4125,25.2282 18.4125,25.2382 L18.4015,25.2492 Z" id="Fill-135" fill="#60411F"></path>
            <path d="M18.4444,25.11 L18.4444,25.121 C18.4444,25.131 18.4334,25.142 18.4334,25.153 C18.4334,25.142 18.4444,25.121 18.4444,25.11" id="Fill-137" fill="#60411F"></path>
            <path d="M10.3258,19.6623 C10.3468,19.6513 10.3578,19.6413 10.3788,19.6303 C10.3578,19.6413 10.3468,19.6623 10.3258,19.6733 C10.1978,19.7683 10.0798,19.8653 9.9628,19.9723 C10.0058,19.9403 10.0368,19.8973 10.0798,19.8653 C10.1008,19.8543 10.1118,19.8333 10.1338,19.8223 L10.3258,19.6623 Z" id="Fill-139" fill="#6A9448"></path>
            <path d="M10.4967,19.5446 C10.5177,19.5336 10.5397,19.5126 10.5717,19.5016 C10.5177,19.5336 10.4757,19.5556 10.4327,19.5976 C10.4117,19.6086 10.4007,19.6196 10.3897,19.6196 C10.4007,19.6086 10.4217,19.5976 10.4327,19.5876 C10.4537,19.5766 10.4757,19.5656 10.4967,19.5446" id="Fill-141" fill="#6A9448"></path>
            <path d="M10.9561,19.256 C11.0201,19.224 11.0731,19.203 11.1271,19.171 C11.0841,19.192 11.0521,19.214 11.0201,19.235 C10.9881,19.245 10.9451,19.267 10.9131,19.288 C10.9241,19.277 10.9451,19.267 10.9561,19.256" id="Fill-143" fill="#6A9448"></path>
            <path d="M11.3297,19.0744 C11.3407,19.0644 11.3617,19.0644 11.3837,19.0534 C11.3407,19.0744 11.3087,19.0854 11.2657,19.1064 C11.2877,19.0954 11.3087,19.0854 11.3297,19.0744" id="Fill-145" fill="#60411F"></path>
            <path d="M11.4259,19.0319 L11.4369,19.0319 C11.4259,19.0319 11.4259,19.0429 11.4259,19.0429 L11.4149,19.0429 C11.4149,19.0319 11.4149,19.0319 11.4259,19.0319" id="Fill-147" fill="#60411F"></path>
            <path d="M11.5006,19.0104 C11.4796,19.0104 11.4686,19.0214 11.4586,19.0214 C11.4686,19.0104 11.4686,19.0104 11.4796,19.0104 L11.5006,19.0104 Z" id="Fill-149" fill="#60411F"></path>
            <path d="M11.4259,19.0319 L11.4369,19.0319 C11.4259,19.0319 11.4259,19.0429 11.4259,19.0429 L11.4259,19.0319 Z" id="Fill-151" fill="#60411F"></path>
            <path d="M11.5006,18.9997 L11.5006,19.0107 C11.4796,19.0107 11.4686,19.0207 11.4586,19.0207 C11.4686,19.0107 11.4686,19.0107 11.4796,19.0107 C11.4906,19.0107 11.4906,18.9997 11.5006,18.9997" id="Fill-153" fill="#60411F"></path>
            <path d="M11.5123,19.0007 C11.5123,19.0007 11.5113,19.0007 11.5103,19.0007 C11.5073,19.0027 11.5043,19.0037 11.5013,19.0047 C11.5053,19.0037 11.5093,19.0017 11.5123,19.0007" id="Fill-155" fill="#60411F"></path>
            <polygon id="Fill-157" fill="#60411F" points="11.6397 18.9465 11.6397 18.9575 11.6287 18.9575"></polygon>
            <path d="M11.7784,18.9035 C11.7674,18.9145 11.7464,18.9145 11.7364,18.9145 C11.7464,18.9145 11.7464,18.9145 11.7574,18.9035 L11.7784,18.9035 Z" id="Fill-159" fill="#60411F"></path>
            <path d="M11.7784,18.9035 C11.7674,18.9145 11.7464,18.9145 11.7364,18.9145 C11.7464,18.9145 11.7464,18.9145 11.7574,18.9035 L11.7784,18.9035 Z" id="Fill-161" fill="#60411F"></path>
            <path d="M17.878,26.4455 L17.878,26.4665 C17.867,26.4775 17.857,26.4985 17.846,26.5095 C17.857,26.4875 17.867,26.4665 17.878,26.4455" id="Fill-163" fill="#60411F"></path>
            <path d="M18.0279,26.1784 L18.0279,26.1994 C18.0279,26.1994 18.0169,26.1994 18.0169,26.2104 C18.0169,26.1994 18.0169,26.1894 18.0279,26.1784" id="Fill-165" fill="#60411F"></path>
            <polygon id="Fill-167" fill="#60411F" points="17.0977 27.4562 17.0977 27.4562"></polygon>
            <path d="M17.2052,27.343 L17.2052,27.354 C17.1622,27.385 17.1302,27.418 17.0982,27.46 C17.1302,27.418 17.1622,27.385 17.2052,27.343" id="Fill-169" fill="#60411F"></path>
            <path d="M17.4723,27.0436 L17.4513,27.0646 C17.4613,27.0546 17.4613,27.0546 17.4613,27.0436 L17.4723,27.0436 Z" id="Fill-171" fill="#60411F"></path>
            <path d="M16.714,19.801 C16.693,19.78 16.682,19.769 16.66,19.759 L16.66,19.748 C16.682,19.759 16.693,19.78 16.714,19.801" id="Fill-173" fill="#60411F"></path>
            <path d="M16.1969,19.4221 C16.1969,19.4221 16.1969,19.4221 16.1969,19.4221 C16.1969,19.4221 16.1969,19.4221 16.1969,19.4221" id="Fill-175" fill="#60411F"></path>
            <path d="M16.9596,20.0041 L16.9596,20.0151 L16.8956,19.9501 C16.9166,19.9721 16.9386,19.9931 16.9596,20.0041" id="Fill-177" fill="#60411F"></path>
            <path d="M15.421,19.0212 C15.464,19.0322 15.506,19.0532 15.549,19.0742 L15.539,19.0742 C15.496,19.0532 15.464,19.0322 15.421,19.0212" id="Fill-179" fill="#60411F"></path>
            <path d="M15.5602,19.0744 C15.6132,19.1064 15.6672,19.1284 15.7092,19.1494 C15.6562,19.1284 15.6132,19.1064 15.5602,19.0854 L15.5602,19.0744 Z" id="Fill-181" fill="#60411F"></path>
            <path d="M14.9083,18.8395 C14.9623,18.8505 15.0043,18.8715 15.0583,18.8925 C14.9623,18.8505 14.8553,18.8185 14.7483,18.7975 L14.7593,18.7975 C14.8123,18.8075 14.8663,18.8285 14.9083,18.8395" id="Fill-183" fill="#60411F"></path>
            <path d="M15.1329,18.9142 C15.1219,18.9142 15.1119,18.9032 15.1009,18.9032 C15.1119,18.8932 15.1119,18.8932 15.1119,18.9032 C15.1119,18.9032 15.1219,18.9032 15.1329,18.9142" id="Fill-185" fill="#60411F"></path>
            <path d="M15.4034,19.0134 C15.3684,18.9994 15.3344,18.9854 15.2994,18.9714 C15.3344,18.9854 15.3684,18.9994 15.4034,19.0134" id="Fill-187" fill="#60411F"></path>
            <path d="M15.5421,19.0724 C15.5021,19.0554 15.4631,19.0384 15.4231,19.0214 C15.4631,19.0384 15.5021,19.0544 15.5421,19.0724" id="Fill-189" fill="#60411F"></path>
            <path d="M15.9234,19.256 C15.9344,19.267 15.9444,19.277 15.9554,19.277 C15.9234,19.267 15.9024,19.256 15.8694,19.235 C15.8804,19.235 15.9024,19.245 15.9234,19.256" id="Fill-191" fill="#60411F"></path>
            <path d="M16.1798,19.4059 C16.1798,19.4159 16.1908,19.4159 16.2008,19.4269 C16.1478,19.3949 16.0838,19.3519 16.0298,19.3209 C16.0838,19.3419 16.1258,19.3739 16.1798,19.4059" id="Fill-193" fill="#60411F"></path>
            <path d="M16.6602,19.7477 L16.6602,19.7587 C16.6492,19.7477 16.6492,19.7367 16.6392,19.7367 C16.6492,19.7367 16.6492,19.7477 16.6602,19.7477" id="Fill-195" fill="#60411F"></path>
            <path d="M15.2599,18.9572 C15.2309,18.9462 15.2019,18.9352 15.1729,18.9252 C15.2019,18.9352 15.2309,18.9462 15.2599,18.9572" id="Fill-197" fill="#60411F"></path>
            <path d="M14.9137,18.8405 C14.8617,18.8255 14.8087,18.8115 14.7567,18.7975 C14.7557,18.7975 14.7537,18.7965 14.7527,18.7965 C14.8067,18.8105 14.8607,18.8245 14.9137,18.8405" id="Fill-199" fill="#60411F"></path>
            <path d="M14.5455,18.7433 C14.5555,18.7433 14.5665,18.7543 14.5775,18.7543 C14.5455,18.7433 14.5025,18.7323 14.4705,18.7323 C14.4915,18.7323 14.5245,18.7433 14.5455,18.7433" id="Fill-201" fill="#60411F"></path>
            <path d="M15.421,19.0212 C15.464,19.0322 15.496,19.0532 15.539,19.0742 C15.4,19.0102 15.272,18.9572 15.133,18.9142 C15.144,18.9142 15.165,18.9252 15.175,18.9252 C15.197,18.9362 15.218,18.9362 15.24,18.9462 C15.25,18.9462 15.25,18.9572 15.261,18.9572 C15.315,18.9792 15.357,18.9892 15.4,19.0102 C15.411,19.0102 15.411,19.0212 15.421,19.0212" id="Fill-203" fill="#60411F"></path>
            <polygon id="Fill-205" fill="#60411F" points="15.5602 19.0744 15.5602 19.0854 15.5492 19.0744"></polygon>
            <path d="M15.8697,19.235 C15.7637,19.181 15.6667,19.128 15.5597,19.085 C15.6137,19.107 15.6567,19.128 15.7097,19.149 C15.7637,19.171 15.8167,19.203 15.8697,19.235" id="Fill-207" fill="#60411F"></path>
            <path d="M15.1725,18.925 C15.1515,18.917 15.1295,18.91 15.1075,18.903 C15.1295,18.91 15.1515,18.917 15.1725,18.925" id="Fill-209" fill="#60411F"></path>
            <path d="M15.044,18.881 C15.001,18.867 14.957,18.854 14.914,18.84 C14.957,18.854 15.001,18.867 15.044,18.881" id="Fill-211" fill="#60411F"></path>
            <path d="M15.2989,18.9719 C15.2859,18.9669 15.2729,18.9619 15.2599,18.9569 C15.2729,18.9619 15.2859,18.9669 15.2989,18.9719" id="Fill-213" fill="#60411F"></path>
            <path d="M15.4234,19.0217 C15.4164,19.0187 15.4104,19.0167 15.4034,19.0137 C15.4104,19.0167 15.4164,19.0187 15.4234,19.0217" id="Fill-215" fill="#60411F"></path>
            <path d="M15.3145,25.6657 C14.7915,26.1887 14.1175,26.4457 13.4445,26.4457 C12.7615,26.4457 12.0885,26.1887 11.5645,25.6657 C10.5395,24.6407 10.5395,22.9627 11.5645,21.9267 C12.0885,21.4147 12.7615,21.1577 13.4445,21.1577 C14.1175,21.1577 14.7915,21.4147 15.3145,21.9267 C16.3505,22.9627 16.3505,24.6407 15.3145,25.6657 M15.9235,21.3177 C15.8055,21.2107 15.6885,21.1037 15.5705,21.0077 C14.9615,20.5487 14.2245,20.2917 13.4445,20.2917 C12.5045,20.2917 11.6185,20.6557 10.9565,21.3177 C10.2725,22.0017 9.9305,22.8987 9.9305,23.7957 C9.9305,24.6937 10.2725,25.5907 10.9565,26.2747 C11.0415,26.3597 11.1275,26.4347 11.2015,26.4987 C11.5435,26.7767 11.9175,26.9907 12.3235,27.1287 C12.6865,27.2467 13.0605,27.3107 13.4445,27.3107 C13.8825,27.3107 14.3205,27.2257 14.7265,27.0647 C15.1645,26.8947 15.5705,26.6267 15.9235,26.2747 C17.2905,24.9067 17.2905,22.6857 15.9235,21.3177" id="Fill-217" fill="#60411F"></path>
            <path d="M11.5377,60.821 L38.2297,60.821 L11.5377,60.821 Z" id="Fill-219" fill="#60411F"></path>
            <path d="M10.6563,18.444 C10.6453,18.45 10.6333,18.456 10.6223,18.462 C10.5923,18.478 10.5633,18.494 10.5343,18.51 C10.5633,18.494 10.5923,18.478 10.6223,18.462 C10.6333,18.456 10.6453,18.45 10.6563,18.444 C10.7153,18.413 10.7753,18.383 10.8353,18.355 C10.8363,18.354 10.8373,18.354 10.8383,18.353 C10.8373,18.354 10.8363,18.354 10.8343,18.355 C10.7753,18.383 10.7163,18.413 10.6563,18.444" id="Fill-221" fill="#60411F"></path>
            <path d="M19.1568,25.7394 C19.1598,25.7304 19.1628,25.7224 19.1658,25.7134 L19.1568,25.7394 C19.1358,25.8014 19.1138,25.8634 19.0908,25.9254 C19.0878,25.9314 19.0858,25.9384 19.0828,25.9454 C19.0858,25.9384 19.0888,25.9314 19.0908,25.9254 C19.1138,25.8634 19.1358,25.8014 19.1568,25.7394" id="Fill-223" fill="#60411F"></path>
            <path d="M19.4327,24.5109 C19.4407,24.4489 19.4467,24.3859 19.4517,24.3219 C19.4467,24.3849 19.4397,24.4489 19.4327,24.5109" id="Fill-225" fill="#60411F"></path>
            <path d="M19.3028,25.2365 C19.3068,25.2205 19.3098,25.2045 19.3138,25.1885 C19.3098,25.2045 19.3068,25.2205 19.3028,25.2365 C19.3008,25.2445 19.2988,25.2535 19.2968,25.2615 C19.2868,25.3005 19.2768,25.3385 19.2658,25.3775 C19.2768,25.3385 19.2868,25.3005 19.2968,25.2615 C19.2998,25.2535 19.3008,25.2445 19.3028,25.2365" id="Fill-227" fill="#60411F"></path>
            <path d="M11.7301,18.0109 C11.6631,18.0309 11.5961,18.0519 11.5301,18.0729 C11.5201,18.0769 11.5101,18.0799 11.5001,18.0839 C11.4381,18.1049 11.3761,18.1269 11.3161,18.1489 C11.3051,18.1539 11.2941,18.1569 11.2831,18.1609 C11.2501,18.1749 11.2161,18.1889 11.1821,18.2019 C11.2161,18.1889 11.2501,18.1749 11.2841,18.1609 L11.3161,18.1499 C11.3771,18.1269 11.4381,18.1049 11.5001,18.0839 C11.5101,18.0799 11.5201,18.0769 11.5301,18.0729 C11.5961,18.0519 11.6631,18.0309 11.7301,18.0109 C11.7451,18.0069 11.7591,18.0019 11.7741,17.9979 C11.8151,17.9869 11.8561,17.9759 11.8971,17.9649 C11.8561,17.9759 11.8151,17.9859 11.7741,17.9979 C11.7601,18.0019 11.7451,18.0069 11.7301,18.0109" id="Fill-229" fill="#60411F"></path>
            <path d="M13.441,17.7658 L13.441,17.7658 C13.367,17.7658 13.293,17.7668 13.219,17.7698 L13.175,17.7718 C13.105,17.7748 13.033,17.7788 12.962,17.7848 C12.949,17.7858 12.936,17.7868 12.922,17.7878 C12.853,17.7938 12.784,17.8008 12.715,17.8088 C12.71,17.8088 12.705,17.8098 12.7,17.8098 C12.628,17.8188 12.557,17.8298 12.486,17.8408 L12.452,17.8468 C12.463,17.8448 12.475,17.8428 12.486,17.8408 C12.557,17.8298 12.628,17.8198 12.7,17.8108 C12.705,17.8098 12.71,17.8098 12.715,17.8088 C12.784,17.8008 12.853,17.7938 12.922,17.7878 C12.936,17.7868 12.949,17.7858 12.962,17.7848 C13.033,17.7788 13.104,17.7748 13.175,17.7718 C13.19,17.7708 13.205,17.7708 13.219,17.7698 C13.293,17.7678 13.367,17.7658 13.441,17.7658 L13.441,17.7658 C13.836,17.7658 14.224,17.8038 14.603,17.8778 C14.695,17.8958 14.788,17.9148 14.879,17.9368 C15.035,17.9748 15.188,18.0188 15.339,18.0688 C15.372,18.0798 15.405,18.0918 15.438,18.1028 C15.405,18.0918 15.372,18.0798 15.339,18.0688 C14.734,17.8698 14.096,17.7658 13.441,17.7658" id="Fill-231" fill="#60411F"></path>
            <path d="M18.9444,26.277 C18.9284,26.313 18.9124,26.349 18.8954,26.385 C18.8934,26.391 18.8904,26.397 18.8874,26.402 C18.8904,26.397 18.8934,26.391 18.8954,26.385 C18.9124,26.349 18.9284,26.313 18.9444,26.277" id="Fill-233" fill="#60411F"></path>
            <g id="Group-237" transform="translate(0.000000, 64.649700)">
                <mask id="mask-2" fill="white">
                    <use xlink:href="#path-1"></use>
                </mask>
                <g id="Clip-236"></g>
                <path d="" id="Fill-235" fill="#60411F" mask="url(#mask-2)"></path>
            </g>
            <path d="M18.5435,27.0231 C18.5815,26.9631 18.6185,26.9011 18.6545,26.8391 L18.6565,26.8361 L18.6545,26.8391 C18.6185,26.9011 18.5815,26.9621 18.5435,27.0231 C18.5415,27.0261 18.5405,27.0281 18.5385,27.0311 C18.5265,27.0491 18.5135,27.0671 18.5015,27.0861 C18.5135,27.0671 18.5265,27.0491 18.5385,27.0311 C18.5405,27.0281 18.5415,27.0261 18.5435,27.0231" id="Fill-238" fill="#60411F"></path>
            <path d="M17.7608,26.6447 L17.7598,26.6457 C17.7608,26.6447 17.7608,26.6447 17.7608,26.6437 C17.7608,26.6437 17.7608,26.6447 17.7608,26.6447" id="Fill-240" fill="#60411F"></path>
            <path d="M18.0147,21.383 L18.0157,21.386 C18.0157,21.385 18.0157,21.385 18.0157,21.385 C18.0147,21.384 18.0147,21.383 18.0147,21.383" id="Fill-242" fill="#60411F"></path>
            <g id="Group-246" transform="translate(0.000000, 64.649700)">
                <mask id="mask-4" fill="white">
                    <use xlink:href="#path-3"></use>
                </mask>
                <g id="Clip-245"></g>
                <path d="" id="Fill-244" fill="#6A9448" mask="url(#mask-4)"></path>
            </g>
            <path d="M19.0733,25.9709 C19.0503,26.0309 19.0263,26.0909 19.0003,26.1509 L18.9913,26.1709 C18.9943,26.1639 18.9983,26.1579 19.0003,26.1509 C19.0263,26.0909 19.0503,26.0319 19.0733,25.9709" id="Fill-247" fill="#60411F"></path>
            <path d="M12.1983,17.8932 C12.1333,17.9072 12.0693,17.9212 12.0043,17.9372 C11.9993,17.9382 11.9933,17.9392 11.9883,17.9412 C11.9933,17.9392 11.9993,17.9382 12.0043,17.9372 C12.0693,17.9212 12.1333,17.9072 12.1983,17.8932 C12.2103,17.8912 12.2223,17.8882 12.2343,17.8862 C12.2683,17.8792 12.3023,17.8732 12.3363,17.8672 C12.3023,17.8732 12.2683,17.8792 12.2343,17.8862 C12.2213,17.8882 12.2103,17.8912 12.1983,17.8932" id="Fill-249" fill="#60411F"></path>
            <g id="Group-253" transform="translate(1.000000, 0.649700)">
                <mask id="mask-6" fill="white">
                    <use xlink:href="#path-5"></use>
                </mask>
                <g id="Clip-252"></g>
                <path d="M43.6261,41.3168 L30.4451,41.3168 C28.6711,41.3168 27.2291,39.8748 27.2291,38.1128 C27.2291,37.7388 27.5391,37.4288 27.9131,37.4288 L46.1581,37.4288 C46.5321,37.4288 46.8421,37.7388 46.8421,38.1128 C46.8421,39.8748 45.4001,41.3168 43.6261,41.3168 L43.6261,41.3168 Z M36.6621,46.1248 C35.4651,47.2888 34.1191,48.2608 32.6351,49.0508 L30.5831,44.0938 C31.5661,43.5398 32.2501,42.9518 33.0191,42.1828 L39.6961,42.1828 C38.8411,43.6568 37.8261,44.9808 36.6621,46.1248 L36.6621,46.1248 Z M35.9461,59.3058 L11.8471,59.3058 L18.3311,44.1158 L29.6651,44.1158 L35.9461,59.3058 Z M37.9221,60.1708 C39.1931,60.1708 40.2291,61.1968 40.2291,62.4678 L40.2291,64.1348 L7.5411,64.1348 L7.5411,62.4678 C7.5411,61.1968 8.5781,60.1708 9.8381,60.1708 L37.9221,60.1708 Z M8.7061,42.6098 C6.9651,39.7788 6.0361,36.5098 6.0361,33.1668 C6.0361,30.8158 6.4841,28.5408 7.3501,26.3938 C7.5841,26.7568 7.8621,27.0988 8.1721,27.4198 C9.2081,28.4558 10.5651,29.0648 12.0071,29.1708 C11.5801,30.4528 11.3661,31.7888 11.3661,33.1668 C11.3661,35.4418 11.9751,37.6748 13.1391,39.6288 C14.1971,41.4138 15.6711,42.9198 17.4441,43.9988 L15.3291,48.9448 C12.6261,47.4378 10.3401,45.2588 8.7061,42.6098 L8.7061,42.6098 Z M8.7701,19.5038 C8.7811,19.5038 8.7811,19.4928 8.7811,19.4928 C8.8131,19.4718 8.8341,19.4398 8.8551,19.4188 C8.8661,19.4188 8.8661,19.4188 8.8771,19.4078 L8.9621,19.3218 C9.0051,19.2908 9.0371,19.2478 9.0801,19.2148 C9.1011,19.2048 9.1121,19.1838 9.1331,19.1728 L9.3261,19.0128 C9.3471,19.0018 9.3581,18.9908 9.3791,18.9808 L9.3901,18.9698 C9.4001,18.9588 9.4221,18.9478 9.4331,18.9378 C9.4541,18.9268 9.4751,18.9168 9.4971,18.8948 C9.5181,18.8838 9.5401,18.8628 9.5711,18.8518 C9.5821,18.8418 9.5931,18.8418 9.6031,18.8308 C9.6141,18.8198 9.6351,18.8098 9.6571,18.7988 C9.7001,18.7668 9.7421,18.7348 9.7851,18.7128 C9.8381,18.6818 9.8711,18.6598 9.9131,18.6388 C9.9241,18.6278 9.9451,18.6168 9.9561,18.6068 C10.0201,18.5748 10.0731,18.5528 10.1271,18.5208 C10.1481,18.5098 10.1691,18.4998 10.1911,18.4888 C10.2121,18.4788 10.2441,18.4678 10.2661,18.4568 C10.3091,18.4358 10.3401,18.4248 10.3831,18.4038 C10.3941,18.4038 10.3941,18.3928 10.4051,18.3928 L10.4151,18.3928 L10.4261,18.3928 L10.4261,18.3818 L10.4361,18.3818 L10.4471,18.3818 L10.4581,18.3718 C10.4581,18.3718 10.4691,18.3718 10.4791,18.3608 L10.5001,18.3608 L10.5001,18.3498 L10.5111,18.3498 C10.5221,18.3498 10.5331,18.3498 10.5431,18.3388 C10.5431,18.3388 10.5541,18.3288 10.5651,18.3288 L10.5761,18.3288 C10.5861,18.3178 10.5971,18.3178 10.6181,18.3078 L10.6401,18.3078 L10.6401,18.2968 C10.6501,18.2968 10.6721,18.2968 10.6931,18.2858 L10.7041,18.2748 L10.7251,18.2748 L10.7361,18.2648 C10.7471,18.2648 10.7681,18.2648 10.7781,18.2538 C10.8001,18.2428 10.8211,18.2428 10.8321,18.2328 L10.8431,18.2328 C10.8531,18.2328 10.8531,18.2218 10.8641,18.2218 C10.8741,18.2218 10.8961,18.2218 10.9071,18.2118 C10.9281,18.2008 10.9491,18.2008 10.9711,18.1898 C10.9921,18.1788 11.0131,18.1788 11.0351,18.1688 C11.0671,18.1578 11.0991,18.1578 11.1311,18.1478 C11.1741,18.1368 11.2061,18.1258 11.2381,18.1148 C11.2701,18.1148 11.2911,18.1048 11.3231,18.1048 L11.3341,18.0938 C11.3551,18.0938 11.3871,18.0828 11.4191,18.0828 C11.4411,18.0718 11.4731,18.0718 11.4941,18.0618 C11.5161,18.0618 11.5371,18.0618 11.5471,18.0508 L11.5801,18.0508 C11.6541,18.0408 11.7181,18.0298 11.7931,18.0188 L11.8041,18.0188 C11.8471,18.0078 11.9001,18.0078 11.9431,17.9978 L12.0281,17.9978 L12.0501,17.9978 L12.0821,17.9978 C12.0921,17.9868 12.1031,17.9868 12.1141,17.9868 L12.2741,17.9868 C12.2851,17.9768 12.2851,17.9768 12.2951,17.9768 L12.4131,17.9768 L12.4341,17.9768 L12.4771,17.9768 C12.5191,17.9768 12.5731,17.9768 12.6161,17.9868 L12.7011,17.9868 C12.7651,17.9868 12.8401,17.9978 12.9041,17.9978 L12.9151,17.9978 L12.9361,17.9978 L13.0321,18.0078 C13.0641,18.0188 13.0971,18.0188 13.1181,18.0188 C13.1391,18.0298 13.1501,18.0298 13.1711,18.0298 L13.1821,18.0298 C13.2781,18.0508 13.3741,18.0618 13.4701,18.0828 C13.5021,18.0828 13.5451,18.0938 13.5771,18.1048 C13.6311,18.1148 13.6951,18.1258 13.7481,18.1478 L13.7591,18.1478 C13.8121,18.1578 13.8661,18.1788 13.9081,18.1898 C13.9621,18.2008 14.0041,18.2218 14.0581,18.2428 L14.0691,18.2428 C14.0691,18.2428 14.0791,18.2428 14.0901,18.2538 L14.1011,18.2538 L14.1111,18.2538 C14.1221,18.2648 14.1221,18.2648 14.1331,18.2648 C14.1441,18.2648 14.1651,18.2748 14.1751,18.2748 C14.1971,18.2858 14.2181,18.2858 14.2401,18.2968 C14.2501,18.2968 14.2501,18.3078 14.2611,18.3078 C14.3141,18.3288 14.3571,18.3388 14.4001,18.3608 C14.4111,18.3608 14.4111,18.3718 14.4211,18.3718 C14.4641,18.3928 14.4961,18.4038 14.5391,18.4248 L14.5491,18.4248 L14.5601,18.4248 C14.6131,18.4568 14.6671,18.4788 14.7091,18.4998 C14.7631,18.5208 14.8161,18.5528 14.8701,18.5858 C14.9021,18.6068 14.9231,18.6168 14.9551,18.6278 L14.9661,18.6388 C14.9871,18.6388 15.0091,18.6498 15.0301,18.6708 C15.0731,18.7028 15.1371,18.7348 15.1801,18.7558 C15.1801,18.7668 15.1901,18.7668 15.2011,18.7768 C15.2441,18.8098 15.2971,18.8418 15.3401,18.8738 C15.3511,18.8738 15.3511,18.8738 15.3611,18.8838 C15.3821,18.8948 15.4151,18.9168 15.4361,18.9378 C15.4471,18.9378 15.4471,18.9478 15.4571,18.9478 L15.4681,18.9588 C15.5211,18.9908 15.5751,19.0338 15.6281,19.0768 L15.6391,19.0868 C15.6491,19.0868 15.6491,19.0978 15.6601,19.1088 C15.6821,19.1188 15.6921,19.1298 15.7141,19.1508 C15.7351,19.1618 15.7671,19.1838 15.7891,19.2048 L15.7891,19.2148 L15.7991,19.2148 L15.7991,19.2258 L15.8101,19.2258 L15.8101,19.2368 L15.8201,19.2368 C15.8421,19.2578 15.8631,19.2688 15.8851,19.2908 C15.8851,19.2908 15.8851,19.3008 15.8951,19.3008 C15.9161,19.3218 15.9381,19.3438 15.9591,19.3548 L15.9591,19.3648 C15.9811,19.3758 15.9911,19.3968 16.0131,19.4078 L16.0231,19.4188 C16.0451,19.4398 16.0561,19.4508 16.0771,19.4718 C16.0871,19.4828 16.0871,19.4828 16.0981,19.4928 L16.2161,19.6108 C16.2161,19.6218 16.2271,19.6218 16.2271,19.6318 L16.2481,19.6528 L16.2581,19.6528 C16.2581,19.6638 16.2691,19.6638 16.2691,19.6748 L16.2901,19.6958 C16.3121,19.7178 16.3331,19.7388 16.3541,19.7708 C16.3651,19.7818 16.3651,19.7928 16.3761,19.7928 L16.3971,19.8138 C16.4081,19.8348 16.4291,19.8568 16.4401,19.8778 L16.4511,19.8778 L16.4511,19.8888 C16.4611,19.8988 16.4721,19.9098 16.4831,19.9208 C16.4941,19.9308 16.4941,19.9418 16.5041,19.9528 L16.5151,19.9738 C16.5251,19.9738 16.5251,19.9738 16.5361,19.9838 C16.5361,19.9948 16.5361,19.9948 16.5471,20.0058 L16.5791,20.0378 C16.5901,20.0598 16.6011,20.0698 16.6111,20.0808 L16.6221,20.0908 L16.6221,20.1018 C16.6221,20.1018 16.6321,20.1128 16.6321,20.1238 C16.6431,20.1448 16.6651,20.1558 16.6751,20.1768 C16.6751,20.1768 16.6861,20.1878 16.6861,20.1978 C16.6961,20.2088 16.6961,20.2198 16.7071,20.2308 C16.7181,20.2308 16.7181,20.2408 16.7281,20.2518 C16.7281,20.2518 16.7391,20.2618 16.7391,20.2728 C16.7391,20.2838 16.7501,20.2948 16.7611,20.3048 C16.7821,20.3368 16.8031,20.3798 16.8351,20.4118 L16.8351,20.4228 C16.8461,20.4328 16.8461,20.4438 16.8571,20.4438 C16.8781,20.4868 16.8991,20.5188 16.9211,20.5618 C16.9321,20.5718 16.9321,20.5828 16.9421,20.5938 C16.9631,20.6358 16.9741,20.6688 16.9961,20.6998 C17.0061,20.7108 17.0061,20.7218 17.0171,20.7328 L17.0171,20.7428 L17.0281,20.7428 C17.0381,20.7858 17.0601,20.8288 17.0811,20.8598 L17.0811,20.8708 C17.1021,20.9028 17.1131,20.9358 17.1231,20.9568 C17.1341,20.9668 17.1341,20.9778 17.1341,20.9778 C17.1451,20.9888 17.1451,20.9998 17.1561,21.0098 C17.1561,21.0208 17.1661,21.0418 17.1661,21.0528 C17.1881,21.0848 17.1991,21.1168 17.2091,21.1488 C17.2201,21.1598 17.2201,21.1698 17.2301,21.1808 L17.2301,21.1918 L17.2301,21.2028 C17.2411,21.2128 17.2411,21.2238 17.2411,21.2238 C17.2521,21.2448 17.2521,21.2558 17.2631,21.2768 C17.2631,21.2878 17.2731,21.3088 17.2841,21.3198 L17.2841,21.3308 C17.2841,21.3308 17.2841,21.3408 17.2941,21.3518 L17.2941,21.3628 C17.3051,21.3948 17.3161,21.4158 17.3271,21.4478 L17.3271,21.4588 L17.3371,21.4688 C17.3371,21.4798 17.3371,21.5018 17.3481,21.5118 C17.3591,21.5338 17.3591,21.5548 17.3701,21.5658 C17.3701,21.5868 17.3701,21.5978 17.3801,21.6078 C17.3801,21.6298 17.3911,21.6508 17.4011,21.6828 L17.4011,21.6938 C17.4121,21.7148 17.4121,21.7258 17.4231,21.7468 C17.4231,21.7688 17.4341,21.7898 17.4341,21.8118 C17.4441,21.8428 17.4551,21.8648 17.4551,21.8968 C17.4661,21.9068 17.4661,21.9288 17.4661,21.9398 C17.4761,21.9828 17.4871,22.0248 17.4981,22.0678 L17.4981,22.0788 C17.5081,22.1098 17.5081,22.1428 17.5191,22.1738 L17.5191,22.1958 L17.5301,22.2068 L17.5301,22.2168 L17.5301,22.2388 C17.5301,22.2498 17.5401,22.2708 17.5401,22.2808 C17.5511,22.3238 17.5511,22.3558 17.5511,22.3988 C17.5611,22.3988 17.5611,22.4098 17.5611,22.4208 C17.5611,22.4408 17.5721,22.4628 17.5721,22.4838 L17.5721,22.5158 C17.5721,22.5268 17.5721,22.5478 17.5831,22.5588 L17.5831,22.6228 L17.5831,22.6338 C17.5941,22.6978 17.5941,22.7618 17.6041,22.8258 L17.6041,22.8898 L17.6041,22.9008 L17.6041,22.9118 L17.6041,22.9648 C17.6151,23.0188 17.6151,23.0718 17.6151,23.1248 L17.6151,23.2538 L17.6151,23.2638 C17.6151,23.3068 17.6041,23.3388 17.6041,23.3818 L17.6041,23.4028 L17.6041,23.4238 C17.6041,23.4778 17.6041,23.5208 17.5941,23.5738 L17.5941,23.6488 L17.5831,23.6488 C17.5831,23.7338 17.5721,23.8198 17.5611,23.8948 C17.5611,23.9048 17.5611,23.9048 17.5511,23.9158 C17.5511,23.9588 17.5401,24.0008 17.5301,24.0438 L17.5301,24.0548 L17.5301,24.0658 C17.5301,24.0758 17.5301,24.0968 17.5191,24.1078 L17.5191,24.1188 L17.5191,24.1398 L17.5191,24.1508 C17.5081,24.1618 17.5081,24.1718 17.5081,24.1828 C17.5081,24.1928 17.5081,24.2038 17.4981,24.2148 L17.4981,24.2358 L17.4981,24.2468 L17.4981,24.2678 L17.4871,24.2788 L17.4871,24.2998 L17.4761,24.3108 L17.4761,24.3428 C17.4761,24.3538 17.4661,24.3638 17.4661,24.3748 L17.4661,24.3858 L17.4661,24.3968 C17.4551,24.4068 17.4551,24.4178 17.4551,24.4288 C17.4551,24.4288 17.4441,24.4388 17.4441,24.4498 L17.4441,24.4608 C17.4441,24.4708 17.4341,24.4928 17.4341,24.5038 C17.4231,24.5248 17.4231,24.5348 17.4231,24.5458 L17.4231,24.5568 C17.4121,24.5668 17.4121,24.5778 17.4121,24.5888 C17.4011,24.5998 17.4011,24.6098 17.4011,24.6208 C17.4011,24.6308 17.4011,24.6308 17.3911,24.6418 C17.3801,24.6738 17.3801,24.6958 17.3701,24.7168 C17.3591,24.7378 17.3591,24.7598 17.3481,24.7808 C17.3371,24.8018 17.3371,24.8238 17.3271,24.8448 C17.3271,24.8558 17.3161,24.8668 17.3161,24.8768 L17.3161,24.8878 C17.3051,24.8988 17.3051,24.9198 17.2941,24.9408 C17.2731,24.9948 17.2521,25.0478 17.2301,25.0908 C17.1991,25.1758 17.1661,25.2508 17.1341,25.3258 C17.1131,25.3788 17.0811,25.4328 17.0601,25.4758 C17.0491,25.4968 17.0491,25.5068 17.0381,25.5178 C17.0381,25.5288 17.0281,25.5398 17.0281,25.5498 C17.0281,25.5498 17.0171,25.5498 17.0171,25.5608 C16.9961,25.5928 16.9851,25.6358 16.9631,25.6678 C16.9421,25.6998 16.9211,25.7318 16.8991,25.7638 L16.8991,25.7748 C16.8991,25.7748 16.8991,25.7848 16.8891,25.7848 C16.8891,25.7958 16.8781,25.8068 16.8781,25.8168 C16.8671,25.8278 16.8571,25.8488 16.8461,25.8598 C16.8461,25.8708 16.8351,25.8708 16.8351,25.8808 C16.8251,25.8918 16.8251,25.9028 16.8141,25.9128 C16.8031,25.9128 16.8031,25.9238 16.8031,25.9238 C16.8031,25.9238 16.8031,25.9348 16.7921,25.9348 C16.7821,25.9558 16.7711,25.9778 16.7611,25.9878 L16.7611,25.9988 C16.7181,26.0628 16.6651,26.1268 16.6221,26.1908 C16.6221,26.2018 16.6111,26.2018 16.6111,26.2118 L16.6011,26.2228 C16.5791,26.2548 16.5581,26.2758 16.5471,26.2978 L16.5151,26.3298 C16.5151,26.3298 16.5151,26.3408 16.5041,26.3408 C16.4941,26.3618 16.4831,26.3728 16.4721,26.3938 L16.4611,26.3938 C16.4611,26.4048 16.4611,26.4048 16.4511,26.4158 L16.4401,26.4258 L16.4401,26.4368 C16.4181,26.4468 16.4081,26.4688 16.3871,26.4898 C16.3871,26.5008 16.3761,26.5118 16.3651,26.5118 L16.3651,26.5218 L16.3441,26.5438 C16.3231,26.5648 16.3121,26.5758 16.3011,26.5868 C16.2901,26.5968 16.2801,26.6078 16.2691,26.6288 L16.2581,26.6398 C16.2371,26.6608 16.2271,26.6718 16.2051,26.6928 C16.1621,26.7358 16.1301,26.7678 16.0981,26.8108 C16.0981,26.8108 16.0871,26.8108 16.0871,26.8208 C15.0831,27.8258 13.7591,28.3168 12.4451,28.3168 C11.1201,28.3168 9.7961,27.8148 8.7811,26.8108 C6.7721,24.7918 6.7621,21.5228 8.7701,19.5038 L8.7701,19.5038 Z M5.9501,15.4548 L15.1161,6.2998 L29.2911,20.4758 L20.1251,29.6418 L17.2631,26.7788 L17.2731,26.7678 C17.3161,26.7038 17.3591,26.6498 17.4011,26.5868 L17.4121,26.5758 C17.4121,26.5648 17.4231,26.5648 17.4231,26.5538 C17.4441,26.5218 17.4761,26.4798 17.4981,26.4368 C17.5191,26.4158 17.5301,26.4048 17.5401,26.3828 L17.5401,26.3728 C17.5831,26.3088 17.6151,26.2548 17.6581,26.1908 C17.6681,26.1798 17.6681,26.1588 17.6791,26.1488 C17.7111,26.0948 17.7431,26.0308 17.7751,25.9668 C17.7861,25.9558 17.7861,25.9448 17.7971,25.9348 C17.8291,25.8708 17.8611,25.8168 17.8821,25.7528 C17.8931,25.7418 17.8931,25.7418 17.8931,25.7318 C17.9141,25.6998 17.9251,25.6678 17.9461,25.6248 C17.9571,25.6038 17.9681,25.5708 17.9781,25.5398 C17.9891,25.5398 17.9891,25.5288 17.9891,25.5178 C17.9991,25.5178 17.9991,25.5068 17.9991,25.4968 C18.0211,25.4428 18.0531,25.3788 18.0751,25.3258 L18.0751,25.3038 C18.0851,25.3038 18.0851,25.3038 18.0851,25.2938 C18.0851,25.2938 18.0851,25.2828 18.0961,25.2728 C18.1171,25.2188 18.1391,25.1548 18.1601,25.0908 C18.1601,25.0798 18.1601,25.0688 18.1701,25.0688 L18.1701,25.0588 C18.1921,24.9948 18.2131,24.9308 18.2241,24.8558 C18.2351,24.8448 18.2351,24.8348 18.2461,24.8128 C18.2461,24.7918 18.2561,24.7598 18.2671,24.7278 C18.2771,24.6848 18.2881,24.6528 18.2991,24.6098 L18.2991,24.5888 C18.3101,24.5668 18.3101,24.5568 18.3101,24.5348 C18.3201,24.4928 18.3421,24.4388 18.3421,24.3968 C18.3521,24.3748 18.3521,24.3638 18.3521,24.3538 C18.3631,24.3328 18.3631,24.3108 18.3631,24.2898 C18.3731,24.2358 18.3841,24.1928 18.3951,24.1508 L18.3951,24.1078 C18.4061,24.0868 18.4061,24.0658 18.4061,24.0548 C18.4161,24.0008 18.4271,23.9478 18.4271,23.8948 L18.4271,23.8728 C18.4271,23.8728 18.4271,23.8618 18.4371,23.8618 C18.4371,23.7978 18.4481,23.7338 18.4481,23.6698 C18.4481,23.6588 18.4591,23.6378 18.4591,23.6278 C18.4591,23.5528 18.4701,23.4878 18.4701,23.4138 L18.4701,23.1468 C18.4701,22.9438 18.4591,22.7518 18.4371,22.5478 C18.4271,22.4308 18.4161,22.3028 18.3951,22.1848 L18.3951,22.1638 L18.3841,22.1528 L18.3841,22.1428 L18.3841,22.1318 C18.3841,22.1208 18.3841,22.0998 18.3731,22.0788 C18.3631,22.0038 18.3521,21.9178 18.3311,21.8538 L18.3311,21.8328 C18.3311,21.8218 18.3311,21.8118 18.3201,21.8008 C18.2991,21.6828 18.2671,21.5548 18.2241,21.4378 C18.2241,21.4048 18.2131,21.3628 18.1921,21.3308 C18.1921,21.3088 18.1811,21.2978 18.1811,21.2768 C18.1701,21.2558 18.1701,21.2338 18.1601,21.2238 C18.1491,21.1918 18.1391,21.1598 18.1281,21.1278 C18.1171,21.0738 18.0961,21.0208 18.0641,20.9778 C18.0641,20.9568 18.0531,20.9358 18.0421,20.9138 C18.0421,20.8928 18.0321,20.8598 18.0211,20.8388 C18.0101,20.8288 18.0101,20.8288 18.0101,20.8178 L17.9991,20.8068 C17.9991,20.7958 17.9891,20.7958 17.9891,20.7858 L17.9891,20.7748 C17.9781,20.7428 17.9681,20.7218 17.9571,20.6998 C17.9251,20.6258 17.8821,20.5508 17.8501,20.4758 C17.8291,20.4228 17.7971,20.3798 17.7751,20.3368 C17.7651,20.3158 17.7431,20.2838 17.7331,20.2618 L17.7221,20.2518 L17.7221,20.2408 C17.7221,20.2308 17.7111,20.2198 17.7111,20.2088 L17.7111,20.1978 C17.7011,20.1878 17.6901,20.1768 17.6901,20.1658 C17.6261,20.0598 17.5611,19.9628 17.4981,19.8668 C17.4661,19.8138 17.4341,19.7598 17.4011,19.7178 C17.4011,19.7068 17.3911,19.7068 17.3911,19.7068 C17.3911,19.7068 17.3911,19.6958 17.3801,19.6958 C17.3801,19.6858 17.3801,19.6858 17.3701,19.6748 C17.3591,19.6528 17.3371,19.6218 17.3161,19.5998 C17.3051,19.5888 17.3051,19.5788 17.2941,19.5788 C17.2941,19.5678 17.2841,19.5678 17.2841,19.5678 C17.2731,19.5568 17.2731,19.5568 17.2631,19.5468 C17.2521,19.5248 17.2411,19.5038 17.2201,19.4828 C17.2091,19.4618 17.1881,19.4398 17.1771,19.4188 C17.1661,19.3968 17.1451,19.3758 17.1231,19.3548 L17.0921,19.3218 C17.0811,19.2908 17.0601,19.2688 17.0281,19.2478 C17.0061,19.2258 16.9851,19.1938 16.9631,19.1728 C16.9631,19.1618 16.9531,19.1618 16.9421,19.1508 C16.9321,19.1188 16.9101,19.0978 16.8781,19.0768 C16.8781,19.0658 16.8671,19.0658 16.8671,19.0658 L16.8571,19.0548 C16.8461,19.0238 16.8351,19.0128 16.8141,18.9908 L16.7071,18.8838 C16.6431,18.8198 16.5791,18.7668 16.5151,18.7028 C16.5041,18.6918 16.4941,18.6818 16.4831,18.6708 L16.4721,18.6598 C16.4401,18.6278 16.4081,18.6068 16.3761,18.5858 C16.3651,18.5748 16.3541,18.5638 16.3331,18.5528 L16.3121,18.5318 L16.2801,18.4998 C16.2161,18.4458 16.1521,18.3928 16.0871,18.3498 C16.0661,18.3288 16.0561,18.3178 16.0341,18.3078 C15.9061,18.2008 15.7671,18.1048 15.6281,18.0188 C15.6181,18.0078 15.6071,18.0078 15.5961,18.0078 L15.5851,18.0078 L15.5851,17.9978 L15.5751,17.9978 L15.5531,17.9768 L15.5431,17.9768 C15.5431,17.9658 15.5321,17.9658 15.5321,17.9658 C15.5211,17.9548 15.5111,17.9548 15.5001,17.9438 C15.4891,17.9338 15.4681,17.9338 15.4571,17.9228 C15.3931,17.8908 15.3291,17.8478 15.2651,17.8158 C15.1801,17.7738 15.1051,17.7308 15.0191,17.6988 C14.9131,17.6448 14.8061,17.5918 14.6881,17.5488 C14.6241,17.5278 14.5601,17.4958 14.4961,17.4738 C14.4751,17.4628 14.4531,17.4628 14.4421,17.4528 C14.4001,17.4418 14.3681,17.4318 14.3351,17.4208 C14.1861,17.3668 14.0371,17.3248 13.8761,17.2928 C13.7911,17.2608 13.6951,17.2498 13.5991,17.2288 C13.4701,17.2068 13.3421,17.1858 13.2141,17.1748 C13.2031,17.1648 13.1821,17.1648 13.1711,17.1648 C13.1391,17.1538 13.1071,17.1538 13.0751,17.1538 C12.8721,17.1218 12.6591,17.1108 12.4451,17.1108 C12.3701,17.1108 12.2951,17.1218 12.2211,17.1218 L12.1781,17.1218 C12.1031,17.1218 12.0281,17.1318 11.9641,17.1318 C11.9541,17.1318 11.9321,17.1318 11.9211,17.1428 C11.8571,17.1428 11.7831,17.1538 11.7181,17.1648 L11.6971,17.1648 C11.6331,17.1648 11.5581,17.1748 11.4831,17.1958 L11.4411,17.1958 C11.4091,17.2068 11.3761,17.2068 11.3341,17.2178 C11.3021,17.2288 11.2701,17.2288 11.2381,17.2388 L11.1951,17.2388 C11.1311,17.2608 11.0671,17.2718 11.0031,17.2928 L10.9921,17.2928 L10.9811,17.2928 C10.9491,17.3028 10.9281,17.3028 10.8961,17.3138 C10.8531,17.3248 10.8111,17.3358 10.7781,17.3458 C10.7571,17.3568 10.7471,17.3568 10.7251,17.3568 C10.6611,17.3778 10.5971,17.3998 10.5331,17.4208 C10.5221,17.4318 10.5111,17.4318 10.5001,17.4318 C10.4361,17.4528 10.3731,17.4738 10.3191,17.4958 C10.3091,17.5058 10.2981,17.5058 10.2871,17.5168 C10.2441,17.5278 10.2121,17.5388 10.1801,17.5488 C10.1481,17.5698 10.1161,17.5808 10.0951,17.5918 C10.0841,17.5918 10.0731,17.6028 10.0631,17.6028 C10.0631,17.6028 10.0521,17.6028 10.0521,17.6128 C9.9881,17.6338 9.9351,17.6558 9.8711,17.6878 C9.8711,17.6878 9.8601,17.6878 9.8601,17.6988 L9.8381,17.6988 L9.8381,17.7098 C9.7741,17.7308 9.7101,17.7628 9.6571,17.7948 C9.6461,17.8058 9.6351,17.8058 9.6241,17.8158 C9.5931,17.8268 9.5611,17.8478 9.5401,17.8588 C9.5071,17.8798 9.4751,17.8908 9.4431,17.9118 C9.4331,17.9228 9.4221,17.9228 9.4111,17.9228 C9.4111,17.9338 9.4001,17.9338 9.4001,17.9338 C9.3361,17.9768 9.2831,18.0078 9.2191,18.0508 L9.2081,18.0508 C9.1551,18.0938 9.0911,18.1258 9.0371,18.1688 C9.0261,18.1788 9.0161,18.1788 8.9951,18.1898 C8.9411,18.2328 8.8881,18.2748 8.8241,18.3178 L8.8131,18.3288 L5.9501,15.4548 Z M3.5251,6.3108 L5.9711,3.8758 L11.1421,9.0458 L8.7061,11.4918 L3.5251,6.3108 Z M1.7411,6.8878 L1.1751,6.3328 C0.7581,5.9158 0.7581,5.2218 1.1751,4.8048 L4.4551,1.5248 C4.6581,1.3228 4.9351,1.2158 5.2241,1.2158 C5.5121,1.2158 5.7791,1.3228 5.9821,1.5248 L6.5381,2.0808 L1.7411,6.8878 Z M30.0071,27.8998 L27.5611,30.3578 L24.0991,26.8958 L26.5451,24.4388 L30.0071,27.8998 Z M46.1581,36.5638 L27.9131,36.5638 C27.0591,36.5638 26.3741,37.2578 26.3741,38.1128 C26.3741,40.3558 28.1911,42.1828 30.4451,42.1828 L31.7691,42.1828 C31.3101,42.5988 30.8401,42.9518 30.2521,43.2938 L30.2421,43.2508 L17.8721,43.2508 C16.2371,42.2468 14.8591,40.8468 13.8761,39.1908 C12.7971,37.3758 12.2311,35.2928 12.2311,33.1668 C12.2311,31.7888 12.4661,30.4428 12.9261,29.1608 C14.3461,29.0538 15.6711,28.4448 16.6961,27.4298 L17.7751,28.5088 L17.7971,28.5198 L19.6551,30.3888 C19.6871,30.4208 19.7301,30.4528 19.7621,30.4748 C19.8581,30.5388 19.9651,30.5708 20.0721,30.5818 C20.1361,30.5918 20.2001,30.5818 20.2541,30.5708 C20.3821,30.5488 20.4991,30.4848 20.5961,30.3888 L23.5011,27.4938 L26.9621,30.9558 L26.5561,31.3508 C26.3001,31.6178 26.3001,32.0338 26.5561,32.2908 L26.5991,32.3338 C26.8551,32.6008 27.2831,32.6008 27.5391,32.3338 L31.9941,27.8898 C32.2501,27.6328 32.2501,27.2058 31.9941,26.9498 L31.9511,26.9068 C31.6841,26.6498 31.2671,26.6498 31.0111,26.9068 L30.6051,27.3128 L27.1441,23.8518 L30.0391,20.9458 C30.0601,20.9358 30.0711,20.9138 30.0921,20.8928 C30.1031,20.8708 30.1241,20.8498 30.1351,20.8178 C30.1561,20.7958 30.1781,20.7648 30.1881,20.7328 C30.2851,20.4868 30.2421,20.1978 30.0391,20.0058 L15.5851,5.5528 C15.3181,5.2858 14.9021,5.2858 14.6451,5.5528 L11.7501,8.4368 L6.5801,3.2668 L7.5741,2.2738 C7.6271,2.2198 7.6481,2.1558 7.6481,2.0808 C7.6481,2.0168 7.6271,1.9528 7.5741,1.8998 L6.5911,0.9168 C6.5271,0.8418 6.4521,0.7778 6.3671,0.7238 C6.3451,0.7028 6.3131,0.6818 6.2921,0.6708 C6.2381,0.6288 6.1851,0.5958 6.1211,0.5748 C6.0671,0.5428 6.0141,0.5108 5.9501,0.4888 C5.8651,0.4578 5.7791,0.4248 5.6831,0.4038 C5.5981,0.3818 5.5011,0.3718 5.4051,0.3608 C5.3411,0.3508 5.2881,0.3508 5.2241,0.3508 C5.1601,0.3508 5.1061,0.3508 5.0421,0.3608 C5.0101,0.3608 4.9781,0.3608 4.9461,0.3718 C4.8821,0.3718 4.8281,0.3818 4.7751,0.4038 C4.7641,0.4038 4.7531,0.4038 4.7431,0.4148 C4.6891,0.4248 4.6361,0.4358 4.5821,0.4578 C4.5191,0.4788 4.4651,0.4998 4.4011,0.5318 C4.3801,0.5428 4.3481,0.5528 4.3151,0.5748 C4.1441,0.6598 3.9951,0.7778 3.8461,0.9168 L0.5661,4.1958 C0.2131,4.5488 0.0211,5.0078 0.0001,5.4778 L0.0001,5.5638 C0.0001,5.8198 0.0531,6.0658 0.1391,6.2998 C0.1821,6.3858 0.2241,6.4718 0.2671,6.5568 C0.3521,6.6958 0.4491,6.8238 0.5661,6.9408 L1.5491,7.9238 C1.5701,7.9458 1.6021,7.9668 1.6341,7.9778 C1.6661,7.9878 1.6981,7.9988 1.7411,7.9988 C1.7731,7.9988 1.8051,7.9878 1.8371,7.9778 C1.8691,7.9668 1.9011,7.9458 1.9231,7.9238 L2.9161,6.9198 L8.0971,12.1008 L5.8321,14.3548 L5.8001,14.3868 L5.2021,14.9848 C5.1811,15.0068 5.1601,15.0278 5.1491,15.0488 C5.1381,15.0708 5.1171,15.0918 5.1061,15.1128 C5.0851,15.1458 5.0631,15.1778 5.0531,15.2198 C5.0421,15.2418 5.0421,15.2528 5.0311,15.2738 L5.0311,15.2948 C5.0201,15.3268 5.0101,15.3588 5.0101,15.3908 L5.0101,15.4018 L5.0101,15.5198 C5.0201,15.6688 5.0851,15.8178 5.2021,15.9358 L8.1611,18.8948 C7.0291,20.0268 6.4091,21.5448 6.4091,23.1468 C6.4091,23.9368 6.5591,24.6958 6.8361,25.3998 C5.7361,27.8468 5.1811,30.4528 5.1811,33.1668 C5.1811,36.6708 6.1421,40.0888 7.9791,43.0578 C9.7001,45.8568 12.1241,48.1648 14.9981,49.7348 L10.9071,59.3058 L9.8381,59.3058 C8.0971,59.3058 6.6761,60.7268 6.6761,62.4678 L6.6761,64.1878 C6.6761,64.6368 7.0501,65.0008 7.4991,65.0008 L40.2721,65.0008 C40.7211,65.0008 41.0841,64.6368 41.0841,64.1878 L41.0841,62.4678 C41.0841,60.7268 39.6741,59.3058 37.9221,59.3058 L36.8751,59.3058 L32.9661,49.8518 C34.5471,49.0188 35.9891,47.9718 37.2601,46.7328 C38.5951,45.4298 39.7491,43.9028 40.6781,42.1828 L43.6261,42.1828 C45.8811,42.1828 47.7071,40.3558 47.7071,38.1128 C47.7071,37.2578 47.0131,36.5638 46.1581,36.5638 L46.1581,36.5638 Z" id="Fill-251" fill="#60411F" mask="url(#mask-6)"></path>
            </g>
            <path d="M24.8966,50.4812 C23.7646,50.4812 22.8346,49.5512 22.8346,48.4182 C22.8346,47.2762 23.7646,46.3462 24.8966,46.3462 C26.0396,46.3462 26.9686,47.2762 26.9686,48.4182 C26.9686,49.5512 26.0396,50.4812 24.8966,50.4812 L24.8966,50.4812 Z M30.6656,44.7652 L19.3316,44.7652 L12.8466,59.9562 L36.9466,59.9562 L30.6656,44.7652 Z" id="Fill-254" fill="#C9D748"></path>
            <path d="M47.8424,38.7624 C47.8424,40.5244 46.4004,41.9674 44.6264,41.9674 L31.4454,41.9674 C29.6714,41.9674 28.2294,40.5244 28.2294,38.7624 C28.2294,38.3884 28.5394,38.0784 28.9134,38.0784 L47.1584,38.0784 C47.5324,38.0784 47.8424,38.3884 47.8424,38.7624" id="Fill-256" fill="#6A9448"></path>
            <path d="M15.9234,26.2746 C15.5704,26.6276 15.1644,26.8946 14.7264,27.0656 C14.3204,27.2256 13.8824,27.3106 13.4444,27.3106 C13.0604,27.3106 12.6864,27.2466 12.3234,27.1286 C11.9174,26.9906 11.5434,26.7766 11.2014,26.4986 C11.1274,26.4346 11.0414,26.3596 10.9564,26.2746 C10.2724,25.5906 9.9304,24.6936 9.9304,23.7956 C9.9304,22.8996 10.2724,22.0016 10.9564,21.3176 C11.6184,20.6556 12.5054,20.2926 13.4444,20.2926 C14.2244,20.2926 14.9624,20.5486 15.5704,21.0076 C15.6884,21.1046 15.8054,21.2116 15.9234,21.3176 C17.2904,22.6856 17.2904,24.9066 15.9234,26.2746 M18.6044,23.6146 L18.6044,23.5616 L18.6044,23.5506 L18.6044,23.5396 L18.6044,23.4756 C18.5934,23.4116 18.5934,23.3476 18.5834,23.2836 L18.5834,23.2726 C18.5834,23.2406 18.5834,23.1976 18.5724,23.1656 L18.5724,23.1336 C18.5724,23.1126 18.5614,23.0906 18.5614,23.0696 C18.5614,23.0596 18.5614,23.0486 18.5514,23.0486 C18.5514,23.0056 18.5514,22.9736 18.5404,22.9306 C18.5404,22.9206 18.5294,22.8996 18.5294,22.8886 L18.5294,22.8666 C18.5194,22.8566 18.5194,22.8566 18.5194,22.8456 L18.5194,22.8236 C18.5084,22.7926 18.5084,22.7596 18.4974,22.7286 L18.4974,22.7176 C18.4864,22.6746 18.4764,22.6316 18.4654,22.5886 C18.4654,22.5786 18.4654,22.5566 18.4554,22.5466 C18.4554,22.5146 18.4444,22.4926 18.4334,22.4616 C18.4334,22.4396 18.4234,22.4186 18.4234,22.3966 C18.4124,22.3756 18.4124,22.3646 18.4014,22.3436 L18.4014,22.3326 C18.3904,22.3006 18.3804,22.2796 18.3804,22.2576 L18.3694,22.2476 C18.3694,22.2256 18.3594,22.2046 18.3484,22.1836 L18.3484,22.1616 C18.3374,22.1406 18.3374,22.1186 18.3264,22.1086 L18.3264,22.0976 C18.3164,22.0656 18.3054,22.0446 18.2944,22.0126 L18.2944,22.0016 C18.2844,21.9906 18.2844,21.9806 18.2844,21.9806 L18.2844,21.9696 C18.2734,21.9586 18.2624,21.9376 18.2624,21.9266 C18.2524,21.9056 18.2524,21.8946 18.2414,21.8736 C18.2414,21.8736 18.2414,21.8626 18.2304,21.8526 L18.2304,21.8416 L18.2304,21.8306 C18.2194,21.8196 18.2194,21.8096 18.2094,21.7986 C18.1984,21.7666 18.1884,21.7346 18.1664,21.7026 C18.1664,21.6916 18.1554,21.6706 18.1554,21.6596 C18.1454,21.6496 18.1454,21.6386 18.1344,21.6276 C18.1344,21.6276 18.1344,21.6166 18.1234,21.6066 C18.1134,21.5856 18.1024,21.5526 18.0814,21.5206 L18.0814,21.5096 C18.0704,21.4786 18.0484,21.4456 18.0274,21.4146 C18.0274,21.4036 18.0274,21.4036 18.0174,21.3926 L18.0174,21.3816 C18.0064,21.3716 18.0064,21.3606 17.9954,21.3496 C17.9744,21.3176 17.9634,21.2856 17.9424,21.2436 C17.9314,21.2326 17.9314,21.2216 17.9214,21.2116 C17.8994,21.1686 17.8784,21.1366 17.8574,21.0936 C17.8464,21.0936 17.8464,21.0826 17.8354,21.0726 L17.8354,21.0616 C17.8034,21.0296 17.7814,20.9866 17.7604,20.9546 C17.7504,20.9436 17.7394,20.9336 17.7394,20.9226 C17.7394,20.9116 17.7284,20.9006 17.7284,20.9006 C17.7174,20.8906 17.7174,20.8796 17.7074,20.8796 C17.6964,20.8696 17.6964,20.8586 17.6854,20.8476 C17.6854,20.8376 17.6754,20.8266 17.6754,20.8266 C17.6644,20.8056 17.6434,20.7946 17.6324,20.7736 C17.6324,20.7626 17.6214,20.7516 17.6214,20.7516 C17.6104,20.7516 17.6214,20.7406 17.6214,20.7406 L17.6104,20.7306 C17.6004,20.7196 17.5904,20.7096 17.5794,20.6876 L17.5474,20.6556 L17.5144,20.6236 L17.5044,20.6026 C17.4934,20.5916 17.4934,20.5806 17.4834,20.5696 C17.4724,20.5596 17.4614,20.5486 17.4504,20.5386 L17.4504,20.5276 L17.4404,20.5276 C17.4294,20.5056 17.4084,20.4846 17.3974,20.4636 L17.3764,20.4416 C17.3654,20.4416 17.3654,20.4316 17.3544,20.4206 C17.3334,20.3886 17.3124,20.3676 17.2904,20.3456 L17.2694,20.3246 C17.2584,20.3136 17.2584,20.3026 17.2484,20.3026 L17.2264,20.2816 C17.2264,20.2716 17.2154,20.2716 17.2154,20.2606 L17.0984,20.1426 C17.0874,20.1316 17.0874,20.1316 17.0774,20.1216 C17.0554,20.1006 17.0454,20.0896 17.0234,20.0676 L17.0124,20.0576 C16.9914,20.0466 16.9814,20.0246 16.9594,20.0146 L16.8954,19.9506 C16.8844,19.9506 16.8844,19.9406 16.8844,19.9406 C16.8634,19.9186 16.8414,19.9076 16.8204,19.8866 L16.8104,19.8866 L16.8104,19.8756 L16.7994,19.8756 L16.7994,19.8646 L16.7884,19.8646 L16.7884,19.8546 C16.7674,19.8336 16.7354,19.8116 16.7144,19.8006 C16.6924,19.7796 16.6814,19.7686 16.6604,19.7586 C16.6494,19.7476 16.6494,19.7366 16.6384,19.7366 L16.6284,19.7266 C16.5744,19.6836 16.5214,19.6406 16.4674,19.6086 L16.4574,19.5976 C16.4464,19.5976 16.4464,19.5876 16.4364,19.5876 C16.4144,19.5666 16.3824,19.5446 16.3614,19.5336 C16.3504,19.5236 16.3504,19.5236 16.3404,19.5236 C16.2974,19.4916 16.2434,19.4596 16.2014,19.4266 C16.1474,19.3956 16.0834,19.3526 16.0294,19.3206 C16.0084,19.2986 15.9874,19.2886 15.9654,19.2886 L15.9554,19.2776 C15.9234,19.2666 15.9024,19.2556 15.8694,19.2346 C15.7634,19.1816 15.6674,19.1286 15.5604,19.0856 L15.5494,19.0746 L15.5384,19.0746 C15.4004,19.0106 15.2714,18.9576 15.1324,18.9146 C15.1224,18.9146 15.1114,18.9036 15.1004,18.9036 C15.1004,18.9036 15.0904,18.8926 15.0904,18.9036 C15.0794,18.8926 15.0694,18.8926 15.0694,18.8926 L15.0584,18.8926 C14.9624,18.8506 14.8554,18.8176 14.7484,18.7966 C14.6944,18.7756 14.6314,18.7646 14.5774,18.7536 C14.5454,18.7436 14.5024,18.7326 14.4704,18.7326 C14.3744,18.7116 14.2784,18.7006 14.1824,18.6796 L14.1714,18.6796 C14.1504,18.6796 14.1394,18.6796 14.1174,18.6686 C14.0964,18.6686 14.0644,18.6686 14.0324,18.6576 L13.9364,18.6476 L13.9154,18.6476 L13.9044,18.6476 C13.8404,18.6476 13.7654,18.6366 13.7014,18.6366 L13.6154,18.6366 C13.5734,18.6266 13.5194,18.6266 13.4774,18.6266 L13.4344,18.6266 L13.4124,18.6266 L13.3484,18.6266 C13.3274,18.6266 13.3064,18.6266 13.2744,18.6366 L13.1564,18.6366 C13.1354,18.6366 13.1134,18.6366 13.0814,18.6476 L13.0494,18.6476 L13.0284,18.6476 C12.9534,18.6476 12.8794,18.6576 12.8044,18.6686 L12.7934,18.6686 C12.7184,18.6796 12.6544,18.6906 12.5794,18.7006 L12.5474,18.7006 C12.5374,18.7116 12.5154,18.7116 12.4944,18.7116 C12.4724,18.7216 12.4414,18.7216 12.4194,18.7326 C12.3874,18.7326 12.3554,18.7436 12.3344,18.7436 L12.3234,18.7536 C12.2594,18.7646 12.1954,18.7756 12.1314,18.7966 C12.0994,18.8076 12.0674,18.8076 12.0344,18.8176 C12.0134,18.8286 11.9924,18.8286 11.9704,18.8396 C11.9494,18.8506 11.9284,18.8506 11.9064,18.8606 C11.8964,18.8716 11.8744,18.8716 11.8634,18.8716 C11.8534,18.8716 11.8534,18.8826 11.8424,18.8826 L11.8324,18.8826 C11.8214,18.8926 11.7994,18.8926 11.7784,18.9036 C11.7674,18.9146 11.7464,18.9146 11.7364,18.9146 L11.7254,18.9246 L11.7034,18.9246 L11.6934,18.9356 C11.6724,18.9356 11.6504,18.9466 11.6394,18.9576 L11.6184,18.9576 C11.5964,18.9676 11.5864,18.9676 11.5754,18.9786 L11.5654,18.9786 C11.5544,18.9786 11.5434,18.9886 11.5434,18.9886 C11.5324,18.9996 11.5224,18.9996 11.5114,18.9996 C11.5004,18.9996 11.5004,18.9996 11.5004,19.0106 C11.4794,19.0106 11.4684,19.0216 11.4584,19.0216 L11.4474,19.0316 L11.4364,19.0316 C11.4254,19.0316 11.4254,19.0426 11.4254,19.0426 L11.4154,19.0426 L11.4044,19.0426 C11.3944,19.0426 11.3944,19.0536 11.3834,19.0536 C11.3404,19.0746 11.3084,19.0856 11.2654,19.1066 C11.2444,19.1176 11.2124,19.1286 11.1914,19.1386 C11.1694,19.1496 11.1484,19.1596 11.1274,19.1706 C11.0844,19.1916 11.0524,19.2136 11.0204,19.2346 C10.9874,19.2456 10.9454,19.2666 10.9134,19.2886 C10.8704,19.3096 10.8384,19.3316 10.7854,19.3626 C10.7424,19.3846 10.6994,19.4166 10.6564,19.4486 C10.6354,19.4596 10.6144,19.4696 10.6034,19.4806 C10.5924,19.4916 10.5824,19.4916 10.5714,19.5016 C10.5184,19.5336 10.4754,19.5556 10.4324,19.5976 C10.4114,19.6086 10.4004,19.6196 10.3894,19.6196 L10.3794,19.6296 C10.3584,19.6406 10.3474,19.6626 10.3254,19.6726 C10.1974,19.7686 10.0804,19.8646 9.9624,19.9716 L9.8774,20.0576 C9.8664,20.0676 9.8664,20.0676 9.8554,20.0676 C9.8344,20.0896 9.8134,20.1216 9.7804,20.1426 C9.7804,20.1426 9.7804,20.1536 9.7704,20.1536 C7.7614,22.1726 7.7724,25.4416 9.7804,27.4606 C10.7964,28.4646 12.1204,28.9666 13.4444,28.9666 C14.7584,28.9666 16.0834,28.4756 17.0874,27.4706 C17.0874,27.4606 17.0984,27.4606 17.0984,27.4606 C17.1304,27.4176 17.1624,27.3856 17.2054,27.3426 C17.2264,27.3216 17.2374,27.3106 17.2584,27.2896 L17.2584,27.2786 L17.2694,27.2786 C17.2794,27.2576 17.2904,27.2466 17.3014,27.2356 C17.3124,27.2256 17.3224,27.2146 17.3434,27.1926 L17.3654,27.1716 L17.3654,27.1616 C17.3764,27.1616 17.3864,27.1506 17.3864,27.1396 C17.4084,27.1186 17.4184,27.0966 17.4404,27.0866 L17.4404,27.0756 L17.4504,27.0656 C17.4614,27.0546 17.4614,27.0546 17.4614,27.0436 L17.4724,27.0436 C17.4834,27.0226 17.4934,27.0116 17.5044,26.9906 C17.5144,26.9906 17.5144,26.9796 17.5144,26.9796 L17.5474,26.9476 C17.5574,26.9256 17.5794,26.9046 17.6004,26.8726 L17.6104,26.8616 C17.6104,26.8516 17.6214,26.8516 17.6214,26.8406 C17.6644,26.7766 17.7174,26.7126 17.7604,26.6486 L17.7604,26.6376 C17.7714,26.6276 17.7814,26.6056 17.7924,26.5846 C17.8034,26.5846 17.8034,26.5736 17.8034,26.5736 C17.8144,26.5736 17.8034,26.5626 17.8034,26.5626 L17.8144,26.5626 C17.8244,26.5526 17.8244,26.5416 17.8354,26.5306 C17.8354,26.5206 17.8464,26.5206 17.8464,26.5096 C17.8574,26.4876 17.8674,26.4666 17.8784,26.4456 C17.8884,26.4456 17.8884,26.4346 17.8884,26.4346 L17.8994,26.4236 L17.8994,26.4136 C17.9214,26.3816 17.9424,26.3496 17.9634,26.3166 C17.9854,26.2856 17.9954,26.2426 18.0174,26.2106 C18.0174,26.1996 18.0174,26.1896 18.0274,26.1786 C18.0384,26.1786 18.0384,26.1786 18.0384,26.1676 C18.0484,26.1566 18.0484,26.1466 18.0594,26.1256 C18.0814,26.0826 18.1134,26.0286 18.1344,25.9756 C18.1664,25.9006 18.1984,25.8256 18.2304,25.7406 C18.2524,25.6976 18.2734,25.6446 18.2944,25.5906 C18.3054,25.5696 18.3054,25.5476 18.3164,25.5376 L18.3164,25.5266 C18.3164,25.5166 18.3264,25.5056 18.3264,25.4946 C18.3374,25.4736 18.3374,25.4516 18.3484,25.4306 C18.3594,25.4096 18.3594,25.3876 18.3694,25.3666 C18.3804,25.3456 18.3804,25.3236 18.3904,25.2916 C18.4014,25.2806 18.4014,25.2806 18.4014,25.2706 L18.4014,25.2496 C18.4124,25.2276 18.4124,25.2166 18.4234,25.1956 C18.4234,25.1846 18.4234,25.1736 18.4334,25.1526 C18.4334,25.1426 18.4444,25.1206 18.4444,25.1096 L18.4444,25.0996 C18.4444,25.0886 18.4554,25.0786 18.4554,25.0786 L18.4554,25.0566 C18.4554,25.0456 18.4554,25.0456 18.4654,25.0456 L18.4654,25.0356 L18.4654,25.0246 C18.4654,25.0136 18.4764,25.0036 18.4764,24.9926 L18.4764,24.9606 L18.4864,24.9496 L18.4864,24.9286 L18.4974,24.9176 L18.4974,24.8966 L18.4974,24.8856 L18.4974,24.8646 C18.5084,24.8536 18.5084,24.8426 18.5084,24.8326 L18.5084,24.8116 C18.5084,24.8116 18.5194,24.8006 18.5194,24.7896 L18.5194,24.7686 L18.5194,24.7576 C18.5294,24.7466 18.5294,24.7256 18.5294,24.7146 L18.5294,24.7046 L18.5294,24.6936 C18.5404,24.6506 18.5514,24.6076 18.5514,24.5656 C18.5614,24.5546 18.5614,24.5546 18.5614,24.5446 C18.5724,24.4696 18.5834,24.3836 18.5834,24.2976 L18.5934,24.2976 L18.5934,24.2236 C18.6044,24.1706 18.6044,24.1276 18.6044,24.0736 L18.6044,24.0526 L18.6044,24.0316 C18.6044,23.9886 18.6154,23.9566 18.6154,23.9136 L18.6154,23.9026 L18.6154,23.7746 C18.6154,23.7216 18.6154,23.6686 18.6044,23.6146" id="Fill-258" fill="#6A9448"></path>
            <polygon id="Fill-260" fill="#6A9448" points="31.0069 28.55 28.5609 31.007 25.0989 27.546 27.5459 25.089"></polygon>
            <polygon id="Fill-262" fill="#6A9448" points="12.1417 9.6955 9.7057 12.1415 4.5247 6.9605 6.9717 4.5255"></polygon>
            <path d="M19.3995,24.7541 C19.4025,24.7361 19.4045,24.7171 19.4075,24.6991 C19.4045,24.7171 19.4025,24.7361 19.3995,24.7541 L19.3925,24.7981 C19.3845,24.8441 19.3765,24.8891 19.3675,24.9341 C19.3765,24.8891 19.3845,24.8441 19.3925,24.7991 C19.3945,24.7841 19.3975,24.7691 19.3995,24.7541" id="Fill-264" fill="#60411F"></path>
            <path d="M10.8727,18.3371 C10.9307,18.3101 10.9887,18.2831 11.0477,18.2571 C11.0537,18.2551 11.0587,18.2531 11.0637,18.2511 C11.0587,18.2531 11.0527,18.2551 11.0477,18.2571 C10.9887,18.2831 10.9307,18.3091 10.8727,18.3371" id="Fill-266" fill="#60411F"></path>
            <path d="M18.4977,22.7155 C18.4977,22.7175 18.4987,22.7195 18.4987,22.7215 C18.4987,22.7195 18.4977,22.7175 18.4977,22.7155" id="Fill-268" fill="#60411F"></path>
            <path d="M18.4122,25.2385 C18.4012,25.2495 18.4012,25.2595 18.4012,25.2705 L18.4012,25.2495 L18.4122,25.2385 Z" id="Fill-270" fill="#60411F"></path>
            <path d="M18.5299,24.715 L18.5299,24.747 C18.5189,24.747 18.5189,24.757 18.5189,24.757 C18.5299,24.747 18.5299,24.726 18.5299,24.715" id="Fill-272" fill="#60411F"></path>
            <path d="M17.7613,26.6432 C17.7613,26.6442 17.7603,26.6452 17.7603,26.6452 C17.7603,26.6462 17.7593,26.6462 17.7593,26.6462 L17.7613,26.6442 C17.7613,26.6442 17.7613,26.6432 17.7613,26.6432 Z" id="Fill-274" fill="#60411F"></path>
            <path d="M16.1788,19.4108 C16.1848,19.4148 16.1908,19.4178 16.1968,19.4218 C16.1908,19.4178 16.1848,19.4148 16.1788,19.4108" id="Fill-276" fill="#60411F"></path>
            <path d="M16.6388,19.737 C16.6498,19.737 16.6498,19.748 16.6598,19.748 L16.6598,19.758 C16.6498,19.748 16.6498,19.737 16.6388,19.737" id="Fill-278" fill="#60411F"></path>
            <path d="M14.5772,18.7541 C14.5452,18.7431 14.5022,18.7331 14.4702,18.7331 C14.4922,18.7331 14.5242,18.7431 14.5452,18.7431 C14.5562,18.7431 14.5662,18.7541 14.5772,18.7541" id="Fill-280" fill="#60411F"></path>
            <path d="M18.2916,22.0036 L18.2916,22.0036 C18.2916,22.0026 18.2916,22.0016 18.2906,22.0006 C18.2916,22.0016 18.2916,22.0026 18.2916,22.0036" id="Fill-282" fill="#60411F"></path>
            <path d="M17.7398,20.9235 L17.7398,20.9235 C17.7388,20.9215 17.7378,20.9205 17.7368,20.9185 C17.7378,20.9205 17.7388,20.9215 17.7398,20.9235" id="Fill-284" fill="#60411F"></path>
            <path d="M18.0147,21.383 C18.0147,21.383 18.0147,21.384 18.0157,21.385 C18.0147,21.384 18.0147,21.383 18.0147,21.383 Z" id="Fill-286" fill="#60411F"></path>
            <g id="Group-290" transform="translate(0.000000, 64.649700)">
                <mask id="mask-8" fill="white">
                    <use xlink:href="#path-7"></use>
                </mask>
                <g id="Clip-289"></g>
                <path d="" id="Fill-288" fill="#60411F" mask="url(#mask-8)"></path>
            </g>
            <path d="M12.9454,18.6515 C12.8974,18.6555 12.8484,18.6625 12.7994,18.6685 C12.8484,18.6625 12.8974,18.6555 12.9454,18.6515" id="Fill-291" fill="#60411F"></path>
            <path d="M18.5782,23.2057 C18.5802,23.2287 18.5832,23.2527 18.5862,23.2767 C18.5832,23.2527 18.5802,23.2287 18.5782,23.2057" id="Fill-293" fill="#60411F"></path>
            <path d="M18.5953,24.2219 C18.5953,24.2239 18.5953,24.2259 18.5953,24.2279 C18.5953,24.2259 18.5953,24.2239 18.5953,24.2219" id="Fill-295" fill="#60411F"></path>
            <path d="M18.3331,22.1188 C18.3381,22.1328 18.3431,22.1478 18.3471,22.1618 C18.3431,22.1478 18.3381,22.1328 18.3331,22.1188" id="Fill-297" fill="#60411F"></path>
            <path d="M18.2906,22.0007 C18.2906,22.0017 18.2906,22.0017 18.2916,22.0027 L18.2916,22.0037 C18.2916,22.0027 18.2906,22.0017 18.2906,22.0007" id="Fill-299" fill="#60411F"></path>
            <path d="M18.5299,22.8561 L18.5299,22.8671 C18.5189,22.8561 18.5189,22.8561 18.5189,22.8451 L18.5299,22.8561 Z" id="Fill-301" fill="#60411F"></path>
            <path d="M18.6119,23.7722 L18.6119,23.7772 L18.6119,23.7722 Z" id="Fill-303" fill="#60411F"></path>
            <path d="M18.4083,25.2404 C18.4083,25.2404 18.4083,25.2414 18.4083,25.2414 C18.4113,25.2274 18.4163,25.2144 18.4203,25.2004 C18.4193,25.2034 18.4183,25.2054 18.4183,25.2074 C18.4143,25.2194 18.4113,25.2294 18.4083,25.2404" id="Fill-305" fill="#60411F"></path>
            <path d="M18.4068,25.2448 C18.4068,25.2438 18.4078,25.2428 18.4078,25.2418 C18.4078,25.2418 18.4078,25.2408 18.4078,25.2408 L18.4068,25.2448 Z" id="Fill-307" fill="#60411F"></path>
            <g id="Group-311" transform="translate(0.000000, 64.649700)">
                <mask id="mask-10" fill="white">
                    <use xlink:href="#path-9"></use>
                </mask>
                <g id="Clip-310"></g>
                <path d="" id="Fill-309" fill="#6A9448" mask="url(#mask-10)"></path>
            </g>
            <path d="M9.9659,19.9704 C10.0039,19.9354 10.0419,19.9014 10.0809,19.8674 C10.0419,19.9014 10.0039,19.9354 9.9659,19.9704" id="Fill-312" fill="#6A9448"></path>
            <path d="M17.8746,26.4636 C17.8656,26.4786 17.8556,26.4936 17.8466,26.5086 C17.8556,26.4936 17.8656,26.4786 17.8746,26.4636" id="Fill-314" fill="#60411F"></path>
            <path d="M18.025,26.1955 L18.019,26.2075 L18.025,26.1955 Z" id="Fill-316" fill="#60411F"></path>
            <path d="M17.8936,26.4313 L17.8966,26.4273 L17.8936,26.4313 Z" id="Fill-318" fill="#60411F"></path>
            <path d="M13.4405,17.7658 L13.4405,17.7658 C13.8355,17.7658 14.2245,17.8038 14.6025,17.8778 C14.2245,17.8038 13.8355,17.7658 13.4405,17.7658 Z" id="Fill-320" fill="#60411F"></path>
            <path d="M14.8795,17.9372 C14.7885,17.9152 14.6955,17.8952 14.6025,17.8772 C14.6955,17.8952 14.7885,17.9152 14.8795,17.9372" id="Fill-322" fill="#60411F"></path>
            <path d="M17.7594,26.6462 L17.7604,26.6452 L17.7594,26.6462 Z" id="Fill-324" fill="#60411F"></path>
            <path d="M17.4835,19.32 C17.4805,19.317 17.4775,19.314 17.4735,19.311 C17.4775,19.314 17.4805,19.317 17.4835,19.32" id="Fill-326" fill="#60411F"></path>
            <path d="M17.5196,19.3537 C17.5836,19.4117 17.6456,19.4717 17.7076,19.5327 C17.7436,19.5687 17.7776,19.6047 17.8126,19.6407 C17.7776,19.6037 17.7426,19.5687 17.7066,19.5327 C17.6456,19.4717 17.5826,19.4117 17.5196,19.3537" id="Fill-328" fill="#60411F"></path>
            <path d="M24.8966,49.6159 C24.2336,49.6159 23.6996,49.0819 23.6996,48.4189 C23.6996,47.7459 24.2336,47.2119 24.8966,47.2119 C25.5696,47.2119 26.1036,47.7459 26.1036,48.4189 C26.1036,49.0819 25.5696,49.6159 24.8966,49.6159 M24.8966,46.3459 C23.7646,46.3459 22.8346,47.2759 22.8346,48.4189 C22.8346,49.5519 23.7646,50.4809 24.8966,50.4809 C26.0396,50.4809 26.9686,49.5519 26.9686,48.4189 C26.9686,47.2759 26.0396,46.3459 24.8966,46.3459" id="Fill-330" fill="#60411F"></path>
            <g id="Group-334" transform="translate(34.000000, 15.649700)">
                <mask id="mask-12" fill="white">
                    <use xlink:href="#path-11"></use>
                </mask>
                <g id="Clip-333"></g>
                <path d="M5.4078,20.7455 C4.7518,20.0885 4.5428,19.1345 4.8398,18.3175 C5.6078,16.2945 7.4348,15.6735 7.8768,14.4795 C8.3068,13.3165 7.1418,12.9015 7.0788,12.8805 C9.7518,13.3225 9.5648,15.5675 9.4528,16.1995 C9.3008,17.0555 9.5368,18.1815 10.2888,18.1335 C11.0418,18.0855 11.0168,17.0825 11.0168,17.0825 C11.3638,17.5485 11.6278,18.3175 11.6278,18.3175 C11.8848,19.0785 11.7428,19.9455 11.2008,20.5915 L14.0538,17.7375 L14.1948,17.5975 C15.5828,16.2085 16.0238,14.1935 15.3948,12.4665 C13.7718,8.1905 9.9098,6.8785 8.9758,4.3535 C8.0418,1.8305 10.6668,0.9725 10.6668,0.9725 C5.0128,1.9065 5.4078,6.6545 5.6448,7.9885 C5.9668,9.7985 5.4678,12.1785 3.8768,12.0775 C2.2878,11.9765 2.3378,9.8565 2.3378,9.8565 C1.6058,10.8405 1.0478,12.4665 1.0478,12.4665 C0.4588,14.2075 0.8588,16.2085 2.2468,17.5975 L2.3868,17.7375 L5.4078,20.7455 Z" id="Fill-332" fill="#F96841" mask="url(#mask-12)"></path>
            </g>
        </g>
    </g>
</svg>