<?xml version="1.0" encoding="UTF-8"?>
<svg width="77px" height="77px" viewBox="0 0 77 77" version="1.1" xmlns="http://www.w3.org/2000/svg" xmlns:xlink="http://www.w3.org/1999/xlink">
    <!-- Generator: Sketch 58 (84663) - https://sketch.com -->
    <title>Artboard</title>
    <desc>Created with Sketch.</desc>
    <defs>
        <polygon id="path-1" points="0.0003 0.576278097 58.2993 0.576278097 58.2993 59 0.0003 59"></polygon>
    </defs>
    <g id="Artboard" stroke="none" stroke-width="1" fill="none" fill-rule="evenodd">
        <g id="Group-30" transform="translate(9.000000, 9.000000)">
            <polygon id="Path-2" fill="#FFFFFF" points="1.3293457 5.38989258 16.326416 2.19213867 38.9003 10.699 57.4972 3.249 57.4972 51.3487 39.4003 58.276123 16.326416 50.0787 0.969482422 53.7495"></polygon>
            <path d="M26.497,53.7495 L25.997,53.6495 C25.997,53.6495 26.697,49.1495 31.397,47.9495 C34.598,47.1495 38.098,37.9495 40.298,32.4505 C41.197,30.2495 41.798,28.5495 42.298,27.8505 C43.697,25.6495 46.298,25.3505 49.798,24.9505 C50.397,24.8505 51.098,24.8505 51.798,24.7495 C56.098,24.2495 56.497,19.9505 56.497,19.8505 L56.997,19.8505 C56.997,19.8505 56.497,24.6495 51.798,25.1495 C51.098,25.2495 50.397,25.3505 49.798,25.3505 C46.397,25.6495 43.897,25.9505 42.697,27.9505 C42.298,28.6495 41.598,30.3505 40.798,32.4505 C38.497,38.3505 34.997,47.3505 31.598,48.2495 C27.098,49.5505 26.497,53.6495 26.497,53.7495" id="Fill-1" fill="#6A9448"></path>
            <path d="M29.1972,55.4496 L28.6972,55.3496 C28.6972,55.3496 29.3972,51.0506 33.6972,49.9496 C36.5972,49.1496 39.8972,40.4496 41.8972,35.1496 C42.6972,33.0496 43.2982,31.4496 43.6972,30.7496 C44.9972,28.5496 47.3972,28.3496 50.6972,28.0496 C51.2982,27.9496 51.8972,27.9496 52.5972,27.8496 C56.4972,27.3496 56.9972,23.3496 56.9972,23.2496 L57.4972,23.2496 C57.4972,23.2496 56.9972,27.8496 52.6972,28.3496 C51.9972,28.4496 51.3972,28.4496 50.7982,28.5496 C47.5972,28.8496 45.3972,29.1496 44.1972,31.0496 C43.7982,31.6496 43.1972,33.3496 42.3972,35.3496 C40.2982,41.0506 36.9972,49.5506 33.7982,50.4496 C29.7982,51.4496 29.1972,55.2496 29.1972,55.4496" id="Fill-3" fill="#6A9448"></path>
            <path d="M18.497,50.9496 L17.997,50.8496 C17.997,50.7496 18.897,45.2496 24.697,43.7496 C28.697,42.7496 33.197,31.1496 35.897,24.2496 C36.997,21.4496 37.798,19.3496 38.397,18.4496 C40.098,15.6496 43.298,15.3496 47.798,14.8496 C48.598,14.7496 49.497,14.6496 50.298,14.5496 C55.697,13.9496 56.298,8.4496 56.298,8.3496 L56.798,8.3496 C56.798,8.4496 56.098,14.2496 50.298,14.9496 C49.397,15.0496 48.598,15.1496 47.697,15.2496 C43.397,15.6496 40.298,15.9496 38.697,18.5496 C38.197,19.4496 37.298,21.5496 36.298,24.2496 C33.397,31.6496 28.997,42.9496 24.697,44.0506 C19.298,45.6496 18.497,50.8496 18.497,50.9496" id="Fill-5" fill="#6A9448"></path>
            <path d="M12.2978,50.6498 L11.7978,50.5498 C11.7978,50.4498 12.5978,44.9498 17.3978,43.4498 C20.6968,42.4498 24.4968,30.8498 26.7978,23.9498 C27.6968,21.1498 28.3978,19.0498 28.8978,18.1498 C30.2978,15.3498 33.0978,15.0498 36.7978,14.5498 C37.4968,14.4498 38.1968,14.3498 38.8978,14.2498 C43.3978,13.6498 43.8978,8.1498 43.8978,8.0498 L44.3978,8.0498 C44.3978,8.1498 43.8978,13.9498 38.9968,14.6498 C38.2978,14.7498 37.4968,14.8498 36.8978,14.9498 C33.2978,15.3498 30.6968,15.6498 29.3978,18.2498 C28.9968,19.1498 28.2978,21.2498 27.3978,23.9498 C24.9968,31.3498 21.2978,42.6498 17.6968,43.7498 C12.9968,45.4498 12.2978,50.6498 12.2978,50.6498" id="Fill-7" fill="#6A9448"></path>
            <path d="M13.8974,29.102 C14.0474,29.082 14.1504,29.303 14.2804,29.243 C12.3704,37.313 10.4804,44.599 7.7994,45.748 C5.1004,46.719 4.1394,50.179 3.8304,51.878 C3.7304,52.449 3.7004,52.819 3.7004,52.849 L3.2004,52.849 C3.2004,52.809 3.2304,52.479 3.3104,51.989 C3.6204,50.259 4.6604,46.399 7.7004,45.149 C10.1504,44.109 12.0174,36.682 13.8374,29.112 L13.8474,29.112 C13.8774,29.102 13.8874,29.102 13.8974,29.102" id="Fill-9" fill="#6A9448"></path>
            <path d="M29.1005,6.749 C29.1005,6.829 29.0705,7.319 28.9505,8.009 C28.6295,9.919 27.6395,13.359 24.7005,13.949 C24.1005,14.049 23.4995,14.149 22.9995,14.249 C22.2705,14.379 21.5895,14.499 20.9595,14.649 C20.8505,14.499 20.7495,14.359 20.6395,14.209 C21.3605,14.029 22.1505,13.899 22.9995,13.749 C23.4995,13.649 24.1005,13.549 24.7005,13.449 C27.2705,12.939 28.1695,9.579 28.4595,7.819 C28.5705,7.179 28.6005,6.749 28.6005,6.749 L29.1005,6.749 Z" id="Fill-11" fill="#6A9448"></path>
            <path d="M8.8476,25.5927 C8.9376,25.6827 9.0286,25.7727 9.1186,25.8527 C7.4086,34.1227 6.0896,39.1087 4.2996,40.0487 C3.2896,40.5787 2.5796,41.6587 2.1006,42.8187 C1.2996,44.7487 1.1006,46.8887 1.1006,46.9487 L0.6006,46.9487 C0.6006,46.8087 0.8506,43.9587 2.1006,41.7787 C2.6106,40.8787 3.2896,40.0887 4.2006,39.6487 C5.9296,38.8187 7.3976,32.4327 8.8476,25.5927" id="Fill-13" fill="#6A9448"></path>
            <path d="M21.2997,3.249 C21.2997,3.319 21.2597,4.009 21.1007,4.939 C20.7797,6.799 19.9407,9.579 17.7997,10.049 C17.6997,10.069 17.6007,10.089 17.5097,10.109 C17.4297,9.969 17.3607,9.849 17.3107,9.739 C17.4497,9.709 17.5797,9.679 17.6997,9.649 C19.5897,9.239 20.3397,6.509 20.6197,4.749 C20.7707,3.899 20.7997,3.279 20.7997,3.249 L21.2997,3.249 Z" id="Fill-15" fill="#6A9448"></path>
            <path d="M1.0976,32.0497 L0.5976,32.0497 C0.5976,31.8497 0.7976,28.1497 2.1976,27.1497 C2.9966,26.4497 4.0976,18.2497 4.6976,13.7497 C4.8976,11.8497 5.0976,10.3497 5.2976,9.7497 C5.6976,7.7497 6.5976,7.4497 7.4966,7.1497 C7.6976,7.0497 7.8976,7.0497 8.0976,6.9497 C8.8976,6.6497 9.2976,4.2497 9.2976,2.7497 L9.7976,2.7497 C9.7976,3.1497 9.5976,6.8497 8.1976,7.3497 C7.9966,7.4497 7.7976,7.4497 7.5976,7.5497 C6.5976,7.8497 5.9966,8.0497 5.6976,9.7497 C5.5976,10.3497 5.3976,11.8497 5.1976,13.7497 C4.2976,20.8497 3.4966,26.7497 2.4966,27.4497 C1.4966,28.2497 1.1976,31.0497 1.0976,32.0497" id="Fill-17" fill="#6A9448"></path>
            <g id="Group-21" transform="translate(0.000000, 0.423800)">
                <mask id="mask-2" fill="white">
                    <use xlink:href="#path-1"></use>
                </mask>
                <g id="Clip-20"></g>
                <path d="M15.6503,29.7881 L15.6503,48.9251 L3.8303,51.4551 L3.3103,51.5651 L2.1003,51.8251 L2.1003,5.6251 L15.6503,2.7551 L15.6503,7.2211 C15.7103,7.2111 15.7603,7.2171 15.8203,7.2111 C16.1533,7.1781 16.4013,7.1121 16.6503,7.1001 L16.6503,2.7751 L20.6203,4.3251 L21.1003,4.5151 L28.4603,7.3951 L28.9503,7.5851 L38.4003,11.2851 L38.4003,30.5451 L39.4003,30.8151 L39.4003,11.3951 L56.2993,3.9451 L56.2993,50.5251 L39.4003,56.6851 L39.4003,50.9251 L38.4003,49.6551 L38.4003,56.6551 L17.3703,49.2851 L16.6503,49.0151 L16.6503,30.3891 M57.8393,1.5551 C57.5403,1.3551 57.1003,1.3451 56.7993,1.4451 L38.9003,9.4251 L16.6003,0.6251 C16.3793,0.5551 16.2003,0.5651 16.0003,0.6251 L0.7993,3.9251 C0.2993,4.0251 0.0003,4.4251 0.0003,4.9251 L0.0003,53.1241 C0.0003,53.7251 0.4003,54.1241 1.0003,54.1241 L1.2003,54.1241 L16.1503,50.9751 L38.6003,58.9251 C38.7993,59.0251 39.0003,59.0251 39.2993,58.9251 L57.6003,52.2251 C58.0003,52.1241 58.2993,51.7251 58.2993,51.3251 L58.2993,2.4451 C58.2003,2.0451 58.1393,1.7551 57.8393,1.5551" id="Fill-19" fill="#60411F" mask="url(#mask-2)"></path>
            </g>
            <polygon id="Fill-22" fill="#F96841" points="54.9003 31.2387 54.9003 49.6087 41.8303 54.4487 39.4003 51.3487 39.4003 31.2387 45.7993 29.8387"></polygon>
            <polygon id="Fill-24" fill="#60411F" points="39.4003 31.2387 39.4003 51.3487 38.4003 50.0787 38.4003 30.9687"></polygon>
            <polygon id="Fill-26" fill="#F96841" points="38.4003 30.9687 38.4003 50.0787 35.7003 46.6387 23.7993 37.6387 20.7003 33.3387 16.6503 30.0787 15.6503 29.2787 14.2803 28.1787 16.5803 28.1787"></polygon>
            <path d="M12.4384,28.0483 C11.7824,27.3913 11.5734,26.4373 11.8704,25.6203 C12.6384,23.5973 14.4654,22.9763 14.9074,21.7823 C15.3374,20.6193 14.1714,20.2043 14.1094,20.1833 C16.7824,20.6253 16.5954,22.8703 16.4834,23.5023 C16.3314,24.3583 16.5674,25.4843 17.3194,25.4363 C18.0724,25.3883 18.0474,24.3853 18.0474,24.3853 C18.3934,24.8513 18.6584,25.6203 18.6584,25.6203 C18.9154,26.3813 18.7734,27.2483 18.2314,27.8943 L21.0844,25.0403 L21.2244,24.9003 C22.6134,23.5113 23.0534,21.4963 22.4244,19.7693 C20.8014,15.4933 16.9404,14.1813 16.0054,11.6563 C15.0724,9.1333 17.6974,8.2753 17.6974,8.2753 C12.0424,9.2093 12.4374,13.9573 12.6744,15.2913 C12.9974,17.1013 12.4984,19.4813 10.9074,19.3803 C9.3184,19.2793 9.3684,17.1593 9.3684,17.1593 C8.6364,18.1433 8.0784,19.7693 8.0784,19.7693 C7.4894,21.5103 7.8884,23.5113 9.2764,24.9003 L9.4174,25.0403 L12.4384,28.0483 Z" id="Fill-28" fill="#F96841"></path>
        </g>
    </g>
</svg>