<?xml version="1.0" encoding="utf-8"?>
<!-- Generator: Adobe Illustrator 16.0.0, SVG Export Plug-In . SVG Version: 6.00 Build 0)  -->
<!DOCTYPE svg PUBLIC "-//W3C//DTD SVG 1.1//EN" "http://www.w3.org/Graphics/SVG/1.1/DTD/svg11.dtd">
<svg version="1.1" id="Layer_1" xmlns="http://www.w3.org/2000/svg" xmlns:xlink="http://www.w3.org/1999/xlink" x="0px" y="0px"
	 width="213px" height="213px" viewBox="0 0 213 213" enable-background="new 0 0 213 213" xml:space="preserve">
<path fill="#D8D9D8" d="M-92.344,200.827"/>
<path fill="none" d="M310.657,200.827"/>
<path fill="none" d="M-98.343,200.827"/>
<path fill="none" d="M-92.344,200.827"/>
<path fill="none" d="M310.657,200.827"/>
<path fill="none" d="M-98.343,200.827"/>
<path fill="none" d="M-92.343,200.827"/>
<polyline fill="none" points="-11,-11 -11,224 224,224 224,-11 "/>
<polyline fill="none" points="-11,-10.999 -11,224 224,224 224,-10.999 "/>
<polyline fill="none" points="-11,-10.999 -11,224 224,224 224,-10.999 "/>
<polyline fill="none" points="-11,-11.001 -11,224 224,224 224,-11.001 "/>
<g>
	<defs>
		<path id="SVGID_1_" d="M80.595,155.274l21.122-15.17l1.039-0.746v-1.279v-11.746h4.987v11.748v1.279l1.037,0.746l21.191,15.219
			l0.05,0.033c-1.494,0.844-2.606,2.279-2.972,4.006l-0.027-0.02l-15.334-11.012l-3.945-2.834v4.857v12.195v0.035
			c-0.763-0.348-1.604-0.553-2.496-0.553c-0.89,0-1.728,0.205-2.491,0.553v-0.035v-12.195v-4.857l-3.948,2.834l-15.039,10.799
			l-0.098,0.07C83.262,157.491,82.118,156.077,80.595,155.274 M119.193,77.681c0-8.938,7.272-16.215,16.214-16.215
			c8.942,0,16.217,7.277,16.217,16.215c0,8.945-7.274,16.216-16.217,16.216c-0.633,0-1.148,0.518-1.148,1.15
			c0,0.635,0.516,1.148,1.148,1.148c3.377,0,6.532-0.922,9.262-2.506v29.514c0,0.324-0.275,0.598-0.6,0.598H66.566
			c-0.324,0-0.598-0.273-0.598-0.598V72.05c0-0.323,0.274-0.596,0.598-0.596h51.433c-0.701,1.95-1.102,4.041-1.102,6.227
			c0,0.636,0.514,1.15,1.146,1.15C118.678,78.831,119.193,78.316,119.193,77.681 M119.088,68.958H66.566
			c-1.718,0-3.091,1.372-3.091,3.092v51.154c0,1.721,1.373,3.092,3.091,3.092h33.698v11.783l-21.149,15.186
			c-0.426-0.074-0.862-0.129-1.312-0.129c-4.127,0-7.473,3.346-7.473,7.473c0,4.129,3.346,7.475,7.473,7.475
			c3.941,0,7.134-3.057,7.421-6.924l15.04-10.803v12.195c-1.52,1.367-2.49,3.328-2.49,5.531c0,4.127,3.348,7.475,7.473,7.475
			c4.128,0,7.475-3.348,7.475-7.475c0-2.203-0.972-4.164-2.489-5.531v-12.195l15.337,11.016c0.386,3.764,3.53,6.711,7.397,6.711
			c4.129,0,7.475-3.346,7.475-7.475c0-4.127-3.346-7.473-7.475-7.473c-0.529,0-1.045,0.059-1.541,0.162l-21.193-15.217v-11.785
			h33.836c1.696,0,3.092-1.371,3.092-3.092V91.977c4.125-3.4,6.76-8.547,6.76-14.296c0-10.204-8.305-18.51-18.514-18.51
			C128.353,59.171,122.211,63.139,119.088,68.958"/>
	</defs>
	<clipPath id="SVGID_2_">
		<use xlink:href="#SVGID_1_"  overflow="visible"/>
	</clipPath>
	<rect x="58.476" y="54.171" clip-path="url(#SVGID_2_)" fill="#604220" width="100.444" height="126.386"/>
</g>
<rect x="88.447" y="98.039" transform="matrix(-0.5919 -0.806 0.806 -0.5919 57.7777 240.202)" fill="#F26943" width="2.494" height="14.872"/>
<polygon fill="#F26943" points="104.532,99.821 117.192,111.702 118.896,109.885 106.236,97.999 "/>
<rect x="127.115" y="89.232" transform="matrix(-0.97 -0.2433 0.2433 -0.97 229.1569 223.2529)" fill="#F26943" width="2.497" height="16.489"/>
<g>
	<defs>
		<path id="SVGID_3_" d="M77.257,108.747c0.396,3.221,0.925,3.924-0.706,4.416c-1.252,0.205-1.195-2.361-0.194-2.684
			c0,0-2.596,0.02-3.46,5.383c-0.336,5.381,6.35,4.518,6.35,4.518s-1.738-0.477-1.096-2.629c0.643-2.156,5.211-2.305,3.891-4.836
			c0,0,3.682,3.285-0.945,7.516c0,0,5.023,1.039,6.554-4.475c0.603-2.549-1.492-5.363-4.21-8.693
			c-2.719-3.328-3.365-4.602-2.721-6.188C80.72,101.075,76.475,102.54,77.257,108.747"/>
	</defs>
	<clipPath id="SVGID_4_">
		<use xlink:href="#SVGID_3_"  overflow="visible"/>
	</clipPath>
	<rect x="67.885" y="96.075" clip-path="url(#SVGID_4_)" fill="#F26943" width="24.87" height="29.434"/>
</g>
<g>
	<defs>
		<path id="SVGID_5_" d="M97.205,93.002c0.397,3.219,0.924,3.924-0.705,4.414c-1.254,0.209-1.195-2.361-0.194-2.682
			c0,0-2.598,0.02-3.46,5.381c-0.336,5.385,6.348,4.52,6.348,4.52s-1.736-0.477-1.095-2.629c0.642-2.152,5.213-2.305,3.89-4.834
			c0,0,3.683,3.285-0.945,7.512c0,0,5.023,1.043,6.554-4.471c0.605-2.551-1.489-5.367-4.208-8.693
			c-2.721-3.33-3.365-4.604-2.723-6.189C100.667,85.331,96.424,86.797,97.205,93.002"/>
	</defs>
	<clipPath id="SVGID_6_">
		<use xlink:href="#SVGID_5_"  overflow="visible"/>
	</clipPath>
	<rect x="87.833" y="80.331" clip-path="url(#SVGID_6_)" fill="#F26943" width="24.871" height="29.433"/>
</g>
<g>
	<defs>
		<path id="SVGID_7_" d="M120.627,105.299c0.399,3.221,0.926,3.926-0.703,4.414c-1.252,0.207-1.194-2.361-0.193-2.684
			c0,0-2.598,0.02-3.461,5.383c-0.335,5.383,6.352,4.52,6.352,4.52s-1.74-0.479-1.096-2.631c0.641-2.152,5.21-2.305,3.889-4.834
			c0,0,3.683,3.285-0.945,7.516c0,0,5.023,1.039,6.554-4.475c0.604-2.549-1.489-5.363-4.209-8.693
			c-2.72-3.328-3.362-4.602-2.724-6.188C124.09,97.627,119.847,99.092,120.627,105.299"/>
	</defs>
	<clipPath id="SVGID_8_">
		<use xlink:href="#SVGID_7_"  overflow="visible"/>
	</clipPath>
	<rect x="111.258" y="92.625" clip-path="url(#SVGID_8_)" fill="#F26943" width="24.869" height="29.436"/>
</g>
<g>
	<defs>
		<path id="SVGID_9_" d="M144.668,91.147v2.916c0.896-0.475,1.721-1.023,2.492-1.67v-3.365
			C146.413,89.823,145.59,90.522,144.668,91.147 M118.717,68.959c-0.448,0.798-0.797,1.621-1.098,2.495h2.67
			c0.349-0.874,0.797-1.722,1.318-2.495H118.717z"/>
	</defs>
	<clipPath id="SVGID_10_">
		<use xlink:href="#SVGID_9_"  overflow="visible"/>
	</clipPath>
	<rect x="112.622" y="63.959" clip-path="url(#SVGID_10_)" fill="#604220" width="39.541" height="35.104"/>
</g>
<g>
	<defs>
		<path id="SVGID_11_" d="M65.269,78.694L53.707,90.256c2.973,2.637,6.868,4.252,11.144,4.252c8.935,0,16.244-7.008,16.772-15.814
			H65.269z"/>
	</defs>
	<clipPath id="SVGID_12_">
		<use xlink:href="#SVGID_11_"  overflow="visible"/>
	</clipPath>
	<rect x="48.708" y="73.694" clip-path="url(#SVGID_12_)" fill="#FAB140" width="37.915" height="25.814"/>
</g>
<g>
	<defs>
		<path id="SVGID_13_" d="M48.024,77.681c0,4.276,1.619,8.173,4.252,11.144l11.561-11.561V60.908
			C55.032,61.439,48.024,68.746,48.024,77.681"/>
	</defs>
	<clipPath id="SVGID_14_">
		<use xlink:href="#SVGID_13_"  overflow="visible"/>
	</clipPath>
	<rect x="43.024" y="55.909" clip-path="url(#SVGID_14_)" fill="#C9D748" width="25.813" height="37.916"/>
</g>
<g>
	<defs>
		<path id="SVGID_15_" d="M65.862,76.669h15.761c-0.507-8.467-7.291-15.252-15.761-15.761V76.669z"/>
	</defs>
	<clipPath id="SVGID_16_">
		<use xlink:href="#SVGID_15_"  overflow="visible"/>
	</clipPath>
	<rect x="60.863" y="55.909" clip-path="url(#SVGID_16_)" fill="#6A9448" width="25.76" height="25.76"/>
</g>
<g>
	<defs>
		<path id="SVGID_17_" d="M53.708,90.256l11.56-11.561h16.355C81.094,87.5,73.786,94.508,64.85,94.508
			C60.574,94.508,56.677,92.893,53.708,90.256 M48.025,77.681c0-8.935,7.006-16.243,15.813-16.771v16.354L52.275,88.825
			C49.641,85.854,48.025,81.957,48.025,77.681 M65.863,60.909c8.469,0.508,15.252,7.293,15.76,15.76h-15.76V60.909z M64.675,58.833
			c-10.256,0.093-18.58,8.417-18.674,18.673v0.352c0.095,10.315,8.514,18.678,18.849,18.678c10.395,0,18.85-8.459,18.85-18.855
			c0-10.335-8.359-18.754-18.674-18.848H64.675z"/>
	</defs>
	<clipPath id="SVGID_18_">
		<use xlink:href="#SVGID_17_"  overflow="visible"/>
	</clipPath>
	<rect x="41" y="53.832" clip-path="url(#SVGID_18_)" fill="#604220" width="47.7" height="47.702"/>
</g>
<g>
	<defs>
		<path id="SVGID_19_" d="M141.607,67.084l4.213,4.214l-6.61,2.414L141.607,67.084z M142.911,65.075l23.127-23.126l4.937,4.935
			l-23.128,23.127L142.911,65.075z M167.694,40.291l3.141-3.141c0.272-0.271,0.711-0.271,0.981,0l3.955,3.953
			c0.271,0.271,0.271,0.713,0,0.984l-3.14,3.139L167.694,40.291z M171.234,34.002c-0.373,0.021-0.739,0.174-1.022,0.459
			l-30.228,30.227l-4.688,12.937v0.001h0.002l12.937-4.688l30.238-30.236c0.608-0.611,0.608-1.6,0-2.21l-6.03-6.03
			c-0.285-0.285-0.65-0.438-1.023-0.459H171.234z"/>
	</defs>
	<clipPath id="SVGID_20_">
		<use xlink:href="#SVGID_19_"  overflow="visible"/>
	</clipPath>
	<rect x="130.295" y="28.999" clip-path="url(#SVGID_20_)" fill="#604220" width="53.633" height="53.627"/>
</g>
<rect x="153.452" y="39.627" transform="matrix(-0.7072 -0.707 0.707 -0.7072 228.3476 206.5314)" fill="#FAB140" width="6.979" height="32.706"/>
<g>
	<defs>
		<path id="SVGID_21_" d="M125.334,67.667c-5.488,5.492-5.488,14.427,0,19.917c2.662,2.662,6.199,4.125,9.959,4.125
			c3.765,0,7.304-1.463,9.961-4.125c3.191-3.188,4.664-7.753,3.943-12.209c-0.107-0.686-0.762-1.141-1.428-1.033
			c-0.68,0.108-1.145,0.75-1.031,1.43c0.592,3.67-0.619,7.426-3.246,10.051c-2.188,2.189-5.101,3.395-8.199,3.395
			c-3.096,0-6.004-1.205-8.195-3.395c-4.52-4.52-4.52-11.875,0-16.396c2.624-2.621,6.379-3.833,10.05-3.243
			c0.668,0.113,1.319-0.353,1.429-1.033c0.109-0.682-0.351-1.318-1.031-1.431c-0.742-0.118-1.485-0.177-2.226-0.177
			C131.608,63.543,127.995,65.008,125.334,67.667"/>
	</defs>
	<clipPath id="SVGID_22_">
		<use xlink:href="#SVGID_21_"  overflow="visible"/>
	</clipPath>
	<rect x="116.219" y="58.544" clip-path="url(#SVGID_22_)" fill="#F26943" width="38.158" height="38.166"/>
</g>
</svg>
